<svg  viewBox="0 0 124 35" fill="none" xmlns="http://www.w3.org/2000/svg" aria-hidden="true">
<path d="M39.2301 13.7363C37.3488 13.7363 35.9228 14.4132 35.171 15.2495V8.63684H33.0469V26.383H35.0477L35.1277 25.0249C35.999 25.9762 37.4321 26.4916 39.2514 26.4916C41.0707 26.4916 42.5871 25.9691 43.5055 24.9822C44.6447 23.7668 45.1756 22.1858 45.1756 20.0061C45.1756 17.9569 44.6719 16.4211 43.6353 15.3102C42.6298 14.2362 41.2302 13.7363 39.2301 13.7363ZM39.0357 15.7307C40.5611 15.7307 41.5441 16.113 42.2216 16.97C42.7809 17.683 43.0302 18.6524 43.0302 20.1139C43.0302 21.704 42.7363 22.767 42.1047 23.4594L42.1021 23.4619C41.453 24.1917 40.3855 24.5618 38.9278 24.5618C36.5505 24.5618 35.6806 23.254 35.3725 22.468C35.2408 22.0553 35.1284 21.6924 35.1284 20.4162C35.1284 19.2924 35.1865 18.8107 35.315 18.168C35.7077 16.5961 37.0297 15.7307 39.0363 15.7307H39.0357Z" fill="white"></path>
<path d="M52.8057 13.7363C50.7674 13.7363 49.1031 14.4028 47.9923 15.6648C46.9971 16.7956 46.4707 18.3489 46.4707 20.1572C46.4707 24.1775 48.839 26.5781 52.805 26.5781C56.7711 26.5781 59.0961 24.1175 59.0961 20.1572C59.0961 16.197 56.8034 13.7363 52.805 13.7363H52.8057ZM52.8057 24.5618C50.0512 24.5618 48.5955 23.0389 48.5955 20.1572C48.5955 17.2755 50.1222 15.7959 52.7837 15.7959C55.6415 15.7959 56.9726 17.1818 56.9726 20.1572C56.9726 23.1326 55.493 24.5618 52.8057 24.5618Z" fill="white"></path>
<path d="M71.7758 17.9956C71.7758 21.2913 71.79 24.3907 71.8048 26.3837H69.6135C69.6084 24.4075 69.6084 21.0866 69.6084 18.2766C69.6084 16.5987 68.6629 15.8172 66.6304 15.8172C64.1995 15.8172 63.1113 17.1935 63.1113 18.5575V26.3837H60.9658V13.9734H63.0473V15.1339C64.0884 13.9379 65.9994 13.7357 67.1716 13.7357C70.0553 13.7357 71.7771 15.3283 71.7771 17.9956H71.7758Z" fill="white"></path>
<path d="M85.5194 24.9326V8.74475H83.3953V15.1314C82.5861 14.2957 81.2027 13.801 79.5739 13.801C75.8397 13.801 73.5205 16.2694 73.5205 20.2432C73.5205 24.217 75.5168 26.5775 79.1418 26.5775C80.305 26.5775 82.2806 26.3657 83.4289 25.0637L83.5736 26.3825H85.6099L85.5827 26.0951C85.5827 26.088 85.5188 25.4098 85.5188 24.9313L85.5194 24.9326ZM79.488 24.6697C76.9169 24.6697 75.6666 23.2146 75.6666 20.2219C75.6666 17.3828 77.0028 15.8819 79.5313 15.8819C80.8901 15.8819 81.8104 16.1828 82.4285 16.8299C83.0937 17.5261 83.4173 18.657 83.4173 20.2864C83.4173 23.2766 82.1689 24.6697 79.488 24.6697Z" fill="white"></path>
<path d="M99.1723 22.2277H97.0488L97.0243 22.4635C96.9565 23.1138 96.4547 24.6264 93.2668 24.6264C90.6912 24.6264 89.302 23.4367 89.1348 21.0891H99.2001L99.2117 20.8392C99.3273 18.4005 98.8061 16.5567 97.663 15.358C96.6368 14.2821 95.1139 13.7363 93.137 13.7363C91.2654 13.7363 89.7167 14.3034 88.6582 15.3755C87.5557 16.4921 86.9971 18.0938 86.9971 20.1352C86.9971 24.41 89.0993 26.5781 93.2455 26.5781C97.9549 26.5781 98.9243 23.7493 99.1226 22.5332L99.1723 22.2284V22.2277ZM93.137 15.7307C95.6725 15.7307 96.9519 16.8602 97.0398 19.1814H89.1277C89.1955 17.7831 89.8555 15.7307 93.137 15.7307Z" fill="white"></path>
<path d="M106.718 20.0306L111.826 13.974H109.324L105.499 18.4897L101.923 13.974H99.2792L104.243 20.0894L98.9414 26.3837H101.422L105.423 21.6284L109.277 26.3837H111.877L106.718 20.0306Z" fill="white"></path>
<path d="M114.484 9.34147V11.9713H113.765V9.34147H112.716V8.74536H115.537V9.34147H114.484Z" fill="white"></path>
<path d="M118.632 11.9713V9.84005L117.885 11.9713H117.191L116.468 9.84005V11.9713H115.811V8.74536H116.766L117.547 11.0813L118.364 8.74536H119.29V11.9713H118.633H118.632Z" fill="white"></path>
<path d="M4.71158 17.6075H4.71094V17.6218V30.0682H20.6178L8.16421 17.6146L4.71158 17.6075Z" fill="url(#paint0_linear_1161_54274)"></path>
<path d="M4.71158 17.6075H4.71094V17.6218V30.0682H20.6178L8.16421 17.6146L4.71158 17.6075Z" fill="url(#paint1_linear_1161_54274)"></path>
<path d="M21.6828 17.6079L14.9199 24.3707L20.5895 30.0403L27.3524 23.2775L21.6828 17.6079Z" fill="url(#paint2_linear_1161_54274)"></path>
<path d="M20.5895 5.17574L14.9199 10.8453L21.6828 17.6082L27.3524 11.9386L20.5895 5.17574Z" fill="url(#paint3_linear_1161_54274)"></path>
<path d="M4.71094 21.0679L20.6178 5.16101H4.71094V17.6075H4.71158L4.71094 21.0679Z" fill="url(#paint4_linear_1161_54274)"></path>
<defs>
<linearGradient id="paint0_linear_1161_54274" x1="12.6644" y1="17.6838" x2="12.6644" y2="29.6123" gradientUnits="userSpaceOnUse">
<stop offset="0.65" stop-color="#1A8772"></stop>
<stop offset="0.89" stop-color="#16AF91"></stop>
<stop offset="1" stop-color="#1A8772"></stop>
</linearGradient>
<linearGradient id="paint1_linear_1161_54274" x1="4.38931" y1="21.7938" x2="10.8483" y2="28.2522" gradientUnits="userSpaceOnUse">
<stop stop-color="#205147"></stop>
<stop offset="1" stop-color="#205349" stop-opacity="0"></stop>
</linearGradient>
<linearGradient id="paint2_linear_1161_54274" x1="17.6215" y1="27.3376" x2="24.0844" y2="20.8754" gradientUnits="userSpaceOnUse">
<stop offset="0.12" stop-color="#205147"></stop>
<stop offset="0.5" stop-color="#1D6C5C"></stop>
</linearGradient>
<linearGradient id="paint3_linear_1161_54274" x1="17.6977" y1="7.95324" x2="24.0676" y2="14.3231" gradientUnits="userSpaceOnUse">
<stop offset="0.12" stop-color="#205147"></stop>
<stop offset="0.5" stop-color="#1D6C5C"></stop>
</linearGradient>
<linearGradient id="paint4_linear_1161_54274" x1="12.6644" y1="21.3114" x2="12.6644" y2="5.84818" gradientUnits="userSpaceOnUse">
<stop offset="0.65" stop-color="#1A8772"></stop>
<stop offset="0.89" stop-color="#16AF91"></stop>
<stop offset="1" stop-color="#1A8772"></stop>
</linearGradient>
</defs>
</svg>
