<svg width="99" height="17" viewBox="0 0 99 17" fill="none" xmlns="http://www.w3.org/2000/svg">
<g id="CT-logo-BlackYellow-tag">
<g id="Atoms_x2F_Icons_x2F_logos_x2F_CT-GY-icon">
<g id="Group">
<path id="Shape" d="M10.2013 11.7441L7.41674 12.9884V12.8628C6.88212 12.9998 6.28066 13.0797 5.72376 13.1139C3.09517 13.0911 1.02349 11.6756 0.990075 10.009V9.39255C1.84771 10.6711 3.60752 11.5386 5.72376 11.5044C6.43659 11.5386 7.17171 11.4245 7.7843 11.2532L8.02934 10.6368C7.30536 10.8651 6.50342 11.0135 5.72376 11.0135C3.09517 11.0135 1.02349 9.60944 0.990075 7.90856V7.40629C1.84771 8.59348 3.60752 9.44962 5.72376 9.39255C6.68163 9.44962 7.60609 9.24415 8.3969 8.89028L8.51941 8.27385C7.75089 8.6848 6.7596 8.92452 5.7349 8.89028C3.10631 8.92452 1.03463 7.52044 1.00121 5.78532V5.28305C1.85885 6.49307 3.61866 7.36063 5.7349 7.39488C6.93781 7.36063 8.07389 7.02959 9.00949 6.52732L9.13201 5.78532C8.28551 6.42458 7.04919 6.84694 5.7349 6.90402C3.10631 6.84694 1.03463 5.43145 1.00121 3.6735C1.02349 1.99546 3.10631 0.591383 5.7349 0.568553C7.29423 0.591383 8.75331 1.15073 9.61095 2.06395L9.70005 2.21235H10.3126L10.2235 2.06395C9.36591 0.86535 7.63951 0.0776962 5.7349 0.0776962C2.81672 0.066281 0.5 1.69866 0.5 3.66209V3.78765V10.1231C0.600243 12.0409 2.86127 13.6048 5.71262 13.6048C7.59495 13.6162 9.29908 12.8514 10.2013 11.7441Z" fill="white"/>
<path id="Shape_1_" d="M9.0649 16.1159L10.045 11.8466L7.22711 13.1023L8.94238 5.70519H5.64551L6.50314 2.06372H17.0286L16.171 5.70519H12.7405L12.0053 7.71427L15.8034 6.08189L9.0649 16.1159ZM10.7802 10.979L10.2901 13.4904L14.3332 7.22341L11.0252 8.73023L12.4954 5.21433H15.8034L16.416 2.57741H6.85956L6.24696 5.21433H9.55497L7.96223 12.2347L10.7802 10.979Z" fill="white"/>
</g>
</g>
<path id="Shape_2_" d="M25.9272 9.22594C25.9459 9.89655 25.7403 10.4139 25.329 10.7971C24.9177 11.1803 24.3568 11.3719 23.6277 11.3719C22.8986 11.3719 22.3004 11.1228 21.8517 10.6438C21.4031 10.1648 21.1787 9.5325 21.1787 8.76609V7.52069C21.1787 6.75428 21.403 6.122 21.833 5.643C22.2817 5.16399 22.8613 4.91491 23.5717 4.91491C24.3195 4.91491 24.899 5.10651 25.329 5.47056C25.759 5.85376 25.9646 6.37108 25.9459 7.04168V7.06084H24.7494C24.7494 6.65848 24.656 6.35192 24.469 6.16032C24.2821 5.96872 23.9829 5.87292 23.5904 5.87292C23.2165 5.87292 22.936 6.0262 22.7304 6.33276C22.5247 6.63932 22.4126 7.02253 22.4126 7.50153V8.76609C22.4126 9.2451 22.5247 9.64746 22.7304 9.95402C22.9547 10.2606 23.2538 10.4139 23.6464 10.4139C24.0203 10.4139 24.2821 10.3181 24.469 10.1265C24.656 9.93486 24.7494 9.6283 24.7494 9.22594H25.9272ZM32.6948 8.70862C32.6948 9.47502 32.4517 10.1265 31.9844 10.6246C31.517 11.1228 30.9001 11.3719 30.1336 11.3719C29.3671 11.3719 28.7688 11.1228 28.2828 10.6246C27.8154 10.1265 27.5724 9.47502 27.5724 8.70862V7.57817C27.5724 6.81176 27.8154 6.17948 28.2828 5.66216C28.7501 5.16399 29.3671 4.89575 30.1149 4.89575C30.8814 4.89575 31.4983 5.14483 31.9657 5.66216C32.4517 6.16032 32.6761 6.81176 32.6761 7.57817V8.70862H32.6948ZM31.4609 7.55901C31.4609 7.06084 31.3487 6.67764 31.1057 6.35192C30.8627 6.04536 30.5448 5.87292 30.1149 5.87292C29.7036 5.87292 29.3671 6.0262 29.1427 6.35192C28.9184 6.65848 28.7875 7.06084 28.7875 7.55901V8.68945C28.7875 9.18762 28.8997 9.58998 29.1427 9.9157C29.3671 10.2223 29.7036 10.3947 30.1149 10.3947C30.5448 10.3947 30.8627 10.2414 31.1057 9.9157C31.3487 9.60914 31.4609 9.18762 31.4609 8.68945V7.55901ZM35.8729 11.2761H34.639V4.99155H35.8729V11.2761ZM42.9583 11.2761H41.7244L39.2567 7.04168H39.238V11.2761H38.0041V4.99155H39.238L41.7057 9.22594H41.7244V4.99155H42.9583V11.2761ZM49.1463 5.96872H47.3889V11.2761H46.1551V5.96872H44.4352V4.99155H49.1463V5.96872ZM54.2313 8.51701H51.9505V10.3181H54.6612V11.2761H50.7353V4.99155H54.6612V5.96872H51.9692V7.53985H54.25V8.51701H54.2313ZM57.6524 10.3181H60.4006V11.2761H56.4186V4.99155H57.6524V10.3181ZM65.6351 8.51701H63.3544V10.3181H66.0651V11.2761H62.1392V4.99155H66.0651V5.96872H63.3731V7.53985H65.6538V8.51701H65.6351ZM72.5336 10.433C72.3466 10.6821 72.0662 10.912 71.6736 11.1036C71.2997 11.2952 70.8136 11.391 70.2154 11.391C69.4676 11.391 68.8694 11.1611 68.402 10.6821C67.9346 10.2031 67.6916 9.58998 67.6916 8.82358V7.50153C67.6916 6.73512 67.9159 6.122 68.3833 5.643C68.832 5.16399 69.4302 4.91491 70.1406 4.91491C70.8884 4.91491 71.4679 5.10651 71.8605 5.47056C72.2531 5.8346 72.4588 6.3136 72.4401 6.92673V6.94588H71.281C71.281 6.62016 71.1875 6.35192 71.0006 6.16032C70.8136 5.96872 70.5332 5.87292 70.178 5.87292C69.8041 5.87292 69.505 6.0262 69.262 6.3136C69.0376 6.62016 68.9254 7.00336 68.9254 7.46321V8.78525C68.9254 9.26426 69.0376 9.64746 69.2806 9.95402C69.5237 10.2606 69.8415 10.3947 70.2341 10.3947C70.5332 10.3947 70.7575 10.3564 70.9258 10.2989C71.0941 10.2414 71.2249 10.1648 71.3184 10.069V8.84274H70.1406V7.96137H72.5523V10.433H72.5336ZM75.7117 8.76609V11.2761H74.4778V4.99155H76.609C77.3008 4.99155 77.8616 5.16399 78.2542 5.48972C78.6468 5.81544 78.8524 6.27528 78.8524 6.85008C78.8524 7.1758 78.7777 7.44405 78.6094 7.69313C78.4411 7.92305 78.1981 8.11465 77.8803 8.26793C78.2355 8.3829 78.4972 8.55534 78.6655 8.82358C78.815 9.07266 78.9085 9.39838 78.9085 9.78158V10.2414C78.9085 10.4139 78.9272 10.6055 78.9833 10.7971C79.0207 10.9887 79.1142 11.1228 79.2263 11.2186V11.3144H77.9551C77.8429 11.2186 77.7681 11.0653 77.7307 10.8546C77.6933 10.6438 77.6747 10.433 77.6747 10.2414V9.80074C77.6747 9.49418 77.5999 9.2451 77.4316 9.07266C77.2634 8.90022 77.0203 8.80442 76.7212 8.80442H75.7117V8.76609ZM75.7117 7.80809H76.5904C76.9269 7.80809 77.1886 7.73145 77.3568 7.57817C77.5251 7.42489 77.6186 7.21413 77.6186 6.90756C77.6186 6.62016 77.5251 6.39024 77.3568 6.2178C77.1886 6.04536 76.9456 5.96872 76.609 5.96872H75.7117V7.80809ZM84.0683 9.93486H82.0866L81.6754 11.2952H80.3854L82.4605 5.01071H83.7131L85.7695 11.2952H84.4796L84.0683 9.93486ZM82.3858 8.93854H83.7692L83.0962 6.71596H83.0775L82.3858 8.93854ZM88.499 8.99602V11.2761H87.2651V4.99155H89.6207C90.3311 4.99155 90.8732 5.18315 91.2845 5.54719C91.6958 5.91124 91.8828 6.4094 91.8828 7.00337C91.8828 7.59733 91.6771 8.09549 91.2845 8.45954C90.8732 8.82358 90.3311 9.01518 89.6207 9.01518H88.499V8.99602ZM88.499 8.03801H89.6207C89.9572 8.03801 90.2189 7.94221 90.4059 7.75061C90.5741 7.55901 90.6676 7.30993 90.6676 7.02253C90.6676 6.71596 90.5741 6.46688 90.4059 6.27528C90.2376 6.08368 89.9759 5.98788 89.6207 5.98788H88.499V8.03801ZM98.6316 11.2761H97.3978V8.67029H94.8926V11.2761H93.6588V4.99155H94.8926V7.69313H97.3978V4.99155H98.6316V11.2761Z" fill="white"/>
</g>
</svg>
