<?xml version="1.0" standalone="no"?>
<svg xmlns="http://www.w3.org/2000/svg" version="1.1" width="410" height="410">
	<!-- Created with https://api.qrserver.com (QR Code API, see goQR.me/api for information) -->
	<title>QR Code</title>
	<desc>monero:47RzzwG62wBc5zDLm3M3xGUJAw7AY6vnW4hSHqo1jyJF1UsHCv56pPLgw4LAGwgfEe5RrR9SwaatBXtr77ZMW7sgTVZeRCz</desc>
	<rect style="fill:rgb(17, 17, 19);fill-opacity:1" x="0" y="0" width="410" height="410" />
	<g id="elements">
		<path style="fill:rgb(234, 232, 228)" d="M 20,20 l 10,0 0,10 -10,0 z M 30,20 l 10,0 0,10 -10,0 z M 40,20 l 10,0 0,10 -10,0 z M 50,20 l 10,0 0,10 -10,0 z M 60,20 l 10,0 0,10 -10,0 z M 70,20 l 10,0 0,10 -10,0 z M 80,20 l 10,0 0,10 -10,0 z M 120,20 l 10,0 0,10 -10,0 z M 140,20 l 10,0 0,10 -10,0 z M 160,20 l 10,0 0,10 -10,0 z M 180,20 l 10,0 0,10 -10,0 z M 210,20 l 10,0 0,10 -10,0 z M 220,20 l 10,0 0,10 -10,0 z M 230,20 l 10,0 0,10 -10,0 z M 280,20 l 10,0 0,10 -10,0 z M 300,20 l 10,0 0,10 -10,0 z M 320,20 l 10,0 0,10 -10,0 z M 330,20 l 10,0 0,10 -10,0 z M 340,20 l 10,0 0,10 -10,0 z M 350,20 l 10,0 0,10 -10,0 z M 360,20 l 10,0 0,10 -10,0 z M 370,20 l 10,0 0,10 -10,0 z M 380,20 l 10,0 0,10 -10,0 z M 20,30 l 10,0 0,10 -10,0 z M 80,30 l 10,0 0,10 -10,0 z M 100,30 l 10,0 0,10 -10,0 z M 120,30 l 10,0 0,10 -10,0 z M 150,30 l 10,0 0,10 -10,0 z M 170,30 l 10,0 0,10 -10,0 z M 190,30 l 10,0 0,10 -10,0 z M 220,30 l 10,0 0,10 -10,0 z M 240,30 l 10,0 0,10 -10,0 z M 260,30 l 10,0 0,10 -10,0 z M 270,30 l 10,0 0,10 -10,0 z M 280,30 l 10,0 0,10 -10,0 z M 290,30 l 10,0 0,10 -10,0 z M 300,30 l 10,0 0,10 -10,0 z M 320,30 l 10,0 0,10 -10,0 z M 380,30 l 10,0 0,10 -10,0 z M 20,40 l 10,0 0,10 -10,0 z M 40,40 l 10,0 0,10 -10,0 z M 50,40 l 10,0 0,10 -10,0 z M 60,40 l 10,0 0,10 -10,0 z M 80,40 l 10,0 0,10 -10,0 z M 140,40 l 10,0 0,10 -10,0 z M 170,40 l 10,0 0,10 -10,0 z M 180,40 l 10,0 0,10 -10,0 z M 210,40 l 10,0 0,10 -10,0 z M 220,40 l 10,0 0,10 -10,0 z M 230,40 l 10,0 0,10 -10,0 z M 250,40 l 10,0 0,10 -10,0 z M 260,40 l 10,0 0,10 -10,0 z M 280,40 l 10,0 0,10 -10,0 z M 290,40 l 10,0 0,10 -10,0 z M 320,40 l 10,0 0,10 -10,0 z M 340,40 l 10,0 0,10 -10,0 z M 350,40 l 10,0 0,10 -10,0 z M 360,40 l 10,0 0,10 -10,0 z M 380,40 l 10,0 0,10 -10,0 z M 20,50 l 10,0 0,10 -10,0 z M 40,50 l 10,0 0,10 -10,0 z M 50,50 l 10,0 0,10 -10,0 z M 60,50 l 10,0 0,10 -10,0 z M 80,50 l 10,0 0,10 -10,0 z M 100,50 l 10,0 0,10 -10,0 z M 110,50 l 10,0 0,10 -10,0 z M 120,50 l 10,0 0,10 -10,0 z M 140,50 l 10,0 0,10 -10,0 z M 150,50 l 10,0 0,10 -10,0 z M 170,50 l 10,0 0,10 -10,0 z M 180,50 l 10,0 0,10 -10,0 z M 190,50 l 10,0 0,10 -10,0 z M 250,50 l 10,0 0,10 -10,0 z M 260,50 l 10,0 0,10 -10,0 z M 270,50 l 10,0 0,10 -10,0 z M 290,50 l 10,0 0,10 -10,0 z M 320,50 l 10,0 0,10 -10,0 z M 340,50 l 10,0 0,10 -10,0 z M 350,50 l 10,0 0,10 -10,0 z M 360,50 l 10,0 0,10 -10,0 z M 380,50 l 10,0 0,10 -10,0 z M 20,60 l 10,0 0,10 -10,0 z M 40,60 l 10,0 0,10 -10,0 z M 50,60 l 10,0 0,10 -10,0 z M 60,60 l 10,0 0,10 -10,0 z M 80,60 l 10,0 0,10 -10,0 z M 110,60 l 10,0 0,10 -10,0 z M 160,60 l 10,0 0,10 -10,0 z M 180,60 l 10,0 0,10 -10,0 z M 200,60 l 10,0 0,10 -10,0 z M 220,60 l 10,0 0,10 -10,0 z M 230,60 l 10,0 0,10 -10,0 z M 240,60 l 10,0 0,10 -10,0 z M 280,60 l 10,0 0,10 -10,0 z M 290,60 l 10,0 0,10 -10,0 z M 300,60 l 10,0 0,10 -10,0 z M 320,60 l 10,0 0,10 -10,0 z M 340,60 l 10,0 0,10 -10,0 z M 350,60 l 10,0 0,10 -10,0 z M 360,60 l 10,0 0,10 -10,0 z M 380,60 l 10,0 0,10 -10,0 z M 20,70 l 10,0 0,10 -10,0 z M 80,70 l 10,0 0,10 -10,0 z M 100,70 l 10,0 0,10 -10,0 z M 110,70 l 10,0 0,10 -10,0 z M 130,70 l 10,0 0,10 -10,0 z M 140,70 l 10,0 0,10 -10,0 z M 150,70 l 10,0 0,10 -10,0 z M 160,70 l 10,0 0,10 -10,0 z M 170,70 l 10,0 0,10 -10,0 z M 190,70 l 10,0 0,10 -10,0 z M 220,70 l 10,0 0,10 -10,0 z M 230,70 l 10,0 0,10 -10,0 z M 270,70 l 10,0 0,10 -10,0 z M 280,70 l 10,0 0,10 -10,0 z M 290,70 l 10,0 0,10 -10,0 z M 320,70 l 10,0 0,10 -10,0 z M 380,70 l 10,0 0,10 -10,0 z M 20,80 l 10,0 0,10 -10,0 z M 30,80 l 10,0 0,10 -10,0 z M 40,80 l 10,0 0,10 -10,0 z M 50,80 l 10,0 0,10 -10,0 z M 60,80 l 10,0 0,10 -10,0 z M 70,80 l 10,0 0,10 -10,0 z M 80,80 l 10,0 0,10 -10,0 z M 100,80 l 10,0 0,10 -10,0 z M 120,80 l 10,0 0,10 -10,0 z M 140,80 l 10,0 0,10 -10,0 z M 160,80 l 10,0 0,10 -10,0 z M 180,80 l 10,0 0,10 -10,0 z M 200,80 l 10,0 0,10 -10,0 z M 220,80 l 10,0 0,10 -10,0 z M 240,80 l 10,0 0,10 -10,0 z M 260,80 l 10,0 0,10 -10,0 z M 280,80 l 10,0 0,10 -10,0 z M 300,80 l 10,0 0,10 -10,0 z M 320,80 l 10,0 0,10 -10,0 z M 330,80 l 10,0 0,10 -10,0 z M 340,80 l 10,0 0,10 -10,0 z M 350,80 l 10,0 0,10 -10,0 z M 360,80 l 10,0 0,10 -10,0 z M 370,80 l 10,0 0,10 -10,0 z M 380,80 l 10,0 0,10 -10,0 z M 110,90 l 10,0 0,10 -10,0 z M 120,90 l 10,0 0,10 -10,0 z M 130,90 l 10,0 0,10 -10,0 z M 160,90 l 10,0 0,10 -10,0 z M 170,90 l 10,0 0,10 -10,0 z M 230,90 l 10,0 0,10 -10,0 z M 240,90 l 10,0 0,10 -10,0 z M 260,90 l 10,0 0,10 -10,0 z M 280,90 l 10,0 0,10 -10,0 z M 20,100 l 10,0 0,10 -10,0 z M 30,100 l 10,0 0,10 -10,0 z M 40,100 l 10,0 0,10 -10,0 z M 50,100 l 10,0 0,10 -10,0 z M 60,100 l 10,0 0,10 -10,0 z M 80,100 l 10,0 0,10 -10,0 z M 90,100 l 10,0 0,10 -10,0 z M 100,100 l 10,0 0,10 -10,0 z M 110,100 l 10,0 0,10 -10,0 z M 130,100 l 10,0 0,10 -10,0 z M 140,100 l 10,0 0,10 -10,0 z M 150,100 l 10,0 0,10 -10,0 z M 180,100 l 10,0 0,10 -10,0 z M 190,100 l 10,0 0,10 -10,0 z M 230,100 l 10,0 0,10 -10,0 z M 240,100 l 10,0 0,10 -10,0 z M 250,100 l 10,0 0,10 -10,0 z M 280,100 l 10,0 0,10 -10,0 z M 310,100 l 10,0 0,10 -10,0 z M 330,100 l 10,0 0,10 -10,0 z M 350,100 l 10,0 0,10 -10,0 z M 370,100 l 10,0 0,10 -10,0 z M 20,110 l 10,0 0,10 -10,0 z M 30,110 l 10,0 0,10 -10,0 z M 40,110 l 10,0 0,10 -10,0 z M 50,110 l 10,0 0,10 -10,0 z M 60,110 l 10,0 0,10 -10,0 z M 70,110 l 10,0 0,10 -10,0 z M 120,110 l 10,0 0,10 -10,0 z M 140,110 l 10,0 0,10 -10,0 z M 160,110 l 10,0 0,10 -10,0 z M 170,110 l 10,0 0,10 -10,0 z M 180,110 l 10,0 0,10 -10,0 z M 200,110 l 10,0 0,10 -10,0 z M 220,110 l 10,0 0,10 -10,0 z M 230,110 l 10,0 0,10 -10,0 z M 240,110 l 10,0 0,10 -10,0 z M 250,110 l 10,0 0,10 -10,0 z M 290,110 l 10,0 0,10 -10,0 z M 300,110 l 10,0 0,10 -10,0 z M 330,110 l 10,0 0,10 -10,0 z M 360,110 l 10,0 0,10 -10,0 z M 20,120 l 10,0 0,10 -10,0 z M 30,120 l 10,0 0,10 -10,0 z M 40,120 l 10,0 0,10 -10,0 z M 50,120 l 10,0 0,10 -10,0 z M 60,120 l 10,0 0,10 -10,0 z M 80,120 l 10,0 0,10 -10,0 z M 90,120 l 10,0 0,10 -10,0 z M 110,120 l 10,0 0,10 -10,0 z M 120,120 l 10,0 0,10 -10,0 z M 140,120 l 10,0 0,10 -10,0 z M 150,120 l 10,0 0,10 -10,0 z M 160,120 l 10,0 0,10 -10,0 z M 170,120 l 10,0 0,10 -10,0 z M 190,120 l 10,0 0,10 -10,0 z M 230,120 l 10,0 0,10 -10,0 z M 240,120 l 10,0 0,10 -10,0 z M 260,120 l 10,0 0,10 -10,0 z M 290,120 l 10,0 0,10 -10,0 z M 300,120 l 10,0 0,10 -10,0 z M 320,120 l 10,0 0,10 -10,0 z M 340,120 l 10,0 0,10 -10,0 z M 360,120 l 10,0 0,10 -10,0 z M 370,120 l 10,0 0,10 -10,0 z M 380,120 l 10,0 0,10 -10,0 z M 40,130 l 10,0 0,10 -10,0 z M 50,130 l 10,0 0,10 -10,0 z M 60,130 l 10,0 0,10 -10,0 z M 90,130 l 10,0 0,10 -10,0 z M 110,130 l 10,0 0,10 -10,0 z M 120,130 l 10,0 0,10 -10,0 z M 130,130 l 10,0 0,10 -10,0 z M 140,130 l 10,0 0,10 -10,0 z M 160,130 l 10,0 0,10 -10,0 z M 200,130 l 10,0 0,10 -10,0 z M 220,130 l 10,0 0,10 -10,0 z M 230,130 l 10,0 0,10 -10,0 z M 240,130 l 10,0 0,10 -10,0 z M 250,130 l 10,0 0,10 -10,0 z M 260,130 l 10,0 0,10 -10,0 z M 280,130 l 10,0 0,10 -10,0 z M 290,130 l 10,0 0,10 -10,0 z M 300,130 l 10,0 0,10 -10,0 z M 310,130 l 10,0 0,10 -10,0 z M 350,130 l 10,0 0,10 -10,0 z M 50,140 l 10,0 0,10 -10,0 z M 80,140 l 10,0 0,10 -10,0 z M 120,140 l 10,0 0,10 -10,0 z M 130,140 l 10,0 0,10 -10,0 z M 160,140 l 10,0 0,10 -10,0 z M 170,140 l 10,0 0,10 -10,0 z M 210,140 l 10,0 0,10 -10,0 z M 240,140 l 10,0 0,10 -10,0 z M 250,140 l 10,0 0,10 -10,0 z M 260,140 l 10,0 0,10 -10,0 z M 280,140 l 10,0 0,10 -10,0 z M 290,140 l 10,0 0,10 -10,0 z M 300,140 l 10,0 0,10 -10,0 z M 320,140 l 10,0 0,10 -10,0 z M 360,140 l 10,0 0,10 -10,0 z M 380,140 l 10,0 0,10 -10,0 z M 40,150 l 10,0 0,10 -10,0 z M 90,150 l 10,0 0,10 -10,0 z M 100,150 l 10,0 0,10 -10,0 z M 120,150 l 10,0 0,10 -10,0 z M 130,150 l 10,0 0,10 -10,0 z M 150,150 l 10,0 0,10 -10,0 z M 160,150 l 10,0 0,10 -10,0 z M 170,150 l 10,0 0,10 -10,0 z M 180,150 l 10,0 0,10 -10,0 z M 200,150 l 10,0 0,10 -10,0 z M 220,150 l 10,0 0,10 -10,0 z M 230,150 l 10,0 0,10 -10,0 z M 240,150 l 10,0 0,10 -10,0 z M 250,150 l 10,0 0,10 -10,0 z M 270,150 l 10,0 0,10 -10,0 z M 280,150 l 10,0 0,10 -10,0 z M 290,150 l 10,0 0,10 -10,0 z M 300,150 l 10,0 0,10 -10,0 z M 310,150 l 10,0 0,10 -10,0 z M 330,150 l 10,0 0,10 -10,0 z M 350,150 l 10,0 0,10 -10,0 z M 360,150 l 10,0 0,10 -10,0 z M 370,150 l 10,0 0,10 -10,0 z M 30,160 l 10,0 0,10 -10,0 z M 40,160 l 10,0 0,10 -10,0 z M 50,160 l 10,0 0,10 -10,0 z M 60,160 l 10,0 0,10 -10,0 z M 70,160 l 10,0 0,10 -10,0 z M 80,160 l 10,0 0,10 -10,0 z M 90,160 l 10,0 0,10 -10,0 z M 100,160 l 10,0 0,10 -10,0 z M 110,160 l 10,0 0,10 -10,0 z M 150,160 l 10,0 0,10 -10,0 z M 170,160 l 10,0 0,10 -10,0 z M 290,160 l 10,0 0,10 -10,0 z M 300,160 l 10,0 0,10 -10,0 z M 310,160 l 10,0 0,10 -10,0 z M 320,160 l 10,0 0,10 -10,0 z M 330,160 l 10,0 0,10 -10,0 z M 340,160 l 10,0 0,10 -10,0 z M 350,160 l 10,0 0,10 -10,0 z M 360,160 l 10,0 0,10 -10,0 z M 370,160 l 10,0 0,10 -10,0 z M 380,160 l 10,0 0,10 -10,0 z M 30,170 l 10,0 0,10 -10,0 z M 90,170 l 10,0 0,10 -10,0 z M 100,170 l 10,0 0,10 -10,0 z M 110,170 l 10,0 0,10 -10,0 z M 120,170 l 10,0 0,10 -10,0 z M 130,170 l 10,0 0,10 -10,0 z M 140,170 l 10,0 0,10 -10,0 z M 170,170 l 10,0 0,10 -10,0 z M 180,170 l 10,0 0,10 -10,0 z M 220,170 l 10,0 0,10 -10,0 z M 230,170 l 10,0 0,10 -10,0 z M 240,170 l 10,0 0,10 -10,0 z M 260,170 l 10,0 0,10 -10,0 z M 280,170 l 10,0 0,10 -10,0 z M 300,170 l 10,0 0,10 -10,0 z M 310,170 l 10,0 0,10 -10,0 z M 320,170 l 10,0 0,10 -10,0 z M 330,170 l 10,0 0,10 -10,0 z M 350,170 l 10,0 0,10 -10,0 z M 370,170 l 10,0 0,10 -10,0 z M 380,170 l 10,0 0,10 -10,0 z M 30,180 l 10,0 0,10 -10,0 z M 50,180 l 10,0 0,10 -10,0 z M 70,180 l 10,0 0,10 -10,0 z M 80,180 l 10,0 0,10 -10,0 z M 120,180 l 10,0 0,10 -10,0 z M 140,180 l 10,0 0,10 -10,0 z M 160,180 l 10,0 0,10 -10,0 z M 170,180 l 10,0 0,10 -10,0 z M 180,180 l 10,0 0,10 -10,0 z M 190,180 l 10,0 0,10 -10,0 z M 220,180 l 10,0 0,10 -10,0 z M 230,180 l 10,0 0,10 -10,0 z M 240,180 l 10,0 0,10 -10,0 z M 270,180 l 10,0 0,10 -10,0 z M 290,180 l 10,0 0,10 -10,0 z M 310,180 l 10,0 0,10 -10,0 z M 320,180 l 10,0 0,10 -10,0 z M 330,180 l 10,0 0,10 -10,0 z M 340,180 l 10,0 0,10 -10,0 z M 360,180 l 10,0 0,10 -10,0 z M 370,180 l 10,0 0,10 -10,0 z M 380,180 l 10,0 0,10 -10,0 z M 30,190 l 10,0 0,10 -10,0 z M 50,190 l 10,0 0,10 -10,0 z M 70,190 l 10,0 0,10 -10,0 z M 100,190 l 10,0 0,10 -10,0 z M 110,190 l 10,0 0,10 -10,0 z M 150,190 l 10,0 0,10 -10,0 z M 180,190 l 10,0 0,10 -10,0 z M 200,190 l 10,0 0,10 -10,0 z M 210,190 l 10,0 0,10 -10,0 z M 250,190 l 10,0 0,10 -10,0 z M 260,190 l 10,0 0,10 -10,0 z M 280,190 l 10,0 0,10 -10,0 z M 290,190 l 10,0 0,10 -10,0 z M 300,190 l 10,0 0,10 -10,0 z M 310,190 l 10,0 0,10 -10,0 z M 330,190 l 10,0 0,10 -10,0 z M 20,200 l 10,0 0,10 -10,0 z M 50,200 l 10,0 0,10 -10,0 z M 80,200 l 10,0 0,10 -10,0 z M 110,200 l 10,0 0,10 -10,0 z M 140,200 l 10,0 0,10 -10,0 z M 160,200 l 10,0 0,10 -10,0 z M 170,200 l 10,0 0,10 -10,0 z M 180,200 l 10,0 0,10 -10,0 z M 220,200 l 10,0 0,10 -10,0 z M 230,200 l 10,0 0,10 -10,0 z M 270,200 l 10,0 0,10 -10,0 z M 280,200 l 10,0 0,10 -10,0 z M 290,200 l 10,0 0,10 -10,0 z M 340,200 l 10,0 0,10 -10,0 z M 350,200 l 10,0 0,10 -10,0 z M 370,200 l 10,0 0,10 -10,0 z M 380,200 l 10,0 0,10 -10,0 z M 20,210 l 10,0 0,10 -10,0 z M 40,210 l 10,0 0,10 -10,0 z M 60,210 l 10,0 0,10 -10,0 z M 70,210 l 10,0 0,10 -10,0 z M 100,210 l 10,0 0,10 -10,0 z M 110,210 l 10,0 0,10 -10,0 z M 130,210 l 10,0 0,10 -10,0 z M 140,210 l 10,0 0,10 -10,0 z M 160,210 l 10,0 0,10 -10,0 z M 170,210 l 10,0 0,10 -10,0 z M 210,210 l 10,0 0,10 -10,0 z M 220,210 l 10,0 0,10 -10,0 z M 230,210 l 10,0 0,10 -10,0 z M 250,210 l 10,0 0,10 -10,0 z M 290,210 l 10,0 0,10 -10,0 z M 350,210 l 10,0 0,10 -10,0 z M 20,220 l 10,0 0,10 -10,0 z M 30,220 l 10,0 0,10 -10,0 z M 40,220 l 10,0 0,10 -10,0 z M 50,220 l 10,0 0,10 -10,0 z M 60,220 l 10,0 0,10 -10,0 z M 80,220 l 10,0 0,10 -10,0 z M 90,220 l 10,0 0,10 -10,0 z M 100,220 l 10,0 0,10 -10,0 z M 110,220 l 10,0 0,10 -10,0 z M 160,220 l 10,0 0,10 -10,0 z M 170,220 l 10,0 0,10 -10,0 z M 190,220 l 10,0 0,10 -10,0 z M 200,220 l 10,0 0,10 -10,0 z M 220,220 l 10,0 0,10 -10,0 z M 230,220 l 10,0 0,10 -10,0 z M 240,220 l 10,0 0,10 -10,0 z M 250,220 l 10,0 0,10 -10,0 z M 260,220 l 10,0 0,10 -10,0 z M 270,220 l 10,0 0,10 -10,0 z M 280,220 l 10,0 0,10 -10,0 z M 300,220 l 10,0 0,10 -10,0 z M 310,220 l 10,0 0,10 -10,0 z M 320,220 l 10,0 0,10 -10,0 z M 330,220 l 10,0 0,10 -10,0 z M 340,220 l 10,0 0,10 -10,0 z M 360,220 l 10,0 0,10 -10,0 z M 370,220 l 10,0 0,10 -10,0 z M 20,230 l 10,0 0,10 -10,0 z M 30,230 l 10,0 0,10 -10,0 z M 70,230 l 10,0 0,10 -10,0 z M 90,230 l 10,0 0,10 -10,0 z M 100,230 l 10,0 0,10 -10,0 z M 120,230 l 10,0 0,10 -10,0 z M 160,230 l 10,0 0,10 -10,0 z M 180,230 l 10,0 0,10 -10,0 z M 210,230 l 10,0 0,10 -10,0 z M 220,230 l 10,0 0,10 -10,0 z M 230,230 l 10,0 0,10 -10,0 z M 250,230 l 10,0 0,10 -10,0 z M 280,230 l 10,0 0,10 -10,0 z M 300,230 l 10,0 0,10 -10,0 z M 320,230 l 10,0 0,10 -10,0 z M 20,240 l 10,0 0,10 -10,0 z M 30,240 l 10,0 0,10 -10,0 z M 60,240 l 10,0 0,10 -10,0 z M 70,240 l 10,0 0,10 -10,0 z M 80,240 l 10,0 0,10 -10,0 z M 90,240 l 10,0 0,10 -10,0 z M 110,240 l 10,0 0,10 -10,0 z M 150,240 l 10,0 0,10 -10,0 z M 160,240 l 10,0 0,10 -10,0 z M 170,240 l 10,0 0,10 -10,0 z M 180,240 l 10,0 0,10 -10,0 z M 220,240 l 10,0 0,10 -10,0 z M 270,240 l 10,0 0,10 -10,0 z M 280,240 l 10,0 0,10 -10,0 z M 290,240 l 10,0 0,10 -10,0 z M 300,240 l 10,0 0,10 -10,0 z M 310,240 l 10,0 0,10 -10,0 z M 320,240 l 10,0 0,10 -10,0 z M 340,240 l 10,0 0,10 -10,0 z M 360,240 l 10,0 0,10 -10,0 z M 370,240 l 10,0 0,10 -10,0 z M 380,240 l 10,0 0,10 -10,0 z M 20,250 l 10,0 0,10 -10,0 z M 30,250 l 10,0 0,10 -10,0 z M 40,250 l 10,0 0,10 -10,0 z M 50,250 l 10,0 0,10 -10,0 z M 60,250 l 10,0 0,10 -10,0 z M 100,250 l 10,0 0,10 -10,0 z M 110,250 l 10,0 0,10 -10,0 z M 120,250 l 10,0 0,10 -10,0 z M 160,250 l 10,0 0,10 -10,0 z M 170,250 l 10,0 0,10 -10,0 z M 210,250 l 10,0 0,10 -10,0 z M 220,250 l 10,0 0,10 -10,0 z M 230,250 l 10,0 0,10 -10,0 z M 240,250 l 10,0 0,10 -10,0 z M 260,250 l 10,0 0,10 -10,0 z M 320,250 l 10,0 0,10 -10,0 z M 330,250 l 10,0 0,10 -10,0 z M 370,250 l 10,0 0,10 -10,0 z M 30,260 l 10,0 0,10 -10,0 z M 50,260 l 10,0 0,10 -10,0 z M 60,260 l 10,0 0,10 -10,0 z M 70,260 l 10,0 0,10 -10,0 z M 80,260 l 10,0 0,10 -10,0 z M 100,260 l 10,0 0,10 -10,0 z M 120,260 l 10,0 0,10 -10,0 z M 140,260 l 10,0 0,10 -10,0 z M 150,260 l 10,0 0,10 -10,0 z M 170,260 l 10,0 0,10 -10,0 z M 240,260 l 10,0 0,10 -10,0 z M 270,260 l 10,0 0,10 -10,0 z M 280,260 l 10,0 0,10 -10,0 z M 290,260 l 10,0 0,10 -10,0 z M 300,260 l 10,0 0,10 -10,0 z M 310,260 l 10,0 0,10 -10,0 z M 320,260 l 10,0 0,10 -10,0 z M 330,260 l 10,0 0,10 -10,0 z M 340,260 l 10,0 0,10 -10,0 z M 370,260 l 10,0 0,10 -10,0 z M 20,270 l 10,0 0,10 -10,0 z M 40,270 l 10,0 0,10 -10,0 z M 70,270 l 10,0 0,10 -10,0 z M 90,270 l 10,0 0,10 -10,0 z M 120,270 l 10,0 0,10 -10,0 z M 130,270 l 10,0 0,10 -10,0 z M 160,270 l 10,0 0,10 -10,0 z M 180,270 l 10,0 0,10 -10,0 z M 210,270 l 10,0 0,10 -10,0 z M 220,270 l 10,0 0,10 -10,0 z M 230,270 l 10,0 0,10 -10,0 z M 240,270 l 10,0 0,10 -10,0 z M 250,270 l 10,0 0,10 -10,0 z M 270,270 l 10,0 0,10 -10,0 z M 320,270 l 10,0 0,10 -10,0 z M 350,270 l 10,0 0,10 -10,0 z M 20,280 l 10,0 0,10 -10,0 z M 40,280 l 10,0 0,10 -10,0 z M 50,280 l 10,0 0,10 -10,0 z M 80,280 l 10,0 0,10 -10,0 z M 110,280 l 10,0 0,10 -10,0 z M 140,280 l 10,0 0,10 -10,0 z M 150,280 l 10,0 0,10 -10,0 z M 160,280 l 10,0 0,10 -10,0 z M 170,280 l 10,0 0,10 -10,0 z M 180,280 l 10,0 0,10 -10,0 z M 190,280 l 10,0 0,10 -10,0 z M 200,280 l 10,0 0,10 -10,0 z M 240,280 l 10,0 0,10 -10,0 z M 260,280 l 10,0 0,10 -10,0 z M 270,280 l 10,0 0,10 -10,0 z M 280,280 l 10,0 0,10 -10,0 z M 290,280 l 10,0 0,10 -10,0 z M 300,280 l 10,0 0,10 -10,0 z M 310,280 l 10,0 0,10 -10,0 z M 330,280 l 10,0 0,10 -10,0 z M 340,280 l 10,0 0,10 -10,0 z M 350,280 l 10,0 0,10 -10,0 z M 360,280 l 10,0 0,10 -10,0 z M 370,280 l 10,0 0,10 -10,0 z M 380,280 l 10,0 0,10 -10,0 z M 20,290 l 10,0 0,10 -10,0 z M 40,290 l 10,0 0,10 -10,0 z M 50,290 l 10,0 0,10 -10,0 z M 70,290 l 10,0 0,10 -10,0 z M 100,290 l 10,0 0,10 -10,0 z M 110,290 l 10,0 0,10 -10,0 z M 130,290 l 10,0 0,10 -10,0 z M 140,290 l 10,0 0,10 -10,0 z M 160,290 l 10,0 0,10 -10,0 z M 180,290 l 10,0 0,10 -10,0 z M 200,290 l 10,0 0,10 -10,0 z M 220,290 l 10,0 0,10 -10,0 z M 230,290 l 10,0 0,10 -10,0 z M 260,290 l 10,0 0,10 -10,0 z M 290,290 l 10,0 0,10 -10,0 z M 300,290 l 10,0 0,10 -10,0 z M 320,290 l 10,0 0,10 -10,0 z M 330,290 l 10,0 0,10 -10,0 z M 370,290 l 10,0 0,10 -10,0 z M 380,290 l 10,0 0,10 -10,0 z M 20,300 l 10,0 0,10 -10,0 z M 40,300 l 10,0 0,10 -10,0 z M 60,300 l 10,0 0,10 -10,0 z M 70,300 l 10,0 0,10 -10,0 z M 80,300 l 10,0 0,10 -10,0 z M 90,300 l 10,0 0,10 -10,0 z M 100,300 l 10,0 0,10 -10,0 z M 120,300 l 10,0 0,10 -10,0 z M 130,300 l 10,0 0,10 -10,0 z M 150,300 l 10,0 0,10 -10,0 z M 160,300 l 10,0 0,10 -10,0 z M 170,300 l 10,0 0,10 -10,0 z M 180,300 l 10,0 0,10 -10,0 z M 190,300 l 10,0 0,10 -10,0 z M 210,300 l 10,0 0,10 -10,0 z M 250,300 l 10,0 0,10 -10,0 z M 260,300 l 10,0 0,10 -10,0 z M 280,300 l 10,0 0,10 -10,0 z M 300,300 l 10,0 0,10 -10,0 z M 310,300 l 10,0 0,10 -10,0 z M 320,300 l 10,0 0,10 -10,0 z M 330,300 l 10,0 0,10 -10,0 z M 340,300 l 10,0 0,10 -10,0 z M 360,300 l 10,0 0,10 -10,0 z M 370,300 l 10,0 0,10 -10,0 z M 100,310 l 10,0 0,10 -10,0 z M 110,310 l 10,0 0,10 -10,0 z M 160,310 l 10,0 0,10 -10,0 z M 180,310 l 10,0 0,10 -10,0 z M 220,310 l 10,0 0,10 -10,0 z M 230,310 l 10,0 0,10 -10,0 z M 240,310 l 10,0 0,10 -10,0 z M 280,310 l 10,0 0,10 -10,0 z M 290,310 l 10,0 0,10 -10,0 z M 300,310 l 10,0 0,10 -10,0 z M 340,310 l 10,0 0,10 -10,0 z M 350,310 l 10,0 0,10 -10,0 z M 360,310 l 10,0 0,10 -10,0 z M 20,320 l 10,0 0,10 -10,0 z M 30,320 l 10,0 0,10 -10,0 z M 40,320 l 10,0 0,10 -10,0 z M 50,320 l 10,0 0,10 -10,0 z M 60,320 l 10,0 0,10 -10,0 z M 70,320 l 10,0 0,10 -10,0 z M 80,320 l 10,0 0,10 -10,0 z M 100,320 l 10,0 0,10 -10,0 z M 110,320 l 10,0 0,10 -10,0 z M 120,320 l 10,0 0,10 -10,0 z M 140,320 l 10,0 0,10 -10,0 z M 150,320 l 10,0 0,10 -10,0 z M 170,320 l 10,0 0,10 -10,0 z M 180,320 l 10,0 0,10 -10,0 z M 190,320 l 10,0 0,10 -10,0 z M 200,320 l 10,0 0,10 -10,0 z M 230,320 l 10,0 0,10 -10,0 z M 240,320 l 10,0 0,10 -10,0 z M 270,320 l 10,0 0,10 -10,0 z M 280,320 l 10,0 0,10 -10,0 z M 290,320 l 10,0 0,10 -10,0 z M 300,320 l 10,0 0,10 -10,0 z M 320,320 l 10,0 0,10 -10,0 z M 340,320 l 10,0 0,10 -10,0 z M 350,320 l 10,0 0,10 -10,0 z M 360,320 l 10,0 0,10 -10,0 z M 370,320 l 10,0 0,10 -10,0 z M 380,320 l 10,0 0,10 -10,0 z M 20,330 l 10,0 0,10 -10,0 z M 80,330 l 10,0 0,10 -10,0 z M 130,330 l 10,0 0,10 -10,0 z M 160,330 l 10,0 0,10 -10,0 z M 200,330 l 10,0 0,10 -10,0 z M 230,330 l 10,0 0,10 -10,0 z M 240,330 l 10,0 0,10 -10,0 z M 250,330 l 10,0 0,10 -10,0 z M 260,330 l 10,0 0,10 -10,0 z M 280,330 l 10,0 0,10 -10,0 z M 300,330 l 10,0 0,10 -10,0 z M 340,330 l 10,0 0,10 -10,0 z M 20,340 l 10,0 0,10 -10,0 z M 40,340 l 10,0 0,10 -10,0 z M 50,340 l 10,0 0,10 -10,0 z M 60,340 l 10,0 0,10 -10,0 z M 80,340 l 10,0 0,10 -10,0 z M 100,340 l 10,0 0,10 -10,0 z M 110,340 l 10,0 0,10 -10,0 z M 120,340 l 10,0 0,10 -10,0 z M 150,340 l 10,0 0,10 -10,0 z M 160,340 l 10,0 0,10 -10,0 z M 170,340 l 10,0 0,10 -10,0 z M 180,340 l 10,0 0,10 -10,0 z M 220,340 l 10,0 0,10 -10,0 z M 270,340 l 10,0 0,10 -10,0 z M 290,340 l 10,0 0,10 -10,0 z M 300,340 l 10,0 0,10 -10,0 z M 310,340 l 10,0 0,10 -10,0 z M 320,340 l 10,0 0,10 -10,0 z M 330,340 l 10,0 0,10 -10,0 z M 340,340 l 10,0 0,10 -10,0 z M 360,340 l 10,0 0,10 -10,0 z M 370,340 l 10,0 0,10 -10,0 z M 380,340 l 10,0 0,10 -10,0 z M 20,350 l 10,0 0,10 -10,0 z M 40,350 l 10,0 0,10 -10,0 z M 50,350 l 10,0 0,10 -10,0 z M 60,350 l 10,0 0,10 -10,0 z M 80,350 l 10,0 0,10 -10,0 z M 100,350 l 10,0 0,10 -10,0 z M 120,350 l 10,0 0,10 -10,0 z M 170,350 l 10,0 0,10 -10,0 z M 180,350 l 10,0 0,10 -10,0 z M 220,350 l 10,0 0,10 -10,0 z M 230,350 l 10,0 0,10 -10,0 z M 240,350 l 10,0 0,10 -10,0 z M 280,350 l 10,0 0,10 -10,0 z M 300,350 l 10,0 0,10 -10,0 z M 310,350 l 10,0 0,10 -10,0 z M 320,350 l 10,0 0,10 -10,0 z M 350,350 l 10,0 0,10 -10,0 z M 360,350 l 10,0 0,10 -10,0 z M 20,360 l 10,0 0,10 -10,0 z M 40,360 l 10,0 0,10 -10,0 z M 50,360 l 10,0 0,10 -10,0 z M 60,360 l 10,0 0,10 -10,0 z M 80,360 l 10,0 0,10 -10,0 z M 100,360 l 10,0 0,10 -10,0 z M 110,360 l 10,0 0,10 -10,0 z M 140,360 l 10,0 0,10 -10,0 z M 150,360 l 10,0 0,10 -10,0 z M 160,360 l 10,0 0,10 -10,0 z M 170,360 l 10,0 0,10 -10,0 z M 180,360 l 10,0 0,10 -10,0 z M 190,360 l 10,0 0,10 -10,0 z M 200,360 l 10,0 0,10 -10,0 z M 240,360 l 10,0 0,10 -10,0 z M 260,360 l 10,0 0,10 -10,0 z M 280,360 l 10,0 0,10 -10,0 z M 290,360 l 10,0 0,10 -10,0 z M 330,360 l 10,0 0,10 -10,0 z M 350,360 l 10,0 0,10 -10,0 z M 360,360 l 10,0 0,10 -10,0 z M 370,360 l 10,0 0,10 -10,0 z M 380,360 l 10,0 0,10 -10,0 z M 20,370 l 10,0 0,10 -10,0 z M 80,370 l 10,0 0,10 -10,0 z M 100,370 l 10,0 0,10 -10,0 z M 110,370 l 10,0 0,10 -10,0 z M 160,370 l 10,0 0,10 -10,0 z M 170,370 l 10,0 0,10 -10,0 z M 200,370 l 10,0 0,10 -10,0 z M 230,370 l 10,0 0,10 -10,0 z M 260,370 l 10,0 0,10 -10,0 z M 300,370 l 10,0 0,10 -10,0 z M 310,370 l 10,0 0,10 -10,0 z M 330,370 l 10,0 0,10 -10,0 z M 340,370 l 10,0 0,10 -10,0 z M 380,370 l 10,0 0,10 -10,0 z M 20,380 l 10,0 0,10 -10,0 z M 30,380 l 10,0 0,10 -10,0 z M 40,380 l 10,0 0,10 -10,0 z M 50,380 l 10,0 0,10 -10,0 z M 60,380 l 10,0 0,10 -10,0 z M 70,380 l 10,0 0,10 -10,0 z M 80,380 l 10,0 0,10 -10,0 z M 100,380 l 10,0 0,10 -10,0 z M 110,380 l 10,0 0,10 -10,0 z M 120,380 l 10,0 0,10 -10,0 z M 160,380 l 10,0 0,10 -10,0 z M 180,380 l 10,0 0,10 -10,0 z M 190,380 l 10,0 0,10 -10,0 z M 200,380 l 10,0 0,10 -10,0 z M 220,380 l 10,0 0,10 -10,0 z M 240,380 l 10,0 0,10 -10,0 z M 250,380 l 10,0 0,10 -10,0 z M 260,380 l 10,0 0,10 -10,0 z M 270,380 l 10,0 0,10 -10,0 z M 280,380 l 10,0 0,10 -10,0 z M 290,380 l 10,0 0,10 -10,0 z M 310,380 l 10,0 0,10 -10,0 z M 320,380 l 10,0 0,10 -10,0 z M 330,380 l 10,0 0,10 -10,0 z M 360,380 l 10,0 0,10 -10,0 z M 370,380 l 10,0 0,10 -10,0 z M 380,380 l 10,0 0,10 -10,0 z " />
	</g>
</svg>
