<svg  viewBox="0 0 137 28" fill="none" xmlns="http://www.w3.org/2000/svg">
    <path fill-rule="evenodd" clip-rule="evenodd" d="M86.7194 5.58336C87.2116 5.58336 87.5919 5.42686 87.9274 5.0915C88.263 4.75614 88.4196 4.35371 88.4196 3.88421C88.4196 3.39235 88.2406 3.01228 87.9274 2.67692C87.5919 2.34156 87.1892 2.18506 86.7194 2.18506C86.2272 2.18506 85.8469 2.34156 85.489 2.67692C85.1534 2.98992 84.9969 3.41471 84.9969 3.88421C84.9969 4.37607 85.1534 4.75614 85.489 5.0915C85.8469 5.42686 86.272 5.58336 86.7194 5.58336ZM54.9771 6.81299C57.0129 6.81299 58.7131 7.48371 60.0777 8.8475C61.4647 10.1889 62.1358 11.8657 62.1358 13.8555C62.1358 15.8453 61.4423 17.5221 60.0777 18.8636C58.6907 20.205 56.9905 20.8757 54.9771 20.8757C52.9638 20.8757 51.2412 20.205 49.8766 18.8636C48.4896 17.5221 47.8185 15.8453 47.8185 13.8555C47.8185 11.8657 48.512 10.1889 49.8766 8.8475C51.2636 7.48371 52.9638 6.81299 54.9771 6.81299ZM54.9771 18.3046C56.2299 18.3046 57.2366 17.8798 58.0419 17.0303C58.8697 16.1807 59.2723 15.1299 59.2723 13.8555C59.2723 12.5588 58.8697 11.4857 58.0419 10.6584C57.2142 9.83122 56.2075 9.38407 54.9771 9.38407C53.7467 9.38407 52.74 9.83122 51.9123 10.6808C51.107 11.508 50.6819 12.5812 50.6819 13.8555C50.6819 15.1299 51.0846 16.1807 51.9123 17.0303C52.74 17.8575 53.7691 18.3046 54.9771 18.3046ZM82.4033 8.42271C81.3966 7.34957 80.1215 6.81299 78.5331 6.81299C77.5936 6.81299 76.7435 7.03656 75.9605 7.50606C75.2223 7.95321 74.6182 8.55686 74.1261 9.33936C73.6787 8.55686 73.097 7.93085 72.3588 7.48371C71.6206 7.03656 70.7928 6.81299 69.8533 6.81299C68.2202 6.81299 66.9227 7.50606 65.9384 8.89221V7.08128H63.1644V20.6298H65.9384V12.9612C65.9384 11.9104 66.2292 11.0609 66.8108 10.3902C67.3925 9.69708 68.1531 9.36172 69.0479 9.36172C69.9427 9.36172 70.681 9.69708 71.2626 10.3902C71.8443 11.0609 72.1351 11.9104 72.1351 12.9612V20.6298H74.9091V12.9612C74.9091 11.9104 75.1999 11.0609 75.7815 10.3902C76.3632 9.69708 77.1238 9.36172 78.0186 9.36172C78.9134 9.36172 79.6517 9.69708 80.2333 10.3902C80.8373 11.0609 81.1282 11.9104 81.1282 12.9612V20.6298H83.9021V12.5364C83.9021 10.882 83.41 9.49586 82.4033 8.42271ZM85.3356 7.05984H88.1096V20.586H85.3356V7.05984ZM96.835 6.81299C98.4681 6.81299 99.8103 7.34957 100.862 8.42271C101.913 9.49586 102.45 10.882 102.45 12.5364V20.6298H99.6761V12.9612C99.6761 11.9104 99.3406 11.0609 98.6471 10.3902C97.9536 9.69708 97.1035 9.36172 96.052 9.36172C95.0006 9.36172 94.1505 9.69708 93.4347 10.3902C92.7412 11.0609 92.4056 11.9104 92.4056 12.9612V20.6298H89.6316V7.08128H92.4056V9.004C93.4794 7.55078 94.9559 6.81299 96.835 6.81299ZM106.448 5.0915C106.113 5.42686 105.732 5.58336 105.24 5.58336C104.77 5.58336 104.368 5.42686 104.01 5.0915C103.674 4.75614 103.518 4.37607 103.518 3.88421C103.518 3.41471 103.674 2.98992 104.01 2.67692C104.368 2.34156 104.748 2.18506 105.24 2.18506C105.71 2.18506 106.113 2.34156 106.448 2.67692C106.761 3.01228 106.94 3.39235 106.94 3.88421C106.94 4.35371 106.784 4.75614 106.448 5.0915ZM106.606 7.05832H103.832V20.5845H106.606V7.05832ZM119.405 8.40144C118.354 7.32829 117.012 6.79172 115.379 6.79172C113.499 6.79172 112.001 7.52951 110.949 8.98273V7.06001H108.175V20.6085H110.949V12.94C110.949 11.8892 111.285 11.0396 111.978 10.3689C112.694 9.67581 113.544 9.34045 114.596 9.34045C115.647 9.34045 116.497 9.67581 117.191 10.3689C117.884 11.0396 118.22 11.8892 118.22 12.94V20.6085H120.994V12.5152C120.994 10.8607 120.457 9.47459 119.405 8.40144ZM133.432 7.06001V9.0498C132.268 7.55187 130.635 6.79172 128.644 6.79172C126.765 6.79172 125.177 7.46244 123.879 8.78152C122.604 10.1006 121.978 11.7327 121.978 13.6778C121.978 15.6452 122.604 17.2773 123.879 18.5964C125.154 19.8931 126.743 20.5638 128.644 20.5638C130.658 20.5638 132.246 19.826 133.432 18.3504V19.1553C133.432 20.4296 133.007 21.4804 132.156 22.33C131.329 23.1796 130.277 23.6267 129.025 23.6267C128.174 23.6267 127.391 23.4032 126.72 22.9337C126.072 22.4865 125.557 21.8829 125.199 21.1004L122.694 22.33C123.253 23.4926 124.103 24.4316 125.199 25.1247C126.34 25.8177 127.615 26.1531 129.025 26.1531C131.06 26.1531 132.76 25.4824 134.125 24.1409C135.512 22.7995 136.183 21.1227 136.183 19.1329V7.03765H133.432V7.06001ZM132.201 16.7854C131.373 17.6126 130.389 18.0151 129.136 18.0151C127.928 18.0151 126.899 17.5903 126.072 16.7854C125.244 15.9582 124.841 14.9298 124.841 13.6778C124.841 12.4257 125.266 11.4197 126.072 10.5925C126.899 9.76524 127.906 9.36281 129.136 9.36281C130.367 9.36281 131.396 9.78759 132.201 10.5925C133.029 11.4197 133.432 12.4257 133.432 13.6778C133.432 14.9298 133.029 15.9806 132.201 16.7854ZM44.1208 9.0498V7.06001V7.03765H46.8725V19.1329C46.8725 21.1227 46.2013 22.7995 44.8143 24.1409C43.4497 25.4824 41.7495 26.1531 39.7138 26.1531C38.3044 26.1531 37.0293 25.8177 35.8884 25.1247C34.7922 24.4316 33.9421 23.4926 33.3828 22.33L35.8884 21.1004C36.2463 21.8829 36.7608 22.4865 37.4096 22.9337C38.0807 23.4032 38.8637 23.6267 39.7138 23.6267C40.9666 23.6267 42.018 23.1796 42.8457 22.33C43.6958 21.4804 44.1208 20.4296 44.1208 19.1553V18.3504C42.9352 19.826 41.3469 20.5638 39.3335 20.5638C37.432 20.5638 35.8436 19.8931 34.5685 18.5964C33.2934 17.2773 32.667 15.6452 32.667 13.6778C32.667 11.7327 33.2934 10.1006 34.5685 8.78152C35.866 7.46244 37.4543 6.79172 39.3335 6.79172C41.3245 6.79172 42.9576 7.55187 44.1208 9.0498ZM39.8257 18.0151C41.0784 18.0151 42.0627 17.6126 42.8904 16.7854C43.7182 15.9806 44.1208 14.9298 44.1208 13.6778C44.1208 12.4257 43.7182 11.4197 42.8904 10.5925C42.0851 9.78759 41.056 9.36281 39.8257 9.36281C38.5953 9.36281 37.5886 9.76524 36.7608 10.5925C35.9555 11.4197 35.5305 12.4257 35.5305 13.6778C35.5305 14.9298 35.9331 15.9582 36.7608 16.7854C37.5886 17.5903 38.6176 18.0151 39.8257 18.0151Z" fill="white"></path>
    <ellipse cx="14" cy="14" rx="14" ry="14" fill="#7540EF"></ellipse>
    <path fill-rule="evenodd" clip-rule="evenodd" d="M9.91049 5.16214C11.3173 4.50303 12.7775 4.2002 14.2199 4.2002C17.9416 4.2002 21.503 6.23096 23.2303 9.68682H20.0607C19.3127 8.70707 18.3155 7.94108 17.1581 7.44229C13.4541 5.85687 9.14478 7.51355 7.54212 11.1119C6.77641 12.8399 6.7408 14.7459 7.41747 16.5095C8.11196 18.3087 9.50093 19.7338 11.2995 20.5176C14.9856 22.103 19.3127 20.4463 20.9154 16.8479L20.9332 16.8123L18.8141 13.9799L20.862 11.2188H23.7468L21.6989 14.0156L23.8002 16.8658C23.3906 18.1662 22.7317 19.3597 21.8236 20.3929C20.8976 21.4261 19.7757 22.2633 18.5114 22.8512C13.5254 25.167 7.54213 23.1006 5.17376 18.2196C4.03409 15.8682 3.89163 13.2318 4.76419 10.7735C5.65455 8.27954 7.4887 6.2844 9.91049 5.16214ZM16.2155 11.1994H19.0825L17.0703 13.9784L19.0825 16.7395H16.2155L14.1321 13.9784L16.2155 11.1994Z" fill="white"></path>
</svg>
