<svg data-v-dca1416e="" xmlns="http://www.w3.org/2000/svg" fill="#fff" viewBox="0 0 88.22 24" class="h-24"><path d="M43.25 2.25v15.09c0 .19-.15.34-.34.34h-1.46c-.1 0-.21-.05-.27-.13l-5.92-7.64v13.74c0 .19-.15.34-.34.34H.34c-.19 0-.34-.15-.34-.34V.34C0 .15.15 0 .34 0h36.53c.19 0 .34.15.34.34V1.9c0 .19-.15.34-.34.34H2.24v19.51H33V6.66c0-.19.15-.34.34-.34h1.65c.1 0 .21.05.27.13l5.74 7.4V.34c0-.19.15-.34.34-.34h46.53c.19 0 .34.15.34.34v23.31c0 .19-.15.34-.34.34H39.38c-.19 0-.34-.15-.34-.34v-1.56c0-.19.15-.34.34-.34h46.59V2.25zm7.44 9.79v-.03c0-3.3 2.67-5.89 6.08-5.89 1.96 0 3.13.48 4.15 1.23.16.12.19.35.06.5l-.99 1.17c-.11.14-.32.16-.46.06-.79-.58-1.6-.93-2.84-.93-1.98 0-3.59 1.71-3.59 3.82V12c0 2.25 1.59 3.88 3.78 3.88 1 0 1.89-.25 2.57-.73l.07-.05v-2.81c0-.19.15-.34.34-.34h1.51c.19 0 .34.15.34.34v3.67c0 .11-.05.21-.13.27a7.58 7.58 0 0 1-4.79 1.66c-3.59 0-6.09-2.41-6.09-5.85ZM7.23 6.66v10.68c0 .19.15.34.34.34h7.54c.19 0 .34-.15.34-.34v-1.31c0-.19-.15-.34-.34-.34h-5.6V6.66c0-.19-.15-.34-.34-.34H7.58c-.19 0-.34.15-.34.34Zm17.35-.34h-1.59c-.19 0-.34.15-.34.34v10.68c0 .19.15.34.34.34h1.59c.19 0 .34-.15.34-.34V6.66c0-.19-.15-.34-.34-.34m50.39-.2c-3.47 0-6.18 2.58-6.18 5.88v.03c0 3.33 2.64 5.85 6.14 5.85s6.18-2.58 6.18-5.88v-.03c0-3.33-2.64-5.85-6.14-5.85m3.75 5.91c0 2.18-1.61 3.82-3.75 3.82s-3.78-1.69-3.78-3.85v-.03c0-2.18 1.61-3.82 3.75-3.82s3.78 1.69 3.78 3.85z"></path></svg>
