<svg  viewBox="0 0 97 18" fill="none" xmlns="http://www.w3.org/2000/svg">
<path d="M63.0218 10.1582H70.8151V7.74851H63.0218V6.51128H70.9411V4.08838H59.8281V13.9915H71.0326V11.5144H63.0218V10.1582Z" fill="white"/>
<path d="M35.132 7.71543L33.4608 7.69164C31.4356 7.65198 31.165 7.26337 31.165 6.83906C31.165 6.41476 31.3401 5.98648 33.7433 5.98648H33.9582C36.563 5.98648 36.762 6.79941 36.8296 7.17613H40.0604V7.04394C40.0604 5.55292 38.9994 3.9165 34.2911 3.9165H33.372C28.8427 3.9165 27.9594 5.46172 27.9594 6.94084V7.05584C27.9594 8.60238 29.096 9.85415 32.8083 9.96386L34.5179 10.0035C36.8137 10.0709 37.124 10.4305 37.124 11.0015C37.124 11.5725 36.8177 12.059 34.2062 12.059H34.0192C31.4542 12.059 31.1014 11.0887 31.0682 10.4899H27.8281V10.6486C27.8281 11.9532 28.4409 14.1884 33.6505 14.1884H34.5709C39.567 14.1884 40.3946 12.511 40.3946 10.8838V10.6697C40.3946 8.68962 38.8615 7.78284 35.132 7.71543Z" fill="white"/>
<path d="M80.7616 4.08838H76.7284L75.1369 7.21714L71.7031 13.9955H74.8663L75.7655 12.1806H81.7882L82.7073 13.9928H86.0761L82.4407 7.21714L80.7616 4.08838ZM76.8756 9.94538L78.2298 7.21714L78.7178 6.23238L79.2285 7.21978L80.6383 9.94803L76.8756 9.94538Z" fill="white"/>
<path d="M83.6406 4.0874V6.8487H88.3503V13.9905H91.4617V6.8487H96.1753V4.0874H83.6406Z" fill="white"/>
<path d="M57.4549 4.0874L54.3594 4.09401L55.9682 7.21616L54.0039 11.3667L50.0317 4.0874L46.8407 4.09401L48.598 7.4911L46.7678 11.3667L42.7743 4.0874H39.5859L44.7545 13.9879H48.6245L50.2466 10.6529L51.988 13.9879H55.8621L59.1499 7.21616L57.4549 4.0874Z" fill="white"/>
<path d="M0.554688 5.91929L0.586668 5.97906V5.88477L0.554688 5.91929Z" fill="white"/>
<path d="M17.1791 0.677734H13.626L10.7957 3.70604L9.13914 0.677734H5.45075L0.585938 5.87912V5.97297L6.98791 17.6777H10.6007L13.3925 14.6891L15.0278 17.6777H18.7772L23.6314 12.4816L17.1791 0.677734ZM8.97335 14.964L4.27964 6.38141L7.12717 3.34121L11.8196 11.9199L8.97335 14.964ZM17.0637 15.0566L12.3686 6.47658L15.2162 3.43638L19.9099 12.019L17.0637 15.0566Z" fill="white"/>
</svg>
