<svg width="25" height="24" fill="none" xmlns="http://www.w3.org/2000/svg"><g clip-path="url(#a)"><path d="m19.253 1.227-5.013 7.44c-.347.506.32 1.12.8.693l4.933-4.293c.134-.107.32-.027.32.16V18.64c0 .187-.24.267-.346.133L5.013.907A2.467 2.467 0 0 0 3.067 0h-.534C1.147 0 0 1.147 0 2.56v18.88a2.56 2.56 0 0 0 4.747 1.333l5.013-7.44c.347-.506-.32-1.12-.8-.693l-4.933 4.267c-.134.106-.32.026-.32-.16V5.36c0-.187.24-.267.346-.133l14.934 17.866c.48.587 1.2.907 1.946.907h.534a2.56 2.56 0 0 0 2.56-2.56V2.56A2.56 2.56 0 0 0 21.467 0c-.907 0-1.734.453-2.214 1.227Z" fill="#000"/></g><defs><clipPath id="a"><path fill="#fff" d="M0 0h24.027v24H0z"/></clipPath></defs></svg>