<svg width="110" height="27" viewBox="0 0 110 27" fill="none" xmlns="http://www.w3.org/2000/svg">
<g clip-path="url(#clip0_2397_33267)">
<path d="M45.2597 3.76416C43.2474 3.76416 41.7841 4.24031 40.5409 5.33871L38.3456 7.24254C38.1626 7.3894 37.7966 7.49916 37.541 7.27888C37.2846 7.05935 37.2483 6.7664 37.4676 6.47344L38.6382 4.7157C38.8212 4.45908 38.6753 4.12979 38.3456 4.12979H35.5287C35.1997 4.12979 34.9434 4.38641 34.9434 4.7157V21.854C34.9434 22.1833 35.1997 22.4399 35.5287 22.4399H38.4552C38.7842 22.4399 39.0405 22.1833 39.0405 21.854V12.1865C39.0405 7.75578 42.7354 7.06011 44.1254 7.06011C47.0882 7.06011 48.1492 9.18423 48.1492 10.7951V21.854C48.1492 22.1833 48.4055 22.4399 48.7345 22.4399H51.6611C51.99 22.4399 52.2464 22.1833 52.2464 21.854V10.4287C52.2464 6.32734 49.5754 3.76416 45.2589 3.76416H45.2597Z" fill="white"/>
<path d="M64.1725 3.69043C58.5024 3.69043 54.8809 7.16957 54.8809 11.8932V14.4935C54.8809 19.4737 58.5024 22.8794 64.1725 22.8794C69.184 22.8794 72.6958 20.2792 73.0618 16.7637C73.0989 16.3973 72.8425 16.1415 72.4765 16.1415H69.6233C69.367 16.1415 69.1477 16.2883 69.0743 16.5442C68.7083 17.716 66.9894 19.4737 64.1725 19.4737C61.3556 19.4737 58.7217 17.423 58.758 14.4935L58.795 11.2346C58.8313 8.78121 61.3926 7.0969 64.1725 7.0969C66.6968 7.0969 69.1477 8.52535 69.4033 10.869C69.4244 11.14 69.2384 11.3845 68.9715 11.436L60.7695 13.0295C60.4406 13.1029 60.1842 13.3958 60.1842 13.7615V13.7978C60.1842 14.1271 60.5132 14.4201 60.9888 14.4201H72.7684C73.0921 14.4201 73.3537 14.1574 73.3537 13.8341V11.5276C73.3537 7.17033 69.5855 3.69119 64.1717 3.69119L64.1725 3.69043Z" fill="white"/>
<path d="M84.5807 3.6907C80.0078 3.6907 76.0574 6.36364 76.0574 9.87912C76.0574 10.1721 76.3137 10.3916 76.6427 10.3916H79.6055C79.8982 10.3916 80.1175 10.1721 80.1545 9.87912C80.4472 8.26824 82.3861 7.09641 84.471 7.09641C86.9582 7.09641 88.6416 8.63462 88.6416 11.2712V14.4574C88.6416 17.7163 86.227 19.3642 83.2271 19.3642C80.8858 19.3642 79.5322 18.4854 79.5322 17.0569C79.5322 15.8117 80.1908 14.7496 82.8974 14.1274L86.8115 13.0653C87.2138 12.9555 87.3605 12.6255 87.2872 12.2599C87.2509 11.9669 86.9219 11.82 86.6285 11.82H82.5684C79.1299 11.82 75.6543 14.0168 75.6543 17.2394V17.7518C75.6543 21.0478 78.7639 22.7684 82.312 22.7684C84.5799 22.7684 86.5189 21.8896 87.7258 20.8646L89.5188 19.3264C89.8114 19.0698 90.1041 19.0698 90.3597 19.3264C90.579 19.5459 90.5057 19.876 90.3226 20.1318L89.2254 21.8532C89.0424 22.1099 89.1883 22.4391 89.518 22.4391H92.1519C92.4809 22.4391 92.7373 22.1825 92.7373 21.8532V10.7572C92.7373 6.50974 89.701 3.68994 84.5792 3.68994L84.5807 3.6907Z" fill="white"/>
<path d="M108.541 4.13086H104.444C103.018 4.13086 101.627 5.00973 100.639 5.85226L99.03 7.24362C98.847 7.39047 98.5173 7.50024 98.298 7.31704C98.0417 7.13385 97.932 6.76747 98.1521 6.47451L99.3227 4.71677C99.5057 4.46015 99.3598 4.13086 99.03 4.13086H96.2865C95.9575 4.13086 95.7012 4.38748 95.7012 4.71677V21.8551C95.7012 22.1844 95.9575 22.441 96.2865 22.441H99.2864C99.6154 22.441 99.8717 22.1844 99.8717 21.8551V13.0664C99.8717 9.29431 101.408 7.61 104.737 7.61H108.542C108.871 7.61 109.127 7.35338 109.127 7.02409V4.71677C109.127 4.38748 108.871 4.13086 108.542 4.13086H108.541Z" fill="white"/>
<path d="M23.9482 0C22.9651 0 22.0523 0.510213 21.5373 1.34896L15.989 9.59489C15.8082 9.86665 15.8816 10.233 16.1531 10.414C16.3731 10.5608 16.6643 10.5426 16.8647 10.3701L22.3261 5.62824C22.4168 5.54649 22.5567 5.55482 22.6384 5.64566C22.6754 5.68729 22.6951 5.74104 22.6951 5.7963V20.6424C22.6951 20.7651 22.596 20.8635 22.4735 20.8635C22.4077 20.8635 22.3457 20.8347 22.3041 20.784L5.79516 1.00226C5.25824 0.366385 4.46875 0 3.63691 0H3.05992C1.49833 0 0.232422 1.26721 0.232422 2.8304V23.7401C0.232422 25.3033 1.49833 26.5705 3.05992 26.5705C4.043 26.5705 4.95576 26.0602 5.47074 25.2215L11.0191 16.9756C11.1998 16.7038 11.1265 16.3374 10.855 16.1565C10.635 16.0096 10.3438 16.0278 10.1434 16.2004L4.68201 20.9422C4.59126 21.024 4.45136 21.0156 4.36969 20.9248C4.33263 20.8832 4.31297 20.8294 4.31373 20.7742V5.92499C4.31373 5.80235 4.41279 5.70394 4.5353 5.70394C4.60034 5.70394 4.6631 5.73271 4.70469 5.78343L21.2114 25.569C21.7491 26.2041 22.5386 26.5705 23.3697 26.5712H23.9466C25.5082 26.572 26.7749 25.3055 26.7764 23.7423V2.8304C26.7757 1.26721 25.5098 0 23.9482 0Z" fill="white"/>
</g>
<defs>
<clipPath id="clip0_2397_33267">
<rect width="108.895" height="26.5705" fill="white" transform="translate(0.232422)"/>
</clipPath>
</defs>
</svg>
