<svg width="71" height="12" viewBox="0 0 71 12" fill="none" xmlns="http://www.w3.org/2000/svg">
<g id="near-ai logo 1" clip-path="url(#clip0_3709_25664)">
<path id="Vector" d="M70.177 2.13401V0.502918C70.177 0.444379 70.1291 0.396484 70.0706 0.396484H68.3916C68.3331 0.396484 68.2852 0.444379 68.2852 0.502918V2.13401V9.86426V11.4953C68.2852 11.5539 68.3331 11.6018 68.3916 11.6018H70.0706C70.1291 11.6018 70.177 11.5539 70.177 11.4953V9.86426V2.13401Z" fill="white" fill-opacity="0.3"/>
<path id="Vector_2" d="M29.2503 0.462512L25.5155 11.4608C25.4921 11.53 25.5432 11.6013 25.6161 11.6013H27.4084C27.4542 11.6013 27.4946 11.572 27.509 11.5289L28.5521 8.45672C28.567 8.41361 28.6074 8.38434 28.6526 8.38434H34.5251C34.5709 8.38434 34.6113 8.41361 34.6257 8.45672L35.6687 11.5289C35.6836 11.572 35.7241 11.6013 35.7693 11.6013H37.5616C37.6345 11.6013 37.6856 11.5294 37.6622 11.4608L33.9301 0.462512C33.9152 0.419406 33.8748 0.390137 33.8295 0.390137H29.3514C29.3056 0.390137 29.2652 0.419406 29.2508 0.462512H29.2503ZM33.8641 6.64682H29.3162C29.2433 6.64682 29.1922 6.57498 29.2157 6.50633L30.6781 2.20004C30.693 2.15693 30.7334 2.12766 30.7786 2.12766H32.4023C32.448 2.12766 32.4885 2.15693 32.5029 2.20004L33.9652 6.50633C33.9887 6.57551 33.9376 6.64682 33.8647 6.64682H33.8641Z" fill="white" fill-opacity="0.3"/>
<path id="Vector_3" d="M62.5692 0.390137H58.0911C58.0453 0.390137 58.0049 0.419406 57.9905 0.462512L54.2557 11.4608C54.2323 11.53 54.2834 11.6013 54.3563 11.6013H56.1487C56.1944 11.6013 56.2349 11.572 56.2492 11.5289L57.2923 8.45672C57.3072 8.41361 57.3476 8.38434 57.3929 8.38434H63.2653C63.3111 8.38434 63.3515 8.41361 63.3659 8.45672L64.4089 11.5289C64.4238 11.572 64.4643 11.6013 64.5095 11.6013H66.3019C66.3748 11.6013 66.4259 11.5294 66.4024 11.4608L62.6704 0.462512C62.6555 0.419406 62.615 0.390137 62.5698 0.390137H62.5692ZM62.6044 6.64682H58.0565C57.9836 6.64682 57.9325 6.57498 57.9559 6.50633L59.4183 2.20004C59.4332 2.15693 59.4736 2.12766 59.5189 2.12766H61.1425C61.1883 2.12766 61.2287 2.15693 61.2431 2.20004L62.7055 6.50633C62.7289 6.57551 62.6778 6.64682 62.6049 6.64682H62.6044Z" fill="white" fill-opacity="0.3"/>
<path id="Vector_4" d="M9.46251 9.70983H7.91656L4.79328 0.458117C4.77891 0.415011 4.73793 0.385742 4.6927 0.385742H0.165027C0.106489 0.385742 0.0585938 0.433637 0.0585938 0.492175V11.4952C0.0585938 11.5538 0.106489 11.6017 0.165027 11.6017H1.84401C1.90255 11.6017 1.95045 11.5538 1.95045 11.4952V2.38403C1.95045 2.32549 1.99834 2.27759 2.05688 2.27759H3.31439C3.36015 2.27759 3.4006 2.30686 3.41497 2.34997L6.51324 11.5293C6.52761 11.5724 6.56859 11.6017 6.61382 11.6017H11.2469C11.3054 11.6017 11.3533 11.5538 11.3533 11.4952V0.496965C11.3533 0.438427 11.3054 0.390532 11.2469 0.390532H9.56788C9.50934 0.390532 9.46144 0.438427 9.46144 0.496965V9.70983H9.46251Z" fill="white" fill-opacity="0.3"/>
<path id="Vector_5" d="M14.2984 11.6017H23.3569C23.4154 11.6017 23.4633 11.5538 23.4633 11.4952V9.97059C23.4633 9.91205 23.4154 9.86416 23.3569 9.86416H16.4217C16.3935 9.86416 16.3664 9.85298 16.3467 9.83276L16.1147 9.60074C16.0944 9.58051 16.0833 9.55391 16.0833 9.5257V7.20386C16.0833 7.17565 16.0944 7.14851 16.1147 7.12882L16.3493 6.89414C16.3696 6.87445 16.3962 6.86274 16.4244 6.86274H22.5789C22.6374 6.86274 22.6853 6.81485 22.6853 6.75631V5.23165C22.6853 5.17311 22.6374 5.12522 22.5789 5.12522H16.4238C16.3956 5.12522 16.3685 5.11404 16.3488 5.09382L16.1141 4.85967C16.0939 4.83944 16.0827 4.81283 16.0827 4.78463V2.46279C16.0827 2.43458 16.0939 2.40744 16.1141 2.38775L16.3467 2.1552C16.3669 2.13497 16.3935 2.1238 16.4217 2.1238H23.3564C23.4149 2.1238 23.4628 2.0759 23.4628 2.01736V0.492175C23.4628 0.433637 23.4149 0.385742 23.3564 0.385742H14.2978C14.2393 0.385742 14.1914 0.433637 14.1914 0.492175V11.4952C14.1914 11.5538 14.2393 11.6017 14.2978 11.6017H14.2984Z" fill="white" fill-opacity="0.3"/>
<path id="Vector_6" d="M49.6578 3.62695C49.6578 1.8841 48.2683 0.454172 46.5387 0.390844L39.7451 0.388184C39.6866 0.388184 39.6387 0.436079 39.6387 0.494617V11.5041C39.6387 11.5626 39.6866 11.6105 39.7451 11.6105H41.4241C41.4826 11.6105 41.5305 11.5626 41.5305 11.5041V7.19725C41.5305 7.16905 41.5417 7.14191 41.5619 7.12222L41.7961 6.88806C41.8163 6.86784 41.8429 6.85666 41.8711 6.85666H45.3222C45.3621 6.85666 45.3988 6.87902 45.4169 6.91467L47.7835 11.5525C47.8016 11.5882 47.8383 11.6105 47.8782 11.6105H49.6785C49.7578 11.6105 49.8094 11.5264 49.7732 11.4556L47.3599 6.72628C48.7196 6.31386 49.6583 5.05741 49.6583 3.62695H49.6578ZM41.5614 2.40243L41.795 2.16881C41.8152 2.14859 41.8418 2.13741 41.87 2.13741H46.443C47.2726 2.15072 47.9415 2.84998 47.9075 3.68761C47.875 4.49172 47.1912 5.11701 46.386 5.11701H46.312V5.11914H41.8727C41.8445 5.11914 41.8174 5.10797 41.7977 5.08774L41.5614 4.85146C41.5412 4.83124 41.53 4.80463 41.53 4.77643V2.47747C41.53 2.44926 41.5412 2.42212 41.5614 2.40243Z" fill="white" fill-opacity="0.3"/>
</g>
<defs>
<clipPath id="clip0_3709_25664">
<rect width="70.1395" height="11.2287" fill="white" transform="translate(0.0585938 0.385742)"/>
</clipPath>
</defs>
</svg>
