<svg viewBox="0 0 210 20" fill="none" xmlns="http://www.w3.org/2000/svg">
<path d="M73.1794 10.7781H82.3973V8.31049H73.1794V6.72416H82.5437V3.92871H69.458V15.3573H82.6509V12.4984H73.1794V10.7781Z" fill="white"/>
<path d="M40.1142 8.16807L38.1678 8.14085C35.8071 8.09662 35.4928 7.66452 35.4928 7.19159C35.4928 6.71866 35.6964 6.24232 38.4964 6.24232H38.7464C41.7821 6.24232 42.0142 7.14736 42.0928 7.56245H45.8571V7.41274C45.8571 5.75238 44.6142 3.92871 39.1357 3.92871H38.0642C32.7857 3.92871 31.7571 5.65031 31.7571 7.29706V7.42635C31.7571 9.14795 33.0821 10.5429 37.4071 10.6586L39.3999 10.7028C42.0749 10.7777 42.4357 11.1792 42.4357 11.8154C42.4357 12.4517 42.0785 12.9858 39.0428 12.9858H38.8249C35.8357 12.9858 35.4321 11.9039 35.3857 11.237H31.6035V11.4139C31.6035 12.8667 32.3178 15.3573 38.3892 15.3573H39.4607C45.2821 15.3573 46.2464 13.4894 46.2464 11.6691V11.4582C46.2464 9.25342 44.4607 8.24292 40.1142 8.16807Z" fill="white"/>
<path d="M94.0549 3.92871H89.3549L87.5049 7.53736L83.5049 15.3573H87.1906L88.2335 13.2675H95.2513L96.3227 15.3573H100.248L96.012 7.53736L94.0549 3.92871ZM89.5263 10.6844L91.1049 7.53736L91.6727 6.39909L92.2692 7.53736L93.912 10.6844H89.5263Z" fill="white"/>
<path d="M98.1973 3.92871V7.27761H103.547V15.3573H107.529V7.27761H112.876V3.92871H98.1973Z" fill="white"/>
<path d="M66.3468 3.92871L62.7397 3.93576L64.6147 7.53959L62.3254 12.3318L57.6968 3.92871L53.979 3.93576L56.0254 7.85695L53.8932 12.3318L49.2397 3.92871H45.5254L51.5468 15.3573H56.0575L57.9468 11.5066L59.9754 15.3573H64.4897L68.3218 7.53959L66.3468 3.92871Z" fill="white"/>
<g opacity="0.6">
<path d="M116.963 3.92467H125.118V5.12822H118.441V8.7864H124.116V9.97412H118.441V14.1311H125.144V15.3347H116.963V3.92467Z" fill="white"/>
<path d="M133.413 15.6435C131.55 15.6435 130.171 15.1605 129.276 14.1945C128.381 13.2285 127.934 11.7372 127.934 9.72074C127.934 7.67258 128.398 6.15494 129.327 5.16781C130.256 4.17541 131.686 3.67921 133.617 3.67921C134.614 3.67921 135.461 3.81381 136.157 4.08303C136.854 4.35225 137.381 4.74815 137.737 5.27075C138.094 5.78807 138.267 6.41624 138.256 7.15526H136.82C136.82 6.42152 136.542 5.85669 135.987 5.46078C135.432 5.06488 134.642 4.86692 133.617 4.86692C132.609 4.86692 131.802 5.02793 131.196 5.34993C130.596 5.67193 130.157 6.18397 129.879 6.88605C129.602 7.58284 129.463 8.51454 129.463 9.68115C129.463 10.8425 129.593 11.7715 129.854 12.4683C130.114 13.1598 130.525 13.6666 131.085 13.9886C131.652 14.3053 132.408 14.4637 133.354 14.4637C134.464 14.4637 135.319 14.2657 135.919 13.8698C136.52 13.4686 136.82 12.9012 136.82 12.1674H138.256C138.267 12.9065 138.086 13.5373 137.712 14.0599C137.344 14.5772 136.794 14.9705 136.064 15.2397C135.339 15.5089 134.455 15.6435 133.413 15.6435Z" fill="white"/>
<path d="M146.474 15.6356C145.12 15.6356 144.039 15.4086 143.229 14.9546C142.419 14.4954 141.835 13.825 141.479 12.9434C141.128 12.0566 140.952 10.9348 140.952 9.57821C140.952 8.24796 141.133 7.15262 141.496 6.29219C141.864 5.42647 142.453 4.77455 143.263 4.33641C144.073 3.89827 145.143 3.67921 146.474 3.67921C147.805 3.67921 148.875 3.90091 149.685 4.34433C150.495 4.78246 151.081 5.43439 151.444 6.30011C151.806 7.16054 151.987 8.2506 151.987 9.57029C151.987 10.9322 151.812 12.0566 151.461 12.9434C151.11 13.825 150.529 14.4954 149.719 14.9546C148.909 15.4086 147.827 15.6356 146.474 15.6356ZM146.474 14.4637C147.544 14.4637 148.368 14.2842 148.946 13.9253C149.524 13.561 149.92 13.0305 150.135 12.3337C150.356 11.6316 150.467 10.7079 150.467 9.56237C150.467 8.44856 150.353 7.55645 150.127 6.88605C149.906 6.21037 149.507 5.70361 148.929 5.36577C148.351 5.02793 147.533 4.85901 146.474 4.85901C145.403 4.85901 144.579 5.03321 144.002 5.3816C143.424 5.72472 143.025 6.23676 142.804 6.91772C142.583 7.5934 142.473 8.49607 142.473 9.62572C142.473 10.7659 142.583 11.6818 142.804 12.3733C143.025 13.0595 143.424 13.5795 144.002 13.9332C144.585 14.2869 145.409 14.4637 146.474 14.4637Z" fill="white"/>
<path d="M155.797 3.92467H158.039L164.751 13.9649H165.023V3.92467H166.348V15.3347H164.156L157.317 5.1599H157.037L157.122 15.3347H155.797V3.92467Z" fill="white"/>
<path d="M175.671 15.6356C174.317 15.6356 173.235 15.4086 172.425 14.9546C171.615 14.4954 171.032 13.825 170.675 12.9434C170.324 12.0566 170.149 10.9348 170.149 9.57821C170.149 8.24796 170.33 7.15262 170.692 6.29219C171.06 5.42647 171.649 4.77455 172.459 4.33641C173.269 3.89827 174.34 3.67921 175.671 3.67921C177.002 3.67921 178.072 3.90091 178.882 4.34433C179.692 4.78246 180.278 5.43439 180.64 6.30011C181.003 7.16054 181.184 8.2506 181.184 9.57029C181.184 10.9322 181.008 12.0566 180.657 12.9434C180.306 13.825 179.726 14.4954 178.916 14.9546C178.106 15.4086 177.024 15.6356 175.671 15.6356ZM175.671 14.4637C176.741 14.4637 177.565 14.2842 178.143 13.9253C178.72 13.561 179.117 13.0305 179.332 12.3337C179.553 11.6316 179.663 10.7079 179.663 9.56237C179.663 8.44856 179.55 7.55645 179.324 6.88605C179.103 6.21037 178.703 5.70361 178.126 5.36577C177.548 5.02793 176.73 4.85901 175.671 4.85901C174.6 4.85901 173.776 5.03321 173.198 5.3816C172.621 5.72472 172.221 6.23676 172.001 6.91772C171.78 7.5934 171.669 8.49607 171.669 9.62572C171.669 10.7659 171.78 11.6818 172.001 12.3733C172.221 13.0595 172.621 13.5795 173.198 13.9332C173.782 14.2869 174.606 14.4637 175.671 14.4637Z" fill="white"/>
<path d="M184.993 3.92467H187.508L190.991 12.595H191.288L194.788 3.92467H197.312V15.3347H195.986V5.15198H195.68L192.121 13.9569H190.158L186.624 5.15198H186.319V15.3347H184.993V3.92467Z" fill="white"/>
<path d="M204.154 10.6155L199.999 3.92467H201.563L204.782 9.21398H205.02L208.282 3.92467H209.82L205.632 10.6155V15.3347H204.154V10.6155Z" fill="white"/>
</g>
<path fill-rule="evenodd" clip-rule="evenodd" d="M0.5 6.16002L6.2408 0H10.5677L12.5089 3.56101L15.8276 0H19.9922L27.5627 13.8876L21.8663 20H17.4691L15.5539 16.4866L12.2796 20H8.04463L0.5 6.16002ZM10.3723 16.8081L4.86815 6.71131L8.2061 3.12961L13.7102 13.2264L10.3723 16.8081ZM19.8566 16.918L14.3525 6.82117L17.6905 3.23947L23.1946 13.3363L19.8566 16.918Z" fill="white"/>
</svg>
