<svg xmlns="http://www.w3.org/2000/svg" viewBox="0 0 98 40" fill="none">
<path d="M79.2623 8.76407C79.607 8.76407 79.9034 8.52 79.9696 8.18172L80.9079 3.38255H93.6673L87.1692 36.6175H74.4098L75.3077 32.0247C75.3877 31.616 75.0747 31.236 74.6582 31.236H72.6087C72.2641 31.236 71.9676 31.48 71.9015 31.8183L70.9881 36.4899C70.6109 38.3195 72.0226 40 73.8656 40H87.5404C88.9529 40 90.1464 38.9865 90.4185 37.6265L90.4192 37.623L97.089 3.51003C97.4661 1.68048 96.0545 0 94.2115 0H80.5366C79.1242 0 77.9306 1.01345 77.6586 2.37347L77.6579 2.37705L76.5633 7.97528C76.4834 8.38401 76.7964 8.76407 77.2128 8.76407H79.2623Z" fill="#487BFF"/>
<path d="M11.2254 11.5945C11.7396 11.5945 12.0334 11.9767 11.813 13.0645C11.6073 14.1523 11.1813 14.5345 10.6524 14.5345H7.37602L4.87836 27.4412C4.76082 28.0146 4.2466 28.4409 2.96838 28.4409C1.69017 28.4409 1.30817 28.0146 1.4404 27.4412L3.93806 14.5345H0.661717C0.147492 14.5345 -0.14635 14.1523 0.0740319 13.0645C0.279722 11.9767 0.705797 11.5945 1.23471 11.5945H11.2254Z" fill="#F7F8FA"/>
<path d="M21.0982 18.1946C21.6124 18.1946 21.9062 18.5327 21.6859 19.6205C21.4802 20.7083 21.0541 21.0905 20.5252 21.0905H15.7356L14.9275 25.2947H20.437C20.9513 25.2947 21.2157 25.6769 21.0247 26.7648C20.819 27.8526 20.393 28.2348 19.864 28.2348H11.8128C11.1516 28.2348 10.99 27.8526 11.1075 27.1764L13.9431 12.6673C14.0607 11.9764 14.3692 11.6089 15.0303 11.6089H22.9641C23.4783 11.6089 23.7721 11.9911 23.5518 13.0789C23.3461 14.1667 22.92 14.5489 22.3911 14.5489H17.0138L16.3086 18.1946H21.0982Z" fill="#F7F8FA"/>
<path d="M27.7976 22.9282C27.489 24.5599 28.1942 25.5743 29.6194 25.5743C31.0298 25.5743 32.1758 24.5746 32.499 22.9723V22.8988C32.6166 22.3255 33.1308 21.8992 34.409 21.8992C35.6872 21.8992 36.0692 22.3255 35.937 22.8988L35.8929 23.134C35.2611 26.471 32.2493 28.4996 29.0464 28.4996C25.8582 28.4996 23.6544 26.4269 24.3302 23.0605L25.5644 16.7248C26.2255 13.3731 29.2227 11.2857 32.4109 11.2857C35.6285 11.2857 37.8176 13.3143 37.1858 16.6513L37.1417 16.8865C37.0242 17.4598 36.4806 17.8861 35.2024 17.8861C33.9242 17.8861 33.5716 17.4598 33.6891 16.8865V16.813C33.9976 15.2106 33.263 14.211 31.8526 14.211C30.4421 14.211 29.2962 15.2253 28.9876 16.8571L27.7976 22.9282Z" fill="#F7F8FA"/>
<path d="M50.2771 11.5945C50.7913 11.5945 51.0852 11.9767 50.8648 13.0645C50.6591 14.1523 50.233 14.5345 49.7041 14.5345H46.4278L43.9301 27.4412C43.8126 28.0146 43.2984 28.4409 42.0201 28.4409C40.7419 28.4409 40.3599 28.0146 40.4922 27.4412L42.9898 14.5345H39.7135C39.1993 14.5345 38.9054 14.1523 39.1258 13.0645C39.3315 11.9767 39.7576 11.5945 40.2865 11.5945H50.2771Z" fill="#F7F8FA"/>
<path d="M54.3911 22.8987C54.0825 24.5304 54.8171 25.5741 56.2276 25.5741C57.638 25.5741 58.7987 24.5304 59.1072 22.8987L61.1641 12.3881C61.2523 11.8148 61.7959 11.3885 63.0741 11.3885C64.3523 11.3885 64.7049 11.8148 64.6021 12.3881L62.5305 23.0751C61.8694 26.4267 58.8722 28.5142 55.6546 28.5142C52.437 28.5142 50.2479 26.4414 50.909 23.0751L52.9953 12.3881C53.0835 11.8148 53.6271 11.3885 54.9053 11.3885C56.1835 11.3885 56.5361 11.8148 56.4333 12.3881L54.3911 22.8987Z" fill="#F7F8FA"/>
<path d="M72.7556 27.4264L74.8566 16.6071C75.1651 15.0782 74.5774 14.2403 73.3727 14.2403C72.1679 14.2403 71.2423 15.0635 70.9338 16.6071L68.8328 27.4264C68.7153 27.9997 68.2011 28.426 66.9228 28.426C65.6446 28.426 65.2626 27.9997 65.3949 27.4264L67.4958 16.6806C68.1129 13.4465 70.684 11.315 73.7547 11.315C75.4149 11.315 76.6784 12.05 77.2808 13.0937C78.2945 12.05 79.8519 11.315 81.5121 11.315C84.5827 11.315 86.3017 13.4465 85.6993 16.6806L83.5984 27.4264C83.4808 27.9997 82.9666 28.426 81.6884 28.426C80.4102 28.426 80.0282 27.9997 80.1604 27.4264L82.2614 16.6071C82.5699 15.0782 81.9822 14.2403 80.7775 14.2403C79.5727 14.2403 78.6471 15.0635 78.3386 16.6071L76.2376 27.4264C76.1201 27.9997 75.6059 28.426 74.3277 28.426C73.0201 28.4113 72.6381 27.985 72.7556 27.4264Z" fill="#F7F8FA"/>
</svg>
