<?xml version="1.0" encoding="utf-8"?>
<!-- Generator: Adobe Illustrator 26.5.0, SVG Export Plug-In . SVG Version: 6.00 Build 0)  -->
<svg version="1.0" id="Layer_1" xmlns="http://www.w3.org/2000/svg" xmlns:xlink="http://www.w3.org/1999/xlink" x="0px" y="0px"
	 viewBox="50 120 460 124" xml:space="preserve">
<style type="text/css">
	.st0{fill:#FFF;}
</style>
<path class="st0" d="M88.99,132h20.86v68.46c0.06,3.92-0.57,7.83-1.86,11.53c-1.18,3.22-3.05,6.14-5.49,8.55
	c-2.43,2.4-5.35,4.24-8.55,5.41c-3.71,1.23-7.61,1.84-11.52,1.8h-5c-3.88,0.04-7.75-0.57-11.43-1.8c-3.24-1.14-6.2-2.99-8.64-5.41
	c-2.39-2.43-4.23-5.35-5.4-8.55c-1.34-3.7-2.01-7.6-1.97-11.53V132h20.89v68.55c0,3,0.63,5.13,1.89,6.3
	c1.26,1.17,3.33,1.62,6.3,1.62h1.71c2.97,0,5.04-0.54,6.21-1.62c1.35-1.17,2-3.24,2-6.3V132z M163.62,179.22
	c1.42,0.02,2.84-0.13,4.23-0.45c0.96-0.27,1.84-0.8,2.52-1.53c0.6-0.83,1-1.78,1.17-2.79c0.22-1.4,0.31-2.82,0.27-4.24v-9.72
	c0-1.42-0.09-2.83-0.27-4.24c-0.19-1-0.59-1.95-1.17-2.79c-0.66-0.76-1.54-1.3-2.52-1.53c-1.38-0.37-2.81-0.52-4.23-0.45h-9.9v27.92
	L163.62,179.22z M132.75,226.42v-94.4h32.49c8.91,0,15.75,2.53,20.43,7.57s6.93,11.89,6.93,20.9v9.63c0,9-2.34,16-6.93,20.9
	c-4.77,5-11.52,7.57-20.43,7.57h-11.61v27.92h-20.88V226.42z M232.06,207.05h31v19.28h-51.88V132h20.88V207.05z M306.71,191.29
	h10.71l-5.31-28.37L306.71,191.29z M322.19,210.66h-20.34l-3.86,15.74h-21.52l25.74-94.4h19.78l25.65,94.4h-21.4L322.19,210.66z
	 M400.69,177.42v-45.4h20.88v94.4H401.5l-19-45.49v45.49h-20.87v-94.4h20.07L400.69,177.42z M444.47,132.02h30
	c9.45,0,16.74,2.17,21.78,6.4c5.49,4.59,8.19,11.53,8.19,20.9v39.81c0,9.36-2.7,16.3-8.19,20.89c-5,4.24-12.33,6.4-21.78,6.4h-30
	V132.02z M465.35,151.3v55.75h9.09c1.35,0,2.71-0.09,4.05-0.27c1.03-0.12,2.02-0.49,2.88-1.08c0.75-0.67,1.3-1.53,1.62-2.48
	c0.39-1.3,0.57-2.65,0.54-4v-40c0.05-1.37-0.13-2.75-0.54-4.06c-0.59-2.02-2.4-3.43-4.5-3.51c-1.34-0.22-2.69-0.31-4.05-0.27h-9.09
	V151.3z"/>
</svg>

