<svg viewBox="0 0 82 43" fill="none" xmlns="http://www.w3.org/2000/svg">
<g opacity="0.6">
<path fill-rule="evenodd" clip-rule="evenodd" d="M18.8679 5.30775C19.4871 4.20799 21.3122 3.41343 22.5976 3.90761L22.5976 3.90763L22.5977 3.90767C22.5724 3.95471 22.5453 4.00184 22.5165 4.04896C21.7678 5.28075 19.9593 6.44193 18.7106 6.06467C18.6913 6.05888 18.6722 6.05271 18.6533 6.04617L18.6533 6.04614L18.6532 6.04611L18.6533 6.04026C18.6556 5.78937 18.7331 5.54183 18.8679 5.30775ZM16.0449 8.3041C11.6233 13.529 10.0609 19.4513 12.2361 26.0261C14.4326 32.5616 19.1026 36.463 25.863 37.9601L25.8687 37.9614L25.8687 37.9614L25.8688 37.9614L25.8687 37.9617C25.8574 38.1511 25.8308 38.2838 25.8039 38.4154C25.8033 38.4185 25.8027 38.4216 25.802 38.4247C23.906 38.1605 21.912 37.4664 20.0226 36.3721C16.7631 34.4869 13.8139 31.4172 12.2357 27.3305C9.42225 20.0359 11.6265 12.8284 16.0448 8.30405L16.0442 8.30484L16.0449 8.3041ZM19.9884 36.674L19.9883 36.674C19.5602 37.3287 18.9562 37.6815 18.2886 37.7977L18.2854 37.7985L18.2756 37.8C17.1559 37.9909 16.1687 37.7184 15.2303 37.2059C14.7722 36.9566 14.3259 36.649 13.8774 36.3073L13.8777 36.3072L13.8776 36.3071C15.9987 35.6752 18.0112 35.2314 19.9884 36.6739L19.9884 36.674ZM11.0208 32.6507C11.0642 32.5755 11.086 32.5378 11.0918 32.4408C11.3562 32.4497 11.6262 32.4489 11.8986 32.4482C12.3866 32.4468 12.8821 32.4454 13.3662 32.4995C14.5084 32.607 15.5738 33.0214 16.4002 33.8497C16.5339 33.9789 16.5951 34.0933 16.5838 34.1928C16.6012 34.309 16.5405 34.4123 16.3814 34.491C16.0411 34.6457 15.6413 34.8165 15.2693 34.8526C14.0342 34.9926 13.0716 34.487 12.1801 33.7716C11.9817 33.6081 11.7935 33.427 11.6081 33.241C11.5167 33.1517 11.4269 33.0599 11.3363 32.9673L11.3363 32.9673C11.2334 32.8621 11.1294 32.7558 11.0208 32.6507ZM13.9704 31.1923C12.4988 31.9312 10.1378 30.8333 9.3329 29.3396L9.05744 28.4051C10.3685 28.3094 13.6222 29.5364 13.9704 31.1923L13.9704 31.1923L13.9704 31.1923ZM7.95019 23.8024C8.08768 23.8627 8.21738 23.9111 8.34193 23.9576L8.34196 23.9576C8.54392 24.033 8.73236 24.1034 8.91862 24.2109C9.12509 24.3217 9.32971 24.4357 9.53022 24.5551C10.4946 25.1278 11.3313 25.8018 11.8549 26.8538C11.8789 26.9018 11.9022 26.9507 11.9247 27.0003C12.017 27.1666 12.0302 27.372 12.042 27.5553L12.042 27.5554C12.046 27.6163 12.0497 27.6748 12.0562 27.7286L12.0561 27.7286L12.0562 27.7288C11.7812 27.7706 11.5061 27.8125 11.231 27.8544L11.2307 27.8543C11.1739 27.8694 11.137 27.85 11.1009 27.8292C11.0993 27.8285 11.0978 27.8277 11.0963 27.8268C9.95986 27.6224 9.23046 26.7997 8.64155 25.9078L8.6397 25.9046C8.25739 25.2906 8.02528 24.6665 7.95414 23.85C7.95274 23.8342 7.95141 23.8184 7.95015 23.8025L7.95019 23.8025L7.95019 23.8024ZM10.957 23.9829L10.9569 23.9829L10.9569 23.983C10.498 24 10.0852 23.8807 9.72194 23.6653C8.31041 22.8449 7.64406 20.6281 7.91058 19.2657L7.91092 19.2638L7.91096 19.2638L7.91099 19.2636C9.67976 20.2848 11.1052 22.1617 10.957 23.9829ZM10.7266 20.0363C11.2078 18.5075 10.2269 16.0344 8.73323 14.9713L8.73312 14.9713C8.25485 16.4515 8.509 18.0213 9.16946 19.0147C9.42757 19.4029 9.74775 19.7031 10.1105 19.8754C10.3047 19.9677 10.511 20.0233 10.7266 20.0363ZM20.5562 35.6134C21.2783 34.4747 20.6524 31.7432 19.3745 30.8009L19.3677 30.7958C18.1175 33.1349 18.9653 35.2302 20.5157 35.6737L20.5157 35.6737C20.5297 35.6542 20.5432 35.6341 20.5562 35.6134ZM11.5842 14.2723C11.5111 13.1918 11.087 12.1769 10.459 11.2004C10.4589 11.2005 10.4212 11.1787 10.346 11.1353L10.3459 11.1353L10.3458 11.1353L10.3458 11.1353C10.2921 11.2095 10.2416 11.2894 10.1944 11.3743C9.61533 12.4072 9.51309 14.1161 9.98234 15.128C10.0254 15.2329 10.0737 15.3323 10.1272 15.425C10.2904 15.6721 10.5133 15.8664 10.7409 16.0647C10.8119 16.1266 10.8834 16.1889 10.9536 16.2533C11.0289 16.2967 11.2446 16.2707 11.2881 16.1955C11.3967 16.0073 11.5054 15.8191 11.5171 15.6251C11.6011 15.1556 11.6199 14.7061 11.5842 14.2723ZM17.3617 33.4012C17.321 33.3801 17.2814 33.358 17.2429 33.3348C15.7103 32.4169 15.8684 29.9575 17.2348 28.6666C17.2692 28.6341 17.3043 28.6024 17.3402 28.5714L17.3402 28.5715L17.3403 28.5714C18.2939 29.8748 18.2931 32.4836 17.3619 33.4011L17.3618 33.4011L17.3617 33.4012ZM15.9471 28.5526C15.9087 28.7774 15.8547 28.9888 15.7849 29.179C15.6645 29.4458 15.5005 29.71 15.3401 29.9686L15.34 29.9686L15.34 29.9686L15.34 29.9686L15.34 29.9686L15.34 29.9687C15.2611 30.0958 15.183 30.2216 15.1114 30.3457C14.9896 30.5566 14.8501 30.5849 14.7223 30.4993C14.6543 30.4664 14.5886 30.4003 14.5296 30.3109C14.2083 29.8243 13.984 29.3437 14.0407 28.724C14.1089 27.9104 14.4088 27.1301 14.9347 26.4802C15.0596 26.3152 15.2031 26.1785 15.3556 26.0334L15.3556 26.0333C15.4549 25.9388 15.558 25.8407 15.662 25.7288L15.6819 25.7072L15.682 25.7075C16.0542 26.5257 16.1445 27.6646 15.9471 28.5526ZM14.5445 19.6813C14.552 20.0371 14.4946 20.4232 14.3876 20.8114C13.9977 22.271 12.9431 23.7393 11.9246 23.7876L11.9227 23.7877L11.9227 23.7877L11.9216 23.785C11.8852 23.6986 11.8544 23.6121 11.8289 23.5257C11.2836 21.7056 12.9637 20.0137 14.5444 19.6813L14.5444 19.6813L14.5445 19.6813ZM14.2825 26.0593C14.0885 26.3967 13.8383 26.7168 13.52 27.0182C13.1087 27.3829 12.9741 27.3555 12.7338 26.8153C12.4456 26.0574 12.585 25.1576 13.0372 24.3814C13.4283 23.7007 14.0589 23.114 14.8432 22.8144C14.9299 24.0197 14.8298 25.1172 14.2825 26.0593ZM15.4295 4.93768C15.4562 4.9782 15.4845 4.99451 15.5033 5.00538C15.5221 5.01626 15.5316 5.0217 15.5207 5.04051L15.521 5.04173C15.5739 5.12236 15.6053 5.23985 15.5999 5.33609L15.6002 5.33732L15.6019 5.34972C15.7634 6.29487 15.6999 7.24364 15.3982 8.14645C15.3812 8.19809 15.3633 8.24954 15.3446 8.30076C15.2025 8.72053 14.9259 9.11277 14.671 9.4674C14.6404 9.51154 14.61 9.55056 14.5801 9.58456C14.3145 9.88889 14.0645 9.82954 13.9164 9.38326L13.9156 9.3804C13.754 9.00113 13.6656 8.57385 13.6958 8.16773C13.6971 8.14671 13.6989 8.12571 13.7011 8.10474L13.7016 8.09393L13.7023 8.07896C13.7485 6.81092 14.4273 5.80965 15.424 4.94244L15.4293 4.93761L15.4294 4.93773L15.4295 4.93768ZM14.8462 17.024L14.8462 17.024L14.8462 17.024C14.7901 17.1859 14.7378 17.3366 14.6579 17.4848L14.6568 17.488C14.5656 17.6784 14.4694 17.8623 14.3665 18.0389C13.9215 18.8096 13.3256 19.475 12.4685 19.8877C12.2977 19.9544 12.12 19.9954 11.9337 20.0383C11.8373 20.0605 11.7386 20.0833 11.6374 20.1104C11.469 18.955 11.9404 18.0299 12.713 17.4312C13.3284 16.9382 14.1419 16.6639 14.9784 16.6701L14.9784 16.6701L14.9784 16.6702C14.9256 16.7952 14.885 16.9122 14.8463 17.0239L14.8462 17.024ZM16.519 7.22263L16.5189 7.2225L16.5189 7.2225C15.7925 5.69919 17.0921 3.18766 18.7267 2.87706L18.7267 2.8772L18.7268 2.87718L18.727 2.88072C18.8485 4.25385 17.9877 6.76598 16.6829 7.1819C16.6291 7.19917 16.5744 7.21282 16.519 7.22263ZM12.1655 16.5013L12.1655 16.5014L12.1719 16.5016C13.6759 16.5682 15.5709 15.1843 15.8003 13.9582C15.8018 13.9507 15.8032 13.9432 15.8046 13.9357L15.8043 13.9356C14.1467 13.3298 11.8704 14.926 12.1652 16.5013L12.1655 16.5013ZM13.274 13.2775C14.7542 13.5805 16.6756 12.6846 17.2376 11.4539L17.2387 11.4518C16.9885 11.3158 16.7125 11.2342 16.4261 11.1999C16.3928 11.1959 16.3594 11.1925 16.3258 11.1898C14.9297 11.0761 13.3319 12.0471 13.274 13.2775ZM19.1837 9.21263L19.1785 9.21786C17.9925 10.486 16.2364 10.9236 14.947 10.3795C14.9897 10.1895 15.0592 10.0151 15.1545 9.85642C15.4117 9.40219 15.8743 9.07358 16.5171 8.87741C16.9152 8.77068 17.3174 8.7265 17.7179 8.75497C18.1861 8.78153 18.6523 8.91647 19.1264 9.1802C19.1455 9.1908 19.1646 9.20161 19.1837 9.21263ZM21.3038 7.62653C21.3037 7.62656 21.3037 7.62659 21.3037 7.62661C20.4514 8.13365 19.5763 8.40472 18.6433 8.36879C18.4047 8.35962 18.1623 8.33039 17.9156 8.27991C17.7433 8.23059 17.5552 8.12195 17.367 8.0133C17.1412 7.88295 17.1153 7.66723 17.2992 7.52249C17.6075 7.24888 17.9161 6.97536 18.2722 6.87993C18.2722 6.87992 18.2722 6.87992 18.2723 6.87991C18.2723 6.8799 18.2723 6.87989 18.2724 6.87987C18.2728 6.87975 18.2732 6.87962 18.2735 6.8795C18.3136 6.86649 18.3536 6.85428 18.3935 6.84287C19.5141 6.51952 20.4954 6.76381 21.4498 7.46003M21.3038 7.62653C21.3846 7.57303 21.4064 7.53543 21.4497 7.4603L21.3038 7.62653ZM21.4497 7.4603C21.4498 7.46025 21.4499 7.4602 21.45 7.46015L21.45 7.46012C21.4499 7.4601 21.4499 7.46007 21.4499 7.46005M12.2838 8.03927C12.2183 8.18113 12.151 8.31671 12.0845 8.45085L12.0844 8.45092L12.0844 8.45095C11.9466 8.7287 11.8119 9.00028 11.7015 9.30873C11.3799 10.1266 11.3116 10.9401 11.6312 11.7771C11.7221 12.0352 11.8961 12.2711 12.0825 12.524L12.0826 12.524C12.1691 12.6413 12.2582 12.7622 12.343 12.8906C13.0844 12.2148 13.2064 11.4822 13.253 10.7063C13.2953 9.67697 13.0626 8.68946 12.6735 7.71208C12.5329 7.78153 12.4084 7.91038 12.2838 8.03922L12.2838 8.03927Z" fill="white"/>
<path d="M24.1157 19.1985V18.6212C24.1157 14.2611 29.1595 14.4282 29.1595 12.3165C29.1595 11.5113 28.6886 11.0555 27.8986 11.0555C27.0022 11.0555 26.5465 11.5417 26.4097 12.3621H24.0701C24.3284 10.3871 25.7565 9.17169 27.9138 9.17169C30.2534 9.17169 31.4839 10.5846 31.4839 12.2861C31.4839 15.0815 27.5644 15.4916 26.6072 17.4211H31.4687V19.1985H24.1157ZM35.6644 19.4264C33.1577 19.4264 31.6992 17.5122 31.6992 14.3067C31.6992 11.0555 33.1729 9.17169 35.6644 9.17169C38.1559 9.17169 39.6296 11.0859 39.6296 14.3067C39.6296 17.5578 38.1407 19.4264 35.6644 19.4264ZM35.6644 17.497C36.6823 17.497 37.2444 16.3728 37.2444 14.3067C37.2444 12.2405 36.6823 11.1011 35.6644 11.1011C34.6313 11.1011 34.0692 12.2253 34.0692 14.3067C34.0692 16.3424 34.6465 17.497 35.6644 17.497ZM39.9848 19.1833V9.66335H42.9388L45.0108 15.2913L45.4168 16.7053L45.8228 15.2913L47.8948 9.66335H50.7648V19.1833H48.5248L48.6508 12.1693L47.9228 14.5353L46.1868 19.1833H44.5628L42.8128 14.5073L42.0988 12.1833L42.2248 19.1833H39.9848ZM51.8174 15.7072V14.1608H53.7339V12.1782H55.4257V14.1608H57.3422V15.7072H55.4257V17.6898H53.7339V15.7072H51.8174Z" fill="white"/>
<path d="M32.606 27.3103L31.9429 24.856L31.8745 24.4253L31.7925 24.856L31.1362 27.3103H30.0492L29.0305 23.6459H29.9671L30.5551 26.2301L30.644 26.6745L30.7465 26.2301L31.4507 23.6459H32.3599L33.0641 26.2301L33.1529 26.6608L33.235 26.2301L33.8298 23.6459H34.7253L33.6999 27.3103H32.606ZM36.1517 24.8492H35.2697C35.386 24.0356 35.9807 23.5434 36.9037 23.5434C37.9223 23.5434 38.4419 24.145 38.4419 24.9927V26.4147C38.4419 26.8659 38.4829 27.1189 38.5513 27.3103H37.642C37.5942 27.1872 37.5736 27.0095 37.5668 26.8112C37.266 27.2351 36.8148 27.4129 36.3773 27.4129C35.6594 27.4129 35.1467 27.0574 35.1467 26.3532C35.1467 25.8541 35.427 25.4781 35.9876 25.2935C36.473 25.1295 36.9447 25.0884 37.56 25.0816V24.9927C37.56 24.521 37.3344 24.2681 36.849 24.2681C36.432 24.2681 36.2063 24.5005 36.1517 24.8492ZM36.0286 26.3053C36.0286 26.5856 36.2474 26.7634 36.6029 26.7634C37.1429 26.7634 37.56 26.3258 37.56 25.7789V25.6217C36.3157 25.6422 36.0286 25.9362 36.0286 26.3053ZM39.413 27.3103V22.388H40.2881V27.3103H39.413ZM41.2255 27.3103V22.388H42.1006V27.3103H41.2255ZM46.381 26.1139C46.1828 26.9616 45.5265 27.4129 44.6514 27.4129C43.5439 27.4129 42.8671 26.6813 42.8671 25.485C42.8671 24.2407 43.5507 23.5434 44.6172 23.5434C45.6905 23.5434 46.3537 24.2681 46.3537 25.4508V25.6559H43.7695C43.8105 26.3258 44.1181 26.695 44.6514 26.695C45.0616 26.695 45.3419 26.5036 45.4581 26.1139H46.381ZM44.6172 24.2612C44.1523 24.2612 43.872 24.5552 43.79 25.109H45.4376C45.3555 24.562 45.0753 24.2612 44.6172 24.2612ZM47.2633 26.1686V24.3228H46.7916V23.6459H47.2633V22.8051H48.1384V23.6459H48.9109V24.3228H48.1384V26.0934C48.1384 26.4763 48.2478 26.6813 48.7331 26.6813H48.8972V27.324C48.8015 27.3718 48.6033 27.4129 48.364 27.4129C47.6188 27.4129 47.2633 26.989 47.2633 26.1686ZM50.2919 24.6304C50.2919 25.4713 52.6027 24.7603 52.6027 26.2301C52.6027 26.9343 51.9532 27.4129 51.0371 27.4129C50.1347 27.4129 49.4852 26.9958 49.3553 26.1139H50.2304C50.2919 26.5104 50.6064 26.736 51.0644 26.736C51.4951 26.736 51.7207 26.5515 51.7207 26.2848C51.7207 25.4645 49.4579 26.1686 49.4579 24.6851C49.4579 24.0903 49.9227 23.5434 50.8799 23.5434C51.7207 23.5434 52.3565 23.9399 52.4659 24.8492H51.5909C51.5225 24.4048 51.2627 24.227 50.8457 24.227C50.497 24.227 50.2919 24.398 50.2919 24.6304ZM31.7915 30.9449H30.9165C30.8344 30.4663 30.5473 30.2681 30.1781 30.2681C29.638 30.2681 29.3509 30.6988 29.3509 31.485C29.3509 32.2575 29.6517 32.6882 30.2055 32.6882C30.5815 32.6882 30.8481 32.4831 30.937 32.0661H31.8189C31.6548 32.9822 31.0122 33.4129 30.1849 33.4129C29.1048 33.4129 28.4485 32.6745 28.4485 31.485C28.4485 30.2407 29.1253 29.5434 30.1781 29.5434C31.0122 29.5434 31.6685 30.0083 31.7915 30.9449ZM32.5616 33.3103V29.6459H33.4367V30.1792C33.6759 29.7417 34.0451 29.5434 34.4416 29.5434C34.592 29.5434 34.7288 29.5844 34.7971 29.6459V30.4048C34.6809 30.3706 34.551 30.3569 34.3938 30.3569C33.7306 30.3569 33.4367 30.7535 33.4367 31.3619V33.3103H32.5616ZM38.6718 32.1139C38.4736 32.9616 37.8172 33.4129 36.9422 33.4129C35.8347 33.4129 35.1579 32.6813 35.1579 31.485C35.1579 30.2407 35.8415 29.5434 36.908 29.5434C37.9813 29.5434 38.6445 30.2681 38.6445 31.4508V31.6559H36.0603C36.1013 32.3258 36.4089 32.695 36.9422 32.695C37.3524 32.695 37.6327 32.5036 37.7489 32.1139H38.6718ZM36.908 30.2612C36.4431 30.2612 36.1628 30.5552 36.0808 31.109H37.7284C37.6463 30.562 37.366 30.2612 36.908 30.2612ZM40.2856 30.8492H39.4037C39.5199 30.0356 40.1147 29.5434 41.0376 29.5434C42.0562 29.5434 42.5758 30.145 42.5758 30.9927V32.4147C42.5758 32.8659 42.6168 33.1189 42.6852 33.3103H41.7759C41.7281 33.1872 41.7076 33.0095 41.7007 32.8112C41.3999 33.2351 40.9487 33.4129 40.5112 33.4129C39.7934 33.4129 39.2806 33.0574 39.2806 32.3532C39.2806 31.8541 39.5609 31.4781 40.1215 31.2935C40.6069 31.1295 41.0786 31.0884 41.6939 31.0816V30.9927C41.6939 30.521 41.4683 30.2681 40.9829 30.2681C40.5659 30.2681 40.3403 30.5005 40.2856 30.8492ZM40.1625 32.3053C40.1625 32.5856 40.3813 32.7634 40.7368 32.7634C41.2769 32.7634 41.6939 32.3258 41.6939 31.7789V31.6217C40.4497 31.6422 40.1625 31.9362 40.1625 32.3053ZM43.6632 32.1686V30.3228H43.1915V29.6459H43.6632V28.8051H44.5383V29.6459H45.3108V30.3228H44.5383V32.0934C44.5383 32.4763 44.6476 32.6813 45.133 32.6813H45.2971V33.324C45.2014 33.3718 45.0031 33.4129 44.7639 33.4129C44.0187 33.4129 43.6632 32.989 43.6632 32.1686ZM49.3034 32.1139C49.1051 32.9616 48.4488 33.4129 47.5737 33.4129C46.4662 33.4129 45.7894 32.6813 45.7894 31.485C45.7894 30.2407 46.473 29.5434 47.5395 29.5434C48.6129 29.5434 49.276 30.2681 49.276 31.4508V31.6559H46.6918C46.7328 32.3258 47.0405 32.695 47.5737 32.695C47.9839 32.695 48.2642 32.5036 48.3804 32.1139H49.3034ZM47.5395 30.2612C47.0747 30.2612 46.7944 30.5552 46.7123 31.109H48.3599C48.2779 30.562 47.9976 30.2612 47.5395 30.2612ZM51.4435 33.4129C50.4864 33.4129 49.8985 32.6813 49.8985 31.485C49.8985 30.2407 50.5001 29.5434 51.4435 29.5434C51.8469 29.5434 52.1819 29.7143 52.4075 30.0425V28.388H53.2826V33.3103H52.4075V32.8933C52.1751 33.2283 51.8469 33.4129 51.4435 33.4129ZM51.6008 32.6882C52.1272 32.6882 52.4075 32.2643 52.4075 31.485C52.4075 30.7056 52.1135 30.2681 51.6008 30.2681C51.0812 30.2681 50.8009 30.6988 50.8009 31.485C50.8009 32.2575 51.0881 32.6882 51.6008 32.6882Z" fill="white"/>
<path fill-rule="evenodd" clip-rule="evenodd" d="M63.0266 5.30775C62.4075 4.20799 60.5824 3.41343 59.2969 3.90761L59.2969 3.90763L59.2968 3.90767C59.3221 3.95471 59.3492 4.00184 59.378 4.04896C60.1268 5.28075 61.9352 6.44193 63.184 6.06467C63.2032 6.05888 63.2223 6.05271 63.2413 6.04617L63.2413 6.04614L63.2413 6.04611L63.2412 6.04026C63.2389 5.78937 63.1614 5.54183 63.0266 5.30775ZM65.8496 8.3041C70.2712 13.529 71.8337 19.4513 69.6584 26.0261C67.462 32.5616 62.7919 36.463 56.0316 37.9601L56.0258 37.9614L56.0258 37.9614L56.0258 37.9614L56.0258 37.9617C56.0372 38.1511 56.0637 38.2838 56.0906 38.4154C56.0912 38.4185 56.0919 38.4216 56.0925 38.4247C57.9885 38.1605 59.9826 37.4664 61.8719 36.3721C65.1314 34.4869 68.0806 31.4172 69.6588 27.3305C72.4723 20.0359 70.2681 12.8284 65.8497 8.30405L65.8504 8.30484L65.8496 8.3041ZM61.9062 36.674L61.9062 36.674C62.3343 37.3287 62.9383 37.6815 63.6059 37.7977L63.6092 37.7985L63.6189 37.8C64.7386 37.9909 65.7258 37.7184 66.6643 37.2059C67.1224 36.9566 67.5686 36.649 68.0171 36.3073L68.0168 36.3072L68.017 36.3071C65.8958 35.6752 63.8833 35.2314 61.9061 36.6739L61.9062 36.674ZM70.8738 32.6507C70.8303 32.5755 70.8086 32.5378 70.8027 32.4408C70.5383 32.4497 70.2683 32.4489 69.996 32.4482C69.5079 32.4468 69.0125 32.4454 68.5284 32.4995C67.3861 32.607 66.3207 33.0214 65.4943 33.8497C65.3606 33.9789 65.2994 34.0933 65.3107 34.1928C65.2934 34.309 65.354 34.4123 65.5132 34.491C65.8534 34.6457 66.2532 34.8165 66.6252 34.8526C67.8603 34.9926 68.8229 34.487 69.7144 33.7716C69.9129 33.6081 70.1011 33.427 70.2865 33.241C70.3779 33.1517 70.4676 33.0599 70.5582 32.9673L70.5582 32.9673C70.6611 32.8621 70.7651 32.7558 70.8738 32.6507ZM67.9241 31.1923C69.3957 31.9312 71.7568 30.8333 72.5616 29.3396L72.8371 28.4051C71.5261 28.3094 68.2723 29.5364 67.9241 31.1923L67.9241 31.1923L67.9241 31.1923ZM73.9443 23.8024C73.8069 23.8627 73.6772 23.9111 73.5526 23.9576L73.5526 23.9576C73.3506 24.033 73.1622 24.1034 72.9759 24.2109C72.7694 24.3217 72.5648 24.4357 72.3643 24.5551C71.3999 25.1278 70.5633 25.8018 70.0396 26.8538C70.0157 26.9018 69.9924 26.9507 69.9698 27.0003C69.8775 27.1666 69.8643 27.372 69.8525 27.5553L69.8525 27.5554C69.8486 27.6163 69.8448 27.6748 69.8384 27.7286L69.8384 27.7286L69.8383 27.7288C70.1134 27.7706 70.3885 27.8125 70.6636 27.8544L70.6638 27.8543C70.7206 27.8694 70.7575 27.85 70.7937 27.8292C70.7952 27.8285 70.7967 27.8277 70.7982 27.8268C71.9347 27.6224 72.6641 26.7997 73.253 25.9078L73.2548 25.9046C73.6371 25.2906 73.8693 24.6665 73.9404 23.85C73.9418 23.8342 73.9431 23.8184 73.9444 23.8025L73.9443 23.8025L73.9443 23.8024ZM70.9375 23.9829L70.9376 23.9829L70.9376 23.983C71.3965 24 71.8093 23.8807 72.1726 23.6653C73.5841 22.8449 74.2505 20.6281 73.9839 19.2657L73.9836 19.2638L73.9836 19.2638L73.9835 19.2636C72.2148 20.2848 70.7893 22.1617 70.9375 23.9829ZM71.168 20.0363C70.6867 18.5075 71.6676 16.0344 73.1613 14.9713L73.1614 14.9713C73.6397 16.4515 73.3855 18.0213 72.7251 19.0147C72.467 19.4029 72.1468 19.7031 71.784 19.8754C71.5899 19.9677 71.3835 20.0233 71.168 20.0363ZM61.3383 35.6134C60.6162 34.4747 61.2421 31.7432 62.52 30.8009L62.5269 30.7958C63.7771 33.1349 62.9292 35.2302 61.3789 35.6737L61.3788 35.6737C61.3649 35.6542 61.3514 35.6341 61.3383 35.6134ZM70.3103 14.2723C70.3834 13.1918 70.8075 12.1769 71.4355 11.2004C71.4356 11.2005 71.4733 11.1787 71.5486 11.1353L71.5486 11.1353L71.5487 11.1353L71.5487 11.1353C71.6024 11.2095 71.6529 11.2894 71.7001 11.3743C72.2792 12.4072 72.3814 14.1161 71.9122 15.128C71.8691 15.2329 71.8208 15.3323 71.7673 15.425C71.6041 15.6721 71.3812 15.8664 71.1536 16.0647C71.0826 16.1266 71.0111 16.1889 70.9409 16.2533C70.8657 16.2967 70.6499 16.2707 70.6065 16.1955C70.4978 16.0073 70.3892 15.8191 70.3775 15.6251C70.2934 15.1556 70.2746 14.7061 70.3103 14.2723ZM64.5328 33.4012C64.5735 33.3801 64.6131 33.358 64.6516 33.3348C66.1842 32.4169 66.0262 29.9575 64.6597 28.6666C64.6254 28.6341 64.5903 28.6024 64.5544 28.5714L64.5543 28.5715L64.5543 28.5714C63.6006 29.8748 63.6014 32.4836 64.5327 33.4011L64.5327 33.4011L64.5328 33.4012ZM65.9474 28.5526C65.9858 28.7774 66.0398 28.9888 66.1096 29.179C66.23 29.4458 66.394 29.71 66.5545 29.9686L66.5545 29.9686L66.5545 29.9686L66.5545 29.9686L66.5545 29.9686L66.5545 29.9687C66.6335 30.0958 66.7115 30.2216 66.7831 30.3457C66.9049 30.5566 67.0444 30.5849 67.1722 30.4993C67.2403 30.4664 67.3059 30.4003 67.3649 30.3109C67.6863 29.8243 67.9105 29.3437 67.8538 28.724C67.7856 27.9104 67.4857 27.1301 66.9599 26.4802C66.835 26.3152 66.6914 26.1785 66.539 26.0334L66.5389 26.0333C66.4396 25.9388 66.3366 25.8407 66.2325 25.7288L66.2126 25.7072L66.2125 25.7075C65.8404 26.5257 65.7501 27.6646 65.9474 28.5526ZM67.3501 19.6813C67.3425 20.0371 67.3999 20.4232 67.5069 20.8114C67.8968 22.271 68.9515 23.7393 69.9699 23.7876L69.9718 23.7877L69.9718 23.7877L69.973 23.785C70.0093 23.6986 70.0402 23.6121 70.0657 23.5257C70.6109 21.7056 68.9308 20.0137 67.3501 19.6813L67.3501 19.6813L67.3501 19.6813ZM67.612 26.0593C67.806 26.3967 68.0563 26.7168 68.3746 27.0182C68.7858 27.3829 68.9205 27.3555 69.1607 26.8153C69.4489 26.0574 69.3095 25.1576 68.8573 24.3814C68.4662 23.7007 67.8357 23.114 67.0513 22.8144C66.9646 24.0197 67.0648 25.1172 67.612 26.0593ZM66.4651 4.93768C66.4383 4.9782 66.4101 4.99451 66.3912 5.00538C66.3724 5.01626 66.363 5.0217 66.3738 5.04051L66.3735 5.04173C66.3207 5.12236 66.2892 5.23985 66.2946 5.33609L66.2943 5.33732L66.2926 5.34972C66.1311 6.29487 66.1946 7.24364 66.4963 8.14645C66.5133 8.19809 66.5312 8.24954 66.55 8.30076C66.692 8.72053 66.9686 9.11277 67.2235 9.4674C67.2542 9.51154 67.2845 9.55056 67.3145 9.58456C67.58 9.88889 67.83 9.82954 67.9781 9.38326L67.9789 9.3804C68.1405 9.00113 68.2289 8.57385 68.1987 8.16773C68.1974 8.14671 68.1957 8.12571 68.1934 8.10474L68.1929 8.09393L68.1922 8.07896C68.146 6.81092 67.4673 5.80965 66.4705 4.94244L66.4652 4.93761L66.4651 4.93773L66.4651 4.93768ZM67.0483 17.024L67.0483 17.024L67.0483 17.024C67.1044 17.1859 67.1567 17.3366 67.2367 17.4848L67.2378 17.488C67.3289 17.6784 67.4251 17.8623 67.5281 18.0389C67.973 18.8096 68.5689 19.475 69.426 19.8877C69.5968 19.9544 69.7745 19.9954 69.9608 20.0383C70.0572 20.0605 70.1559 20.0833 70.2572 20.1104C70.4255 18.955 69.9541 18.0299 69.1815 17.4312C68.5661 16.9382 67.7526 16.6639 66.9162 16.6701L66.9162 16.6701L66.9162 16.6702C66.9689 16.7952 67.0095 16.9122 67.0483 17.0239L67.0483 17.024ZM65.3756 7.22263L65.3756 7.2225L65.3757 7.2225C66.102 5.69919 64.8024 3.18766 63.1679 2.87706L63.1679 2.8772L63.1678 2.87718L63.1675 2.88072C63.0461 4.25385 63.9069 6.76598 65.2116 7.1819C65.2655 7.19917 65.3201 7.21282 65.3756 7.22263ZM69.7291 16.5013L69.7291 16.5014L69.7226 16.5016C68.2187 16.5682 66.3236 15.1843 66.0942 13.9582C66.0928 13.9507 66.0913 13.9432 66.09 13.9357L66.0902 13.9356C67.7478 13.3298 70.0241 14.926 69.7293 16.5013L69.7291 16.5013ZM68.6205 13.2775C67.1404 13.5805 65.2189 12.6846 64.6569 11.4539L64.6559 11.4518C64.9061 11.3158 65.182 11.2342 65.4684 11.1999C65.5017 11.1959 65.5352 11.1925 65.5687 11.1898C66.9648 11.0761 68.5626 12.0471 68.6205 13.2775ZM62.7109 9.21263L62.716 9.21786C63.9021 10.486 65.6582 10.9236 66.9475 10.3795C66.9049 10.1895 66.8354 10.0151 66.7401 9.85642C66.4829 9.40219 66.0202 9.07358 65.3775 8.87741C64.9793 8.77068 64.5771 8.7265 64.1766 8.75497C63.7084 8.78153 63.2423 8.91647 62.7682 9.1802C62.7491 9.1908 62.7299 9.20161 62.7109 9.21263ZM60.5908 7.62653C60.5908 7.62656 60.5908 7.62659 60.5908 7.62661C61.4431 8.13365 62.3182 8.40472 63.2513 8.36879C63.4898 8.35962 63.7322 8.33039 63.9789 8.27991C64.1512 8.23059 64.3394 8.12195 64.5275 8.0133C64.7533 7.88295 64.7792 7.66723 64.5954 7.52249C64.287 7.24888 63.9785 6.97536 63.6223 6.87993C63.6223 6.87992 63.6223 6.87992 63.6223 6.87991C63.6222 6.8799 63.6222 6.87989 63.6221 6.87987C63.6218 6.87975 63.6214 6.87962 63.621 6.8795C63.5809 6.86649 63.5409 6.85428 63.501 6.84287C62.3804 6.51952 61.3991 6.76381 60.4447 7.46003M60.5908 7.62653C60.5099 7.57303 60.4882 7.53543 60.4448 7.4603L60.5908 7.62653ZM60.4448 7.4603C60.4447 7.46025 60.4446 7.4602 60.4446 7.46015L60.4446 7.46012C60.4446 7.4601 60.4446 7.46007 60.4447 7.46005M69.6107 8.03927C69.6763 8.18113 69.7435 8.31671 69.8101 8.45085L69.8101 8.45092L69.8101 8.45095C69.9479 8.7287 70.0827 9.00028 70.193 9.30873C70.5146 10.1266 70.583 10.9401 70.2633 11.7771C70.1725 12.0352 69.9985 12.2711 69.812 12.524L69.812 12.524C69.7255 12.6413 69.6363 12.7622 69.5515 12.8906C68.8101 12.2148 68.6882 11.4822 68.6415 10.7063C68.5992 9.67697 68.8319 8.68946 69.2211 7.71208C69.3616 7.78153 69.4862 7.91038 69.6107 8.03922L69.6107 8.03927Z" fill="white"/>
</g>
</svg>
