<svg width="95" height="14" viewBox="0 0 95 14" fill="none" xmlns="http://www.w3.org/2000/svg">
<g id="bitcoinlogo 1" clip-path="url(#clip0_5187_15543)">
<g id="Group 1000002806">
<path id="Vector" d="M8.93652 0.293457H12.9823C13.1766 0.293457 13.3341 0.453552 13.3341 0.651039V4.76324H8.93652V0.293457Z" fill="white"/>
<path id="Vector_2" opacity="0.5" d="M13.3341 4.76514H8.93652V9.23492H13.3341V4.76514Z" fill="white"/>
<path id="Vector_3" opacity="0.25" d="M8.93652 9.23242H13.3341V13.3447C13.3341 13.5421 13.1766 13.7022 12.9823 13.7022H8.93652V9.23242Z" fill="white"/>
<path id="Vector_4" opacity="0.25" d="M0.499269 0.293457H4.54505V4.76324H0.147461V0.651039C0.147461 0.453552 0.304971 0.293457 0.499269 0.293457Z" fill="white"/>
<path id="Vector_5" d="M8.94349 4.76514H4.5459V9.23492H8.94349V4.76514Z" fill="white"/>
<path id="Vector_6" d="M0.147461 9.23242H4.54505V13.7022H0.499269C0.304971 13.7022 0.147461 13.5421 0.147461 13.3447V9.23242Z" fill="white"/>
<path id="Vector_7" opacity="0.5" d="M8.94349 9.23242H4.5459V13.7022H8.94349V9.23242Z" fill="white"/>
<path id="Vector_8" opacity="0.5" d="M8.94349 0.293457H4.5459V4.76324H8.94349V0.293457Z" fill="white"/>
<path id="Vector_9" opacity="0.5" d="M4.54505 4.76514H0.147461V9.23492H4.54505V4.76514Z" fill="white"/>
</g>
<path id="Vector_10" fill-rule="evenodd" clip-rule="evenodd" d="M24.7507 9.08814C24.7507 11.5227 22.7347 12.4837 20.6406 12.4837H15.8584C15.7959 12.4837 15.7334 12.4196 15.7334 12.3556L15.7803 6.87782L15.7334 1.40011C15.7334 1.33604 15.7959 1.27197 15.8584 1.27197H20.5624C22.7972 1.27197 24.4537 2.10484 24.4537 4.04286C24.4537 5.38827 23.7661 6.15707 22.5628 6.52546C24.0318 6.86181 24.7507 7.85485 24.7507 9.08814ZM18.1246 2.96941L18.0933 5.78835H20.5938C21.5158 5.78835 22.0785 5.30785 22.0785 4.3949C22.0785 3.40186 21.4065 2.96941 20.5938 2.96941H18.1246ZM18.1246 10.7858L18.0933 7.48634H20.5938C21.5471 7.48634 22.3441 7.90276 22.3441 9.088C22.3441 10.4014 21.5784 10.7858 20.5938 10.7858H18.1246ZM27.5286 3.43424H25.4033C25.3407 3.43424 25.2782 3.37017 25.2782 3.3061V1.40012C25.2782 1.33605 25.3407 1.27198 25.4033 1.27198H27.5286C27.5911 1.27198 27.6536 1.33605 27.6536 1.40012V3.3061C27.6536 3.37017 27.5911 3.43424 27.5286 3.43424ZM25.4033 12.4832H27.5286C27.5911 12.4832 27.6536 12.4192 27.6536 12.3551L27.6224 8.36696L27.6536 4.36276C27.6536 4.29869 27.5911 4.23462 27.5286 4.23462H25.4033C25.3407 4.23462 25.2782 4.29869 25.2782 4.36276L25.3095 8.36696L25.2782 12.3551C25.2782 12.4192 25.3407 12.4832 25.4033 12.4832ZM33.4937 10.8822V12.1956C33.4937 12.2756 33.4468 12.3397 33.3687 12.3718C32.9155 12.5159 32.3998 12.6441 31.8997 12.6441C30.5401 12.6441 29.2429 11.9393 29.2429 10.0654L29.2586 5.93304H28.3365C28.2741 5.93304 28.2115 5.86897 28.2115 5.8049V4.3634C28.2115 4.29934 28.2741 4.23527 28.3365 4.23527H29.2586L29.2429 2.29724C29.2429 2.23318 29.3055 2.16911 29.368 2.16911H31.4621C31.5246 2.16911 31.5871 2.23318 31.5871 2.29724L31.5715 4.23527H33.3843C33.4468 4.23527 33.5094 4.29934 33.5094 4.3634V5.8049C33.5094 5.86897 33.4468 5.93304 33.3843 5.93304H31.5715L31.5871 10.0013C31.5871 10.706 31.9309 10.9302 32.4467 10.9302C32.8373 10.9302 33.1343 10.8662 33.3687 10.7861C33.4312 10.7701 33.4937 10.8182 33.4937 10.8822ZM37.9274 12.6918C40.0372 12.6918 41.5218 11.3303 41.6782 9.44039C41.6937 9.37629 41.6313 9.31226 41.5687 9.31226H39.5996C39.5371 9.31226 39.4746 9.36032 39.459 9.44039C39.3652 10.5295 38.7714 11.1062 37.9743 11.0901C36.8023 11.0741 36.224 10.2573 36.224 8.36725C36.224 6.54137 36.7866 5.66045 37.9743 5.64443C38.6463 5.64443 39.2246 6.0929 39.3965 7.03788C39.4121 7.11796 39.4746 7.16602 39.5371 7.16602H41.4593C41.5218 7.16602 41.5844 7.10195 41.5687 7.03788C41.3968 5.22799 40.0528 4.02674 37.9743 4.02674C35.3489 4.02674 33.8173 5.75654 33.8173 8.38329C33.8173 11.01 35.3489 12.6918 37.9274 12.6918ZM50.4204 8.33523C50.4204 10.962 48.9358 12.6918 46.3103 12.6918C43.6848 12.6918 42.169 11.01 42.169 8.38329C42.169 5.75654 43.6848 4.02674 46.3103 4.02674C48.9358 4.02674 50.4204 5.70849 50.4204 8.33523ZM46.3098 11.0904C45.1377 11.0904 44.5595 10.2576 44.5595 8.39962C44.5595 6.54167 45.1064 5.64473 46.2942 5.62872C47.4507 5.62872 48.0132 6.52565 48.0132 8.38358C48.0132 10.2736 47.4662 11.0904 46.3098 11.0904ZM53.1833 3.43424H51.0579C50.9954 3.43424 50.9329 3.37017 50.9329 3.3061V1.40012C50.9329 1.33605 50.9954 1.27198 51.0579 1.27198H53.1833C53.2458 1.27198 53.3084 1.33605 53.3084 1.40012V3.3061C53.3084 3.37017 53.2458 3.43424 53.1833 3.43424ZM51.0579 12.4832H53.1833C53.2458 12.4832 53.3084 12.4192 53.3084 12.3551L53.2771 8.36696L53.3084 4.36276C53.3084 4.29869 53.2458 4.23462 53.1833 4.23462H51.0579C50.9954 4.23462 50.9329 4.29869 50.9329 4.36276L50.9642 8.36696L50.9329 12.3551C50.9329 12.4192 50.9954 12.4832 51.0579 12.4832ZM56.2131 12.4832H54.0564C53.9939 12.4832 53.9314 12.4192 53.9314 12.3551L53.9626 8.52711V4.36275C53.9626 4.29868 54.0252 4.23462 54.0876 4.23462H56.1036C56.1662 4.23462 56.2286 4.29868 56.2286 4.36275L56.1818 5.2757C56.7287 4.55495 57.6508 4.04242 58.776 4.04242C60.4794 4.04242 61.589 5.22766 61.589 7.24576V8.97555L61.6203 12.3551C61.6203 12.4192 61.5577 12.4832 61.4952 12.4832H59.3698C59.3074 12.4832 59.2448 12.4192 59.2448 12.3551L59.2761 8.97555V7.27779C59.2761 6.38086 58.7604 5.80426 58.0571 5.80426C57.2132 5.80426 56.3068 6.60509 56.3068 8.36696V8.97555L56.3381 12.3551C56.3381 12.4192 56.2755 12.4832 56.2131 12.4832ZM62.3149 12.4831H64.5027C64.5652 12.4831 64.6278 12.419 64.6278 12.3549V10.3208C64.6278 10.2568 64.5652 10.1927 64.5027 10.1927H62.3149C62.2523 10.1927 62.1898 10.2568 62.1898 10.3208V12.3549C62.1898 12.419 62.2523 12.4831 62.3149 12.4831ZM72.9376 9.44039C72.7811 11.3303 71.2967 12.6918 69.1867 12.6918C66.6081 12.6918 65.0766 11.01 65.0766 8.38329C65.0766 5.75654 66.6081 4.02674 69.2335 4.02674C71.3121 4.02674 72.656 5.22799 72.8279 7.03788C72.844 7.10195 72.7811 7.16602 72.7189 7.16602H70.7963C70.7341 7.16602 70.6712 7.11796 70.6558 7.03788C70.4839 6.0929 69.9056 5.64443 69.2335 5.64443C68.0459 5.66045 67.4833 6.54137 67.4833 8.36725C67.4833 10.2573 68.0615 11.0741 69.2335 11.0901C70.0306 11.1062 70.6244 10.5295 70.718 9.44039C70.7341 9.36032 70.7963 9.31226 70.8592 9.31226H72.8279C72.8908 9.31226 72.953 9.37629 72.9376 9.44039ZM77.5696 12.6918C80.1952 12.6918 81.6795 10.962 81.6795 8.33523C81.6795 5.70849 80.1952 4.02674 77.5696 4.02674C74.944 4.02674 73.4282 5.75654 73.4282 8.38329C73.4282 11.01 74.944 12.6918 77.5696 12.6918ZM75.819 8.39962C75.819 10.2576 76.3969 11.0904 77.5689 11.0904C78.7255 11.0904 79.2727 10.2736 79.2727 8.38358C79.2727 6.52565 78.7101 5.62872 77.5535 5.62872C76.3655 5.64473 75.819 6.54167 75.819 8.39962ZM84.6112 9.52011V8.36696C84.6112 6.68517 85.3618 5.80426 86.018 5.80426C86.6742 5.80426 87.0495 6.28476 87.0495 7.27779V9.52011L87.018 12.3551C87.018 12.4192 87.0802 12.4832 87.1431 12.4832H89.2683C89.3312 12.4832 89.3934 12.4192 89.3934 12.3551L89.362 9.52011V8.36696C89.362 6.68517 90.1279 5.80426 90.7688 5.80426C91.4096 5.80426 91.8003 6.28476 91.8003 7.27779V9.52011L91.7688 12.3551C91.7688 12.4192 91.8317 12.4832 91.8939 12.4832H94.0191C94.082 12.4832 94.1442 12.4192 94.1442 12.3551L94.1128 9.52011V7.24576C94.1128 5.05147 93.1756 4.04242 91.5501 4.04242C90.5968 4.04242 89.8002 4.34674 89.1125 5.59604C88.7372 4.53894 87.9244 4.04242 86.7993 4.04242C85.7678 4.04242 85.0487 4.47487 84.4861 5.2757L84.5329 4.36275C84.5329 4.29868 84.4707 4.23462 84.4085 4.23462H82.3923C82.3294 4.23462 82.2673 4.29868 82.2673 4.36275V9.52011L82.2358 12.3551C82.2358 12.4192 82.2987 12.4832 82.3609 12.4832H84.5175C84.5804 12.4832 84.6426 12.4192 84.6426 12.3551L84.6112 9.52011Z" fill="white"/>
</g>
<defs>
<clipPath id="clip0_5187_15543">
<rect width="94.3448" height="13.6086" fill="white" transform="translate(0.155273 0.29248)"/>
</clipPath>
</defs>
</svg>
