<svg width="209" height="26" viewBox="0 0 209 26" fill="none" xmlns="http://www.w3.org/2000/svg">
<g clip-path="url(#clip0_2397_33275)">
<path d="M184.965 21.7106C186.084 22.8953 192.229 28.5735 201.873 21.9835C208.848 16.5521 208.674 4.77676 208.004 1.22082C207.77 1.73833 199.669 19.478 184.965 21.7106ZM208.003 1.21781C207.917 1.18252 198.944 -0.0407939 190.074 5.67235C184.566 9.22001 183.838 14.4124 184.089 17.8723C196.984 16.4293 207.71 1.62463 208.003 1.21781Z" fill="white"/>
<path d="M208.003 1.21781C207.917 1.18252 198.944 -0.040794 190.074 5.67235C184.566 9.22001 183.838 14.4124 184.089 17.8723C196.984 16.4293 207.71 1.62463 208.003 1.21781Z" fill="white"/>
<path d="M14.6032 21.0179H4.55866V15.6681H14.6032C17.1144 15.6681 18.3973 16.8691 18.3973 18.4249C18.3973 19.9261 17.1417 21.0179 14.6032 21.0179ZM14.2757 12.8021H4.55866V8.2984H14.2757C16.9233 8.2984 17.9605 9.22644 17.9605 10.5093C17.9605 11.683 16.7596 12.8021 14.2757 12.8021ZM16.8414 14.1668C21.0722 14.0304 22.6007 11.9286 22.6007 9.63586C22.6007 7.12472 20.6082 5.05029 15.7496 5.05029H0.21875V24.2114H16.2137C20.1987 24.2114 23.1739 22.5464 23.1739 18.9708C23.1739 16.4323 21.5089 14.276 16.8414 14.1668ZM28.2998 5.05029V24.2114H32.6397V5.05029H28.2998ZM50.2394 8.68054H59.7927V5.05029H36.3462V8.68054H45.8995V24.2114H50.2394V8.68054ZM63.4992 5.05029V24.2114H67.8391V16.7326H78.0202V13.5936H67.8391V8.35299H84.3799V5.05029H63.4992ZM87.8954 5.05029V24.2114H92.2353V5.05029H87.8954ZM102.411 9.71775L116.795 24.2114H121.708V5.05029H117.423V18.8616L103.612 5.05029H98.0981V24.2114H102.411V9.71775ZM127.571 5.05029V24.2114H148.807V20.9906H131.911V15.7227H142.038V12.7475H131.911V8.35299H148.807V5.05029H127.571ZM177.87 5.05029H172.138L164.823 11.7922L157.563 5.05029H151.749L161.957 14.4944L151.367 24.2114H157.099L164.769 17.142L172.411 24.2114H178.253L167.635 14.4671L177.87 5.05029Z" fill="white"/>
</g>
<defs>
<clipPath id="clip0_2397_33275">
<rect width="208.562" height="24.4956" fill="white" transform="translate(0 0.851562)"/>
</clipPath>
</defs>
</svg>
