<svg  viewBox="0 0 84 29" fill="none" xmlns="http://www.w3.org/2000/svg">
<g id="Logo_Biget 1">
<path id="Vector" d="M10.3013 14.9707H5.22115L0.0241663 9.80697C-0.313902 9.47105 -0.315635 8.92469 0.0207239 8.58707L6.68552 1.88818H11.9187L10.3366 3.42629L4.52769 9.19856L10.2628 14.9708M8.21312 9.21191H13.2932L18.4902 14.3757C18.8282 14.7116 18.83 15.2579 18.4936 15.5956L11.8288 22.294H6.5956L8.17773 20.7559L13.9866 14.9837L8.25158 9.21138M48.233 13.2138V10.361H45.7884V6.3364H42.4242V10.361H40.3363V13.2138H42.4242V17.8838C42.4242 20.4801 42.9356 22.3882 46.1236 22.3293L48.1248 22.29V19.6151H47.1317C45.7148 19.6151 45.7936 18.789 45.7936 17.2548L45.7882 13.2139H48.2326L48.233 13.2138ZM82.135 13.2138V10.361H79.6904V6.3364H76.3262V10.361H74.2382V13.2138H76.3262V17.8838C76.3262 20.4801 76.8376 22.3882 80.0256 22.3293L82.0268 22.29V19.6151H81.0337C79.6168 19.6151 79.6958 18.789 79.6958 17.2548L79.6901 13.2139H82.1346L82.135 13.2138ZM57.8314 11.714C57.4309 11.2328 56.9613 10.8598 56.4317 10.6019C55.7996 10.2962 55.06 10.1414 54.2334 10.1414C53.2214 10.1414 52.314 10.3911 51.5379 10.8827C50.7627 11.3738 50.1477 12.0681 49.711 12.9448C49.2758 13.8193 49.0546 14.846 49.0546 15.9977C49.0546 17.1495 49.2871 18.1158 49.7459 18.9964C50.2055 19.8799 50.8428 20.5836 51.6398 21.0892C52.4384 21.5958 53.3491 21.8528 54.347 21.8528C55.1003 21.8528 55.7885 21.6897 56.3913 21.3676C56.8686 21.1128 57.2684 20.7756 57.5837 20.3638V21.6627C57.5837 22.4677 57.372 23.0856 56.9558 23.4974C56.5384 23.9093 55.9037 24.1171 55.0688 24.1171C54.3496 24.1171 53.7838 23.9542 53.3878 23.6319C53.064 23.3686 52.7812 23.0227 52.7152 22.2904H49.45C49.4803 23.315 49.7812 24.0055 50.2059 24.6103C50.6824 25.2882 51.3526 25.8183 52.1995 26.1842C53.0383 26.546 54.0114 26.7297 55.0916 26.7297C56.905 26.7297 58.3486 26.274 59.3813 25.3762C60.4205 24.4732 60.9474 23.2089 60.9474 21.619V10.3605H57.8316L57.8314 11.714ZM57.2351 17.5824C57.0203 18.0257 56.7173 18.3733 56.3329 18.6138C55.9493 18.8545 55.4861 18.9769 54.9557 18.9769C54.189 18.9769 53.593 18.7161 53.1326 18.1788C52.6738 17.6445 52.4413 16.9106 52.4413 15.9973C52.4413 15.0839 52.6738 14.35 53.1326 13.8149C53.5871 13.2849 54.2006 13.0167 54.9557 13.0167C55.7107 13.0167 56.3778 13.2888 56.8469 13.827C57.3205 14.3694 57.5607 15.1072 57.5607 16.0183C57.5607 16.6086 57.4511 17.1343 57.2351 17.5818L57.2351 17.5824ZM39.2836 6.3364H35.7554V9.21167H39.2836V6.3364ZM72.6645 12.1548C72.1284 11.5166 71.4566 11.0164 70.6675 10.6676C69.8792 10.3191 68.9927 10.1415 68.0337 10.1415C66.8582 10.1415 65.7979 10.4084 64.8811 10.9345C63.9622 11.4623 63.2329 12.1953 62.713 13.1146C62.1929 14.0331 61.9294 15.0991 61.9294 16.2819C61.9294 17.4647 62.1852 18.6009 62.6892 19.5336C63.1946 20.4694 63.9211 21.2032 64.8484 21.7167C65.7738 22.2273 66.8607 22.4865 68.079 22.4865C69.5745 22.4865 70.8439 22.1105 71.8531 21.3683C72.8249 20.6543 73.4933 19.647 73.8574 18.3861H70.4477C70.2684 18.8151 70.0156 19.1804 69.6538 19.4378C69.2261 19.7414 68.6737 19.8953 68.0114 19.8953C67.437 19.8953 66.9449 19.7556 66.5488 19.4805C66.1508 19.2054 65.8467 18.7987 65.6471 18.2706C65.5273 17.9566 65.4423 17.5957 65.3923 17.1942H73.917L73.9337 17.0881C74.0859 16.1261 74.0476 15.2145 73.8182 14.3789C73.5883 13.541 73.2003 12.7929 72.6646 12.1547L72.6645 12.1548ZM65.4461 14.9858C65.4982 14.743 65.5685 14.4903 65.6578 14.2601C65.8657 13.7249 66.1657 13.3131 66.5503 13.038C66.9333 12.7629 67.4098 12.624 67.9669 12.624C68.6651 12.624 69.2381 12.8504 69.6702 13.2959C70.0798 13.7197 70.3122 14.2988 70.3618 14.9858H65.4464L65.4461 14.9858ZM39.2141 10.361H35.8273V22.2901H39.2141V10.361ZM32.0517 13.9419C32.6712 13.59 33.1676 13.1519 33.529 12.6353C33.9408 12.0471 34.1499 11.3753 34.1499 10.6396C34.1499 9.26234 33.635 8.18725 32.6203 7.44397C31.6178 6.70919 30.2384 6.33705 28.5191 6.33705H22.3023V22.2904H28.7675C30.5781 22.2904 32.0279 21.8694 33.0761 21.0385C34.1327 20.2007 34.669 19.0274 34.669 17.5505C34.669 16.6514 34.4167 15.8778 33.92 15.2516C33.4742 14.6919 32.8466 14.2517 32.052 13.9416L32.0517 13.9419ZM25.6666 9.21238H28.2488C29.0586 9.21238 29.67 9.36934 30.0672 9.6781C30.4596 9.98297 30.6502 10.3836 30.6502 10.9023C30.6502 11.4211 30.4596 11.8419 30.0672 12.1481C29.67 12.4568 29.0586 12.6138 28.2488 12.6138H25.6666V9.21238ZM30.5278 18.8746C30.0801 19.2333 29.3967 19.4148 28.4967 19.4148H25.6666V15.5107H28.4967C29.3961 15.5107 30.0804 15.6862 30.5297 16.0307C30.9752 16.3744 31.1917 16.828 31.1917 17.4192C31.1917 18.041 30.9744 18.517 30.5277 18.8749L30.5278 18.8746Z" fill="white"/>
</g>
</svg>
