<svg viewBox="0 0 70 28" fill="none" xmlns="http://www.w3.org/2000/svg">
<g clip-path="url(#clip0_3298_5379)">
<path d="M49.3867 18.9457V1.19141H52.9554V18.9457H49.3867Z" fill="#F7A600"/>
<path d="M7.79609 24.2196H0.145508V6.46533H7.48844C11.0572 6.46533 13.1366 8.41028 13.1366 11.4526C13.1366 13.422 11.8011 14.6946 10.8767 15.1183C11.9801 15.6168 13.3924 16.7387 13.3924 19.1087C13.3924 22.4241 11.0572 24.2196 7.79609 24.2196ZM7.20598 9.55794H3.71419V13.6474H7.20598C8.72047 13.6474 9.56787 12.8244 9.56787 11.602C9.56787 10.381 8.72047 9.55794 7.20598 9.55794ZM7.43671 16.7645H3.71419V21.1283H7.43671C9.05463 21.1283 9.82374 20.1315 9.82374 18.9335C9.82374 17.737 9.0532 16.7645 7.43671 16.7645Z" fill="white"/>
<path d="M24.277 16.9383V24.2196H20.7335V16.9383L15.2393 6.46533H19.1156L22.5304 13.6216L25.8936 6.46533H29.7699L24.277 16.9383Z" fill="white"/>
<path d="M39.8869 24.2196H32.2363V6.46533H39.5793C43.148 6.46533 45.2274 8.41028 45.2274 11.4526C45.2274 13.422 43.8919 14.6946 42.9676 15.1183C44.0709 15.6168 45.4833 16.7387 45.4833 19.1087C45.4833 22.4241 43.148 24.2196 39.8869 24.2196ZM39.2968 9.55794H35.805V13.6474H39.2968C40.8113 13.6474 41.6587 12.8244 41.6587 11.602C41.6587 10.381 40.8113 9.55794 39.2968 9.55794ZM39.5275 16.7645H35.805V21.1283H39.5275C41.1455 21.1283 41.9146 20.1315 41.9146 18.9335C41.9146 17.737 41.1455 16.7645 39.5275 16.7645Z" fill="white"/>
<path d="M64.4575 9.55794V24.2209H60.8888V9.55794H56.1133V6.46533H69.233V9.55794H64.4575Z" fill="white"/>
</g>
<defs>
<clipPath id="clip0_3298_5379">
<rect width="69.0882" height="27" fill="white" transform="translate(0.145508 0.809082)"/>
</clipPath>
</defs>
</svg>
