<svg width="78" height="16" viewBox="0 0 78 16" fill="none" xmlns="http://www.w3.org/2000/svg">
<g id="CoinDesk_logo 1" clip-path="url(#clip0_5187_15529)">
<path id="Vector" d="M22.0002 11.1834C20.5852 11.1834 19.7084 9.88182 19.7084 8.08103C19.7084 6.29809 20.4463 4.96979 21.9914 4.96979C23.0071 4.96979 23.6755 5.6384 23.7972 6.52095H26.1584C26.0367 5.42444 25.5593 4.46166 24.726 3.8198C24.0489 3.28491 23.1113 2.95508 22.0002 2.95508C19.1528 2.95508 17.3037 5.16592 17.3037 8.08103C17.3037 11.014 19.2135 13.1624 22.0176 13.1624C23.363 13.1624 24.344 12.7791 25.0732 12.0481C25.7242 11.4062 26.1584 10.5147 26.2191 9.54306H23.8578C23.7538 10.4969 23.0592 11.1834 22.0002 11.1834Z" fill="white"/>
<path id="Vector_2" d="M30.5678 5.74561C28.3802 5.74561 26.9131 7.35026 26.9131 9.46305C26.9131 11.5758 28.3802 13.1805 30.5678 13.1805C32.7727 13.1805 34.2138 11.5758 34.2138 9.46305C34.2138 7.35026 32.7727 5.74561 30.5678 5.74561ZM30.5591 11.5847C29.6128 11.5847 29.118 10.7379 29.118 9.46305C29.118 8.18824 29.6128 7.32352 30.5591 7.32352C31.5054 7.32352 32.0174 8.18824 32.0174 9.46305C32.0089 10.7379 31.5054 11.5847 30.5591 11.5847Z" fill="white"/>
<path id="Vector_3" d="M37.3105 4.99895C37.775 4.522 37.775 3.74872 37.3105 3.27177C36.8459 2.79483 36.093 2.79483 35.6286 3.27177C35.1642 3.74872 35.1642 4.522 35.6286 4.99895C36.093 5.4759 36.8459 5.4759 37.3105 4.99895Z" fill="white"/>
<path id="Vector_4" d="M34.5693 7.51077H35.4807V12.9577H37.6511V5.93286H34.5693V7.51077Z" fill="white"/>
<path id="Vector_5" d="M42.9939 5.72852C42.0478 5.72852 41.3879 6.13859 40.8845 6.89634H40.8411V5.93356H38.749V12.9494H40.9279V9.07153C40.9279 8.20681 41.4053 7.5917 42.1259 7.5917C42.8377 7.5917 43.1937 8.09982 43.1937 8.83976V12.9494H45.3726V8.38511C45.3726 6.82503 44.4871 5.72852 42.9939 5.72852Z" fill="white"/>
<path id="Vector_6" d="M50.4687 3.15088H46.3975V12.9482H50.3213C51.5192 12.9482 52.4828 12.6362 53.2295 12.0567C54.2972 11.2187 54.8874 9.83693 54.8874 8.10747C54.8874 5.11211 53.1078 3.15088 50.4687 3.15088ZM50.1477 10.9156H48.7587V5.18344H50.1737C51.6582 5.18344 52.5002 6.33343 52.5002 8.11639C52.4915 9.90824 51.6929 10.9156 50.1477 10.9156Z" fill="white"/>
<path id="Vector_7" d="M61.3414 6.6544C60.7512 6.11061 59.9785 5.78076 59.0063 5.78076C56.9227 5.78076 55.499 7.3854 55.499 9.48037C55.499 11.6021 56.888 13.2067 59.1452 13.2067C60.0132 13.2067 60.7076 12.9749 61.2807 12.5649C61.8796 12.137 62.2789 11.5397 62.4266 10.9067H60.3083C60.1174 11.3436 59.7441 11.6021 59.1712 11.6021C58.277 11.6021 57.7735 11.0137 57.6345 10.0687H62.548C62.5568 8.63346 62.1574 7.42106 61.3414 6.6544ZM57.6433 8.73154C57.7909 7.89355 58.2162 7.35867 59.041 7.35867C59.7441 7.35867 60.2564 7.89355 60.3344 8.73154H57.6433Z" fill="white"/>
<path id="Vector_8" d="M66.842 8.56277C65.9739 8.40231 65.2014 8.33098 65.2014 7.84067C65.2014 7.40385 65.6179 7.1988 66.1475 7.1988C66.7465 7.1988 67.1633 7.39493 67.2414 8.01896H69.2467C69.1424 6.63718 68.1008 5.77246 66.1649 5.77246C64.5502 5.77246 63.2133 6.53913 63.2133 8.01896C63.2133 9.66818 64.4808 9.98911 65.6701 10.1942C66.5816 10.3546 67.4062 10.426 67.4062 11.0589C67.4062 11.5135 66.9897 11.7542 66.3385 11.7542C65.6179 11.7542 65.1665 11.4155 65.0797 10.7112H63.0225C63.0918 12.2624 64.3419 13.2073 66.3472 13.2073C68.1355 13.2073 69.455 12.4139 69.455 10.8806C69.4637 9.08873 68.0487 8.7678 66.842 8.56277Z" fill="white"/>
<path id="Vector_9" d="M74.5835 8.57104L76.9881 5.93227H74.4792L72.4479 8.3036V3.15088H70.3037V12.9571H72.4479V10.7997L73.1077 10.0865L74.7483 12.9571H77.2659L74.5835 8.57104Z" fill="white"/>
<path id="Vector_10" d="M7.73691 8.7315C8.10129 8.7315 8.39666 8.42816 8.39666 8.05397C8.39666 7.67978 8.10129 7.37646 7.73691 7.37646C7.37254 7.37646 7.07715 7.67978 7.07715 8.05397C7.07715 8.42816 7.37254 8.7315 7.73691 8.7315Z" fill="white"/>
<path id="Vector_11" d="M12.9869 8.7315C13.3513 8.7315 13.6467 8.42816 13.6467 8.05397C13.6467 7.67978 13.3513 7.37646 12.9869 7.37646C12.6225 7.37646 12.3271 7.67978 12.3271 8.05397C12.3271 8.42816 12.6225 8.7315 12.9869 8.7315Z" fill="white"/>
<path id="Vector_12" d="M12.9869 14.1431C13.3513 14.1431 13.6467 13.8398 13.6467 13.4656C13.6467 13.0914 13.3513 12.7881 12.9869 12.7881C12.6225 12.7881 12.3271 13.0914 12.3271 13.4656C12.3271 13.8398 12.6225 14.1431 12.9869 14.1431Z" fill="white"/>
<path id="Vector_13" d="M14.9255 2.51836C14.856 1.52882 14.0834 0.7265 13.1198 0.655182C12.5035 0.610609 11.9479 0.851306 11.5572 1.26138C11.2621 1.5734 10.8628 1.76061 10.4374 1.76061H10.2811C9.84708 1.76061 9.43906 1.5734 9.13522 1.25247C8.7793 0.878049 8.28448 0.655182 7.73759 0.655182C7.19067 0.655182 6.69585 0.886965 6.33993 1.25247C6.03609 1.5734 5.62809 1.76061 5.19403 1.76061H5.04645C4.6211 1.76061 4.21308 1.59123 3.91792 1.27921C3.85716 1.21681 3.79638 1.15441 3.73562 1.10092C2.99774 0.485803 1.9126 0.503632 1.20076 1.15441C0.341334 1.92999 0.30661 3.28503 1.10527 4.10517C1.11395 4.11409 1.12263 4.123 1.13131 4.13192C1.44383 4.43502 1.60877 4.86294 1.60877 5.29976V5.45131C1.60877 5.89704 1.42646 6.31603 1.11395 6.62805C0.749343 6.99356 0.532317 7.50168 0.532317 8.06332C0.532317 8.62494 0.758025 9.13309 1.11395 9.4986C1.42646 9.81062 1.60877 10.2296 1.60877 10.6753V10.8804C1.60877 11.3172 1.42646 11.7273 1.12263 12.0304C0.740663 12.4137 0.506274 12.9575 0.532317 13.5548C0.575723 14.6067 1.4091 15.4536 2.42478 15.4893C3.0151 15.5071 3.54464 15.2664 3.91792 14.8653C4.21308 14.5532 4.6124 14.3571 5.03777 14.3571H5.20271C5.62809 14.3571 6.02741 14.5443 6.32257 14.8653C6.71321 15.2842 7.27749 15.5249 7.89385 15.4804C8.85742 15.4091 9.63872 14.6067 9.70818 13.6083C9.7863 12.4226 8.88348 11.442 7.74627 11.442C7.20803 11.442 6.71321 11.6649 6.35729 12.0304C6.05345 12.3424 5.64545 12.5296 5.22007 12.5296H5.03777C4.6124 12.5296 4.19572 12.3602 3.89188 12.0393C3.8832 12.0304 3.8832 12.0304 3.87452 12.0215C3.562 11.7094 3.3797 11.2905 3.3797 10.8447V10.6664C3.3797 10.2207 3.562 9.8017 3.87452 9.48969C4.23912 9.12417 4.45616 8.61603 4.45616 8.05441C4.45616 7.49279 4.23044 6.98464 3.87452 6.61913C3.562 6.30712 3.3797 5.88813 3.3797 5.44239V5.28193C3.3797 4.83619 3.562 4.41719 3.86584 4.10517C3.87452 4.09628 3.87452 4.09628 3.8832 4.08736C3.89188 4.07844 3.89188 4.07844 3.90056 4.06953C4.2044 3.75751 4.6124 3.5703 5.04645 3.5703H5.20271C5.63677 3.5703 6.04477 3.75751 6.34861 4.07844C6.70453 4.45285 7.19935 4.67573 7.74627 4.67573C8.29316 4.67573 8.78798 4.44394 9.1439 4.07844C9.44774 3.75751 9.85576 3.5703 10.2898 3.5703H10.4287C10.8628 3.5703 11.2708 3.75751 11.5746 4.07844C11.9305 4.45285 12.4253 4.67573 12.9723 4.67573C14.1008 4.68464 15.0036 3.70402 14.9255 2.51836Z" fill="white"/>
</g>
<defs>
<clipPath id="clip0_5187_15529">
<rect width="76.7251" height="14.8929" fill="white" transform="translate(0.530273 0.650391)"/>
</clipPath>
</defs>
</svg>
