<svg  viewBox="0 0 280 125" fill="none" xmlns="http://www.w3.org/2000/svg">
<path d="M65.9715 8.95308C72.9932 8.95308 80.1804 15.7756 76.6836 21.3591C58.0793 47.4872 50.7793 56.6916 52.413 58.5114C71.5306 79.7948 75.9241 84.8989 80.4286 89.9147C84.5081 94.4568 91.5525 103.706 86.4709 111.324C84.5589 114.191 82.0566 116.359 78.8475 116.359C75.9881 116.359 72.5684 114.638 68.5001 110.158C59.7581 100.529 36.685 67.8098 34.8991 67.8098C34.8182 67.8098 34.7806 67.8775 34.79 68.0185C35.6492 79.6895 36.1417 80.3155 37.1137 93.5224C37.1137 99.4237 31.2895 105.176 26.2906 105.176C23.7865 105.176 21.4891 103.735 20.2352 100.144C14.3809 83.3949 7.13165 47.3161 8.91763 29.1817C9.52675 22.9891 18.1258 18.9151 24.6005 18.9151C28.3586 18.9151 31.4023 20.2894 31.7482 23.4177C33.6282 33.3064 33.7955 51.2378 34.1753 51.2378C34.1865 51.2378 34.1997 51.2208 34.211 51.187C38.0405 40.347 41.2873 34.9401 51.5351 20.7444C53.3774 18.5673 56.8479 13.0402 60.7113 10.4834C62.3262 9.41556 64.1423 8.95308 65.9715 8.95308ZM65.9715 0.869141C62.4521 0.869141 59.0907 1.86365 56.2501 3.74176C52.1799 6.43578 49.029 10.6582 46.7279 13.7414C46.1809 14.4727 45.6657 15.1646 45.3649 15.5199L45.1638 15.7586L44.9814 16.0124C43.0845 18.6407 41.4095 20.9906 39.913 23.1489C39.8566 22.8124 39.7983 22.4815 39.7381 22.1562C39.4655 20.1973 38.7699 18.3963 37.6664 16.7983C36.5967 15.251 35.1923 13.967 33.4928 12.9875C31.0094 11.555 28.0164 10.8293 24.6005 10.8293C19.8404 10.8293 14.6817 12.2637 10.4479 14.7641C4.81174 18.0955 1.40897 22.9327 0.873171 28.3884C-0.249182 39.7792 1.81692 55.4358 3.74767 66.5634C6.06381 79.917 9.45907 93.8063 12.6062 102.811C13.7266 106.019 15.4901 108.57 17.8438 110.395C20.2615 112.27 23.183 113.26 26.2925 113.26C30.9229 113.26 35.7075 111.033 39.4223 107.149C43.0657 103.338 45.1675 98.4198 45.2014 93.6333C51.8095 102.383 58.4271 111.085 62.5179 115.592C65.0653 118.397 67.545 120.476 70.0981 121.944C72.9782 123.6 75.9222 124.441 78.8494 124.441C82.0247 124.441 85.1304 123.424 87.8338 121.502C89.8116 120.096 91.6164 118.18 93.1974 115.81C95.2936 112.666 96.3483 109.153 96.3295 105.364C96.3163 102.434 95.6396 99.3805 94.3217 96.2916C92.6974 92.4866 90.0466 88.5217 86.4445 84.5117C84.9913 82.8949 83.5644 81.2818 81.5866 79.0503C77.8511 74.8335 72.3728 68.6483 61.6212 56.6634C62.1344 55.8531 62.8112 54.8229 63.7023 53.5144C66.0899 50.0139 69.5171 45.2406 73.858 39.1964C76.6103 35.365 79.7273 31.0241 83.2711 26.0459L83.4102 25.8504L83.5381 25.6474C84.9969 23.3181 85.7377 20.6654 85.6813 17.9751C85.6324 15.6026 84.9875 13.2808 83.7655 11.0737C82.1206 8.10333 79.5412 5.55219 76.3076 3.69476C73.0797 1.84861 69.5059 0.869141 65.9715 0.869141Z" fill="black"/>
<path d="M72.8506 47.5869C79.9099 47.5869 82.4987 56.3739 77.7329 62.294C75.6292 64.1082 73.5819 64.864 71.7508 64.864C64.5129 64.864 60.6777 53.0351 70.322 47.9328C71.2188 47.6978 72.061 47.5869 72.8506 47.5869ZM72.8506 39.5029C71.3504 39.5029 69.8088 39.7078 68.2672 40.1139L67.3648 40.3508L66.5414 40.787C62.5708 42.8869 59.5948 45.987 57.931 49.7507C56.4026 53.208 56.0661 57.1372 56.9779 60.8163C57.7881 64.0762 59.4876 66.9489 61.8959 69.1202C64.6313 71.5887 68.1318 72.9479 71.7489 72.9479C75.6781 72.9479 79.5734 71.38 83.0119 68.4153L83.5684 67.9359L84.029 67.3643C88.509 61.8015 89.5129 54.2589 86.5895 48.149C85.3751 45.611 83.5289 43.4753 81.2541 41.9751C78.8045 40.3583 75.8981 39.5048 72.8506 39.5048V39.5029Z" fill="black"/>
<path d="M173.484 8.95301C183.576 8.95301 194.217 14.1117 201.816 26.7659C218.986 54.8548 192.967 88.0253 162.782 88.0253C148.182 88.0253 132.608 80.2647 120.476 60.4177C118.297 71.1317 115.511 76.1306 112.135 76.1306C108.758 76.1306 104.683 70.9869 100.067 61.446C99.7983 66.9901 102.645 82.4473 97.4521 85.3181C96.4181 85.8783 95.4367 86.1265 94.5174 86.1265C89.9566 86.1265 86.926 80.0146 86.5482 75.5572C83.8974 61.3144 81.726 38.3447 84.2696 30.9113C86.394 25.1378 88.8267 22.8442 91.3365 22.8461C100.161 22.8499 109.915 51.217 110.326 56.4415C110.871 46.5847 113.236 34.8085 118.096 26.905C120.476 22.4062 124.248 20.0525 127.5 20.0525C131.354 20.0525 134.478 23.3594 133.698 30.3228C133.132 48.5531 138.485 70.7313 162.28 70.7313C163.043 70.7313 163.827 70.7087 164.63 70.6617C177.549 70.6617 195.663 51.326 183.463 36.2034C180.963 32.5393 176.882 30.9564 173.084 30.9564C166.277 30.9564 160.387 36.0436 166.181 43.3436C173.272 52.1344 168.489 57.9455 161.475 57.9455C155.504 57.9455 147.917 53.7305 144.666 43.5561C139.989 24.5983 155.908 8.95113 173.484 8.95113M173.484 0.867188C161.725 0.867188 150.406 6.35487 143.203 15.5499C142.072 16.9937 141.066 18.4977 140.186 20.0562C139.49 18.5992 138.663 17.4468 137.87 16.5594C135.223 13.5985 131.54 11.9685 127.5 11.9685C121.01 11.9685 114.74 16.144 111.08 22.8837C110.069 24.5513 109.132 26.373 108.275 28.3376C106.967 26.0402 105.645 24.0418 104.316 22.3573C100.343 17.319 95.9782 14.7641 91.3384 14.7622C88.8154 14.7622 85.0987 15.5405 81.6978 19.2516C79.7276 21.4004 78.0863 24.3012 76.682 28.1214L76.65 28.2078L76.6199 28.2962C75.7439 30.8549 75.2476 34.2764 75.1009 38.7546C74.9844 42.2852 75.084 46.4776 75.3961 51.2114C75.9356 59.4175 77.1069 68.9077 78.5375 76.6852C78.9192 80.2553 80.2483 83.9758 82.2167 86.9631C83.5195 88.9371 85.0648 90.5501 86.8114 91.7552C89.1388 93.3607 91.8046 94.2104 94.5193 94.2104C96.8354 94.2104 99.1159 93.6107 101.302 92.4282L101.334 92.4113L101.366 92.3944C103.171 91.3961 105.639 89.377 107.145 85.429C107.39 84.7861 107.606 84.1074 107.79 83.3911C109.206 83.9401 110.661 84.2164 112.137 84.2164C114.872 84.2164 117.489 83.2482 119.707 81.4171C120.984 80.3624 122.108 79.0502 123.121 77.4278C127.239 81.9153 131.707 85.6396 136.492 88.5648C140.639 91.0991 145.029 93.0242 149.541 94.2894C153.855 95.4982 158.313 96.1111 162.785 96.1111C172.225 96.1111 181.653 93.3945 190.051 88.2546C198.116 83.3178 204.758 76.4671 209.257 68.4433C213.16 61.4855 215.275 53.8227 215.376 46.2877C215.431 42.2438 214.914 38.2113 213.84 34.3046C212.727 30.2551 211.009 26.3091 208.73 22.5773C204.421 15.4126 199.026 9.88737 192.692 6.15371C186.83 2.6983 180.19 0.872827 173.486 0.872827L173.484 0.867188ZM173.075 39.0403H173.082C173.842 39.0403 175.725 39.2076 176.784 40.7586L176.966 41.0256L177.169 41.2775C178.134 42.4732 181.066 46.1091 178.164 52.1777C178.002 52.518 177.827 52.8526 177.639 53.1816C177.872 51.3392 177.756 49.4141 177.286 47.4702C176.607 44.6652 175.191 41.834 173.073 39.0403H173.075Z" fill="black"/>
<path d="M223.543 18.3095C226.551 18.3095 229.66 19.7928 231.766 22.3647C234.411 25.4629 235.509 29.5763 237 33.4039C240.196 41.6063 243.728 51.104 247.116 57.9942C248.111 49.0511 248.928 42.0162 249.765 30.8302C250.628 23.0753 255.354 19.8737 260.144 19.8737C265.604 19.8737 271.15 24.0303 271.159 30.3452C272.129 52.311 271.048 68.7533 266.346 76.6643C263.844 80.2514 260.934 81.7403 257.87 81.7403C246.922 81.7403 234.02 62.7336 230.867 52.4952C231.005 65.3393 235.391 86.8482 223.716 86.8482C222.693 86.8482 221.545 86.6828 220.262 86.3312C210.065 82.1783 213.814 42.223 213.949 30.7024C214.137 30.6479 214.543 25.2185 216.235 22.5752C217.969 19.6236 220.712 18.3114 223.543 18.3114M223.543 10.2275C220.723 10.2275 217.961 10.9325 215.555 12.2673C213.032 13.666 210.885 15.7697 209.338 18.3547C208.225 20.1406 207.503 22.1879 206.984 24.3048L205.935 24.6094L205.865 30.6046C205.845 32.3154 205.732 34.8497 205.602 37.7862C205.236 46.0581 204.732 57.3869 205.427 67.4618C205.839 73.4345 206.617 78.1852 207.804 81.9809C209.706 88.0665 212.872 92.0464 217.213 93.8155L217.662 93.9978L218.13 94.1256C220.078 94.6577 221.958 94.9284 223.716 94.9284C228.023 94.9284 231.775 93.3492 234.565 90.3638C237.049 87.7055 238.442 84.2971 239.171 80.4544C241.055 82.3231 242.959 83.9267 244.866 85.2502C249.239 88.2845 253.613 89.8224 257.87 89.8224C260.885 89.8224 263.739 89.0572 266.356 87.5495C268.856 86.1075 271.084 84 272.977 81.2872L273.146 81.0466L273.297 80.7928C278.555 71.9437 280.39 56.3191 279.241 30.1384C279.181 24.9346 276.985 20.1632 273.047 16.6833C269.526 13.5738 264.824 11.7897 260.144 11.7897C255.465 11.7897 251.226 13.478 247.953 16.5442C245.492 18.8491 243.693 21.8589 242.64 25.3933C241.561 22.6598 240.188 19.8004 237.966 17.1778C234.37 12.8237 228.984 10.2256 223.543 10.2256V10.2275Z" fill="black"/>
<path fill-rule="evenodd" clip-rule="evenodd" d="M67.2864 34.4857C55.6275 50.7197 51.0895 57.0383 52.4128 58.5108L52.409 58.509C65.254 72.809 71.4519 79.8061 75.5026 84.379L75.5034 84.38L75.5037 84.3803L75.5046 84.3813L75.5093 84.3865C77.484 86.6158 78.9483 88.269 80.4246 89.9123C84.5042 94.4543 91.5485 103.704 86.4669 111.322C82.8498 116.742 77.129 119.663 68.498 110.156C64.3361 105.572 56.9263 95.754 50.1117 86.7246C41.9599 75.9234 34.6598 66.2507 34.7898 68.016C35.206 73.6703 35.5362 76.7322 35.8766 79.8882L35.8766 79.8883L35.8766 79.8884C36.2388 83.2466 36.6124 86.7115 37.1135 93.5199C37.1154 102.378 23.9949 110.9 20.2349 100.143C14.3807 83.3943 7.13144 47.3174 8.91742 29.1812C9.87998 19.3939 30.8042 14.8989 31.748 23.419C32.9806 29.9064 33.4766 39.8555 33.7795 45.9321C33.9525 49.4014 34.0625 51.6085 34.2108 51.1883C38.0422 40.3483 41.2889 34.9414 51.5349 20.7457C51.9961 20.2006 52.5595 19.4455 53.2054 18.5797C55.1396 15.9872 57.815 12.4013 60.7111 10.4847C68.5224 5.31472 81.092 14.3199 76.6834 21.3585C73.1484 26.3235 70.0215 30.6774 67.2864 34.4857ZM70.3216 47.9321C58.2352 54.3259 67.3155 71.2778 77.7325 62.2933C83.0303 55.7134 79.2384 45.5877 70.3216 47.9321ZM144.664 43.5575C151.731 65.683 179.304 59.6201 166.176 43.345C157.151 31.9749 176.477 25.9702 183.459 36.2048C195.658 51.3274 177.545 70.6631 164.625 70.6631C138.834 72.1615 133.111 49.1373 133.696 30.3242C135.136 17.4858 123.298 17.0778 118.096 26.9064C113.236 34.8099 110.871 46.5861 110.326 56.4429C109.799 49.7351 93.8608 4.84289 84.2691 30.9146C81.7274 38.348 83.8969 61.3177 86.5477 75.5605C87.0007 80.9147 91.2852 88.6602 97.4516 85.3214C101.319 83.1824 100.726 74.0555 100.283 67.2483C100.132 64.9196 99.9981 62.8624 100.067 61.4493C109.233 80.4033 116.086 81.9957 120.476 60.4209C157.694 121.304 227.291 68.4429 201.815 26.7692C180.979 -7.92034 137.302 13.7183 144.666 43.5612L144.664 43.5575ZM249.766 30.8298C251.613 14.239 271.144 18.4915 271.161 30.3448L271.163 30.3429C272.133 52.3087 271.05 68.7511 266.35 76.662C254.912 93.0649 234.907 65.5964 230.871 52.4929C230.898 55.0677 231.096 57.9907 231.301 61.0187C232.209 74.4202 233.257 89.8805 220.264 86.3289C211.697 82.84 212.973 54.0809 213.68 38.1432C213.815 35.1104 213.929 32.5419 213.951 30.7001C214.002 30.6852 214.07 30.2685 214.175 29.6168C214.456 27.8849 215.006 24.4935 216.237 22.5729C219.814 16.4855 227.68 17.3691 231.767 22.3643C233.868 24.8246 234.993 27.9252 236.113 31.0145C236.404 31.8154 236.694 32.6155 237.001 33.4035C237.509 34.708 238.026 36.0451 238.549 37.3993C241.317 44.562 244.268 52.2007 247.117 57.9938C247.193 57.3189 247.267 56.6549 247.34 55.9992C248.235 47.9656 248.993 41.1734 249.766 30.8298Z" fill="url(#paint0_linear_3070_9228)"/>
<path d="M76.738 35.7539H72.2637V41.533H76.738V35.7539Z" fill="black"/>
<path d="M80.0925 70.4248H74.6875V75.8298H80.0925V70.4248Z" fill="black"/>
<path d="M181.867 36.6846H171.802V54.206H181.867V36.6846Z" fill="black"/>
<defs>
<linearGradient id="paint0_linear_3070_9228" x1="140.065" y1="8.95312" x2="140.065" y2="116.356" gradientUnits="userSpaceOnUse">
<stop stop-color="#FF8F7E"/>
<stop offset="1" stop-color="#F231AF"/>
</linearGradient>
</defs>
</svg>
