<svg width="161" height="39" viewBox="0 0 161 39" fill="none" xmlns="http://www.w3.org/2000/svg">
<g clip-path="url(#clip0_2397_33292)">
<mask id="mask0_2397_33292" style="mask-type:luminance" maskUnits="userSpaceOnUse" x="-1" y="0" width="161" height="39">
<path d="M159.165 0.628906H-0.0078125V38.1578H159.165V0.628906Z" fill="white"/>
</mask>
<g mask="url(#mask0_2397_33292)">
<mask id="mask1_2397_33292" style="mask-type:luminance" maskUnits="userSpaceOnUse" x="-1" y="0" width="50" height="39">
<path d="M48.7719 0.628906H-0.015625V38.1578H48.7719V0.628906Z" fill="white"/>
</mask>
<g mask="url(#mask1_2397_33292)">
<path d="M24.7829 6.49343C21.187 1.16582 13.8352 -0.858335 8.00469 1.83914C5.17888 3.13106 2.837 5.54237 1.53666 8.28823C0.436214 10.7753 -0.112959 13.5485 -0.00144122 16.2775C0.162679 10.7795 4.41297 5.56551 9.80371 5.12996C13.9488 4.7954 17.6057 7.01104 19.2322 10.9752C20.0066 12.8626 20.5157 16.0587 20.5536 16.2734C20.5473 16.2649 20.541 16.2544 20.5367 16.246C20.5936 16.3722 20.6483 16.49 20.703 16.591C22.2054 19.6062 26.8028 18.5226 27.0511 15.1056C27.2763 12.0883 26.5146 9.03098 24.785 6.49343H24.7829Z" fill="url(#paint0_radial_2397_33292)"/>
<path d="M24.7829 6.49343C21.187 1.16582 13.8352 -0.858335 8.00469 1.83914C5.17888 3.13106 2.837 5.54237 1.53666 8.28823C0.436214 10.7753 -0.112959 13.5485 -0.00144122 16.2775C0.162679 10.7795 4.41297 5.56551 9.80371 5.12996C13.9488 4.7954 17.6057 7.01104 19.2322 10.9752C20.0066 12.8626 20.5157 16.0587 20.5536 16.2734C20.5473 16.2649 20.541 16.2544 20.5367 16.246C20.5936 16.3722 20.6483 16.49 20.703 16.591C22.2054 19.6062 26.8028 18.5226 27.0511 15.1056C27.2763 12.0883 26.5146 9.03098 24.785 6.49343H24.7829Z" fill="url(#paint1_radial_2397_33292)"/>
<path d="M44.1346 5.16779C42.9141 3.77277 41.4076 2.6071 39.7264 1.8391C34.2536 -0.692145 27.4426 0.936433 23.6532 5.54864C22.3528 7.00468 21.3659 8.74689 20.8399 10.71C20.3833 12.2923 20.3243 13.9441 20.4675 15.56C20.8778 19.5683 26.1633 19.7283 27.1565 16.3364C27.1627 16.3238 27.1691 16.309 27.1754 16.2943C27.3037 15.5158 27.7519 13.1614 28.1854 12.0882C28.362 11.6527 28.1854 12.0861 28.1854 12.0861C29.8182 7.55175 33.5361 5.13413 36.8942 5.13413C43.5601 4.82483 49.5989 13.4832 47.8335 21.4494C47.8483 21.4389 48.0945 20.3553 48.1071 20.3069C48.2859 19.4042 48.4101 18.4785 48.469 17.5316C48.7067 13.1276 47.1665 8.446 44.1387 5.17201L44.1346 5.16779Z" fill="url(#paint2_radial_2397_33292)"/>
<path d="M44.1346 5.16779C42.9141 3.77277 41.4076 2.6071 39.7264 1.8391C34.2536 -0.692145 27.4426 0.936433 23.6532 5.54864C22.3528 7.00468 21.3659 8.74689 20.8399 10.71C20.3833 12.2923 20.3243 13.9441 20.4675 15.56C20.8778 19.5683 26.1633 19.7283 27.1565 16.3364C27.1627 16.3238 27.1691 16.309 27.1754 16.2943C27.3037 15.5158 27.7519 13.1614 28.1854 12.0882C28.362 11.6527 28.1854 12.0861 28.1854 12.0861C29.8182 7.55175 33.5361 5.13413 36.8942 5.13413C43.5601 4.82483 49.5989 13.4832 47.8335 21.4494C47.8483 21.4389 48.0945 20.3553 48.1071 20.3069C48.2859 19.4042 48.4101 18.4785 48.469 17.5316C48.7067 13.1276 47.1665 8.446 44.1387 5.17201L44.1346 5.16779Z" fill="url(#paint3_radial_2397_33292)"/>
<path d="M9.80761 5.13034C2.9861 5.68162 -2.01328 13.8792 0.783088 20.6272C2.75885 26.6133 7.60251 31.2844 13.0669 34.1986C14.5271 34.9603 15.9074 33.115 14.9353 31.8525L14.3946 31.1581C12.3241 28.2693 10.2789 25.2057 9.10905 21.8644C6.85765 16.5051 9.54039 10.4664 13.8328 10.4664C17.4918 10.4664 18.7101 13.4605 20.6691 16.5199C20.6627 16.4883 20.608 16.3116 20.5785 16.1558C20.406 15.2511 19.8947 12.5852 19.234 10.9756C17.6076 7.0093 13.9507 4.79578 9.80551 5.13034H9.80761Z" fill="url(#paint4_radial_2397_33292)"/>
<path d="M9.80761 5.13034C2.9861 5.68162 -2.01328 13.8792 0.783088 20.6272C2.75885 26.6133 7.60251 31.2844 13.0669 34.1986C14.5271 34.9603 15.9074 33.115 14.9353 31.8525L14.3946 31.1581C12.3241 28.2693 10.2789 25.2057 9.10905 21.8644C6.85765 16.5051 9.54039 10.4664 13.8328 10.4664C17.4918 10.4664 18.7101 13.4605 20.6691 16.5199C20.6627 16.4883 20.608 16.3116 20.5785 16.1558C20.406 15.2511 19.8947 12.5852 19.234 10.9756C17.6076 7.0093 13.9507 4.79578 9.80551 5.13034H9.80761Z" fill="url(#paint5_radial_2397_33292)"/>
<path d="M36.8985 5.13016C33.5405 5.13016 29.8246 7.54778 28.1897 12.0821C28.1897 12.0821 28.3665 11.6487 28.1897 12.0842C27.7541 13.1574 27.308 15.5118 27.1797 16.2903C31.2806 4.72407 44.3787 12.1074 35.714 23.5264C34.2917 25.437 32.5178 27.2823 30.5947 28.6751C30.0181 29.0918 29.5174 29.6073 29.1366 30.209C26.1887 34.876 32.0402 40.8201 36.9932 36.8623C41.5361 33.2368 45.4813 28.5574 47.3855 23.0025C50.3923 14.6554 44.002 4.79981 36.8985 5.13016Z" fill="url(#paint6_radial_2397_33292)"/>
<path d="M36.8985 5.13016C33.5405 5.13016 29.8246 7.54778 28.1897 12.0821C28.1897 12.0821 28.3665 11.6487 28.1897 12.0842C27.7541 13.1574 27.308 15.5118 27.1797 16.2903C31.2806 4.72407 44.3787 12.1074 35.714 23.5264C34.2917 25.437 32.5178 27.2823 30.5947 28.6751C30.0181 29.0918 29.5174 29.6073 29.1366 30.209C26.1887 34.876 32.0402 40.8201 36.9932 36.8623C41.5361 33.2368 45.4813 28.5574 47.3855 23.0025C50.3923 14.6554 44.002 4.79981 36.8985 5.13016Z" fill="url(#paint7_radial_2397_33292)"/>
<path d="M48.4703 17.513C48.5629 15.491 48.2914 13.4542 47.6897 11.5269C47.09 9.59739 46.1579 7.77102 44.9143 6.18452C44.6051 5.78684 44.2663 5.41442 43.9255 5.04199C43.5846 4.66956 43.2269 4.31817 42.8481 3.98573C42.0907 3.32293 41.2617 2.7443 40.3759 2.27509C39.49 1.80587 38.5452 1.45027 37.5752 1.19778C36.6032 0.957911 35.6058 0.816936 34.6064 0.793791C32.6054 0.741188 30.5938 1.13676 28.759 1.93422C28.2982 2.1299 27.8522 2.35715 27.4187 2.60333C26.981 2.8453 26.5623 3.11884 26.152 3.40499C25.3419 3.99203 24.5908 4.65903 23.9343 5.42073C23.2547 6.16768 22.6424 6.96093 22.1416 7.83414C21.6387 8.70314 21.241 9.63315 20.9654 10.5989C20.6708 11.5626 20.5193 12.5621 20.4668 13.5679C20.4415 14.0708 20.4415 14.5778 20.4668 15.0828C20.4794 15.3354 20.492 15.5878 20.5257 15.8381C20.5615 16.0864 20.5909 16.341 20.6898 16.5767C20.5887 16.3431 20.553 16.0907 20.5131 15.8402C20.4752 15.5899 20.4583 15.3374 20.4415 15.0849C20.4078 14.5799 20.3973 14.0729 20.4141 13.5679C20.4458 12.5558 20.5909 11.5458 20.8812 10.5758C21.1527 9.59949 21.5461 8.65895 22.0469 7.77944C22.5435 6.89571 23.1578 6.08562 23.8354 5.33235C25.1505 3.79004 26.8401 2.58229 28.698 1.78062C30.5497 0.976848 32.5844 0.579171 34.6105 0.633878C35.6227 0.657024 36.6326 0.804311 37.6131 1.0547C38.5915 1.31561 39.5447 1.68172 40.4369 2.16146C41.329 2.64119 42.1622 3.23035 42.9218 3.90156C43.3005 4.23822 43.6604 4.59591 44.0011 4.97045C44.3399 5.34709 44.6788 5.72372 44.9859 6.1277C46.2252 7.73314 47.1468 9.57424 47.7318 11.5121C48.321 13.45 48.5777 15.4888 48.4703 17.5109V17.513Z" fill="url(#paint8_linear_2397_33292)"/>
<path d="M48.4703 17.513C48.5629 15.491 48.2914 13.4542 47.6897 11.5269C47.09 9.59739 46.1579 7.77102 44.9143 6.18452C44.6051 5.78684 44.2663 5.41442 43.9255 5.04199C43.5846 4.66956 43.2269 4.31817 42.8481 3.98573C42.0907 3.32293 41.2617 2.7443 40.3759 2.27509C39.49 1.80587 38.5452 1.45027 37.5752 1.19778C36.6032 0.957911 35.6058 0.816936 34.6064 0.793791C32.6054 0.741188 30.5938 1.13676 28.759 1.93422C28.2982 2.1299 27.8522 2.35715 27.4187 2.60333C26.981 2.8453 26.5623 3.11884 26.152 3.40499C25.3419 3.99203 24.5908 4.65903 23.9343 5.42073C23.2547 6.16768 22.6424 6.96093 22.1416 7.83414C21.6387 8.70314 21.241 9.63315 20.9654 10.5989C20.6708 11.5626 20.5193 12.5621 20.4668 13.5679C20.4415 14.0708 20.4415 14.5778 20.4668 15.0828C20.4794 15.3354 20.492 15.5878 20.5257 15.8381C20.5615 16.0864 20.5909 16.341 20.6898 16.5767C20.5887 16.3431 20.553 16.0907 20.5131 15.8402C20.4752 15.5899 20.4583 15.3374 20.4415 15.0849C20.4078 14.5799 20.3973 14.0729 20.4141 13.5679C20.4458 12.5558 20.5909 11.5458 20.8812 10.5758C21.1527 9.59949 21.5461 8.65895 22.0469 7.77944C22.5435 6.89571 23.1578 6.08562 23.8354 5.33235C25.1505 3.79004 26.8401 2.58229 28.698 1.78062C30.5497 0.976848 32.5844 0.579171 34.6105 0.633878C35.6227 0.657024 36.6326 0.804311 37.6131 1.0547C38.5915 1.31561 39.5447 1.68172 40.4369 2.16146C41.329 2.64119 42.1622 3.23035 42.9218 3.90156C43.3005 4.23822 43.6604 4.59591 44.0011 4.97045C44.3399 5.34709 44.6788 5.72372 44.9859 6.1277C46.2252 7.73314 47.1468 9.57424 47.7318 11.5121C48.321 13.45 48.5777 15.4888 48.4703 17.5109V17.513Z" fill="url(#paint9_linear_2397_33292)"/>
</g>
<mask id="mask2_2397_33292" style="mask-type:luminance" maskUnits="userSpaceOnUse" x="58" y="0" width="102" height="39">
<path d="M159.159 0.628906H58.4062V38.1578H159.159V0.628906Z" fill="white"/>
</mask>
<g mask="url(#mask2_2397_33292)">
<path d="M75.3001 14.8191C77.0297 14.8191 78.4184 15.3704 79.4641 16.4751C80.5099 17.5797 81.0317 19.0505 81.0317 20.8874V29.8867H76.5057V21.2682C76.5057 20.5255 76.3184 19.9384 75.9481 19.5092C75.5757 19.08 75.0371 18.8632 74.3343 18.8632C73.5894 18.8632 73.0109 19.1072 72.6006 19.5955C72.1881 20.0836 71.982 20.759 71.982 21.6176V29.8845H67.456V21.2662C67.456 20.5233 67.2687 19.9363 66.8984 19.5071C66.528 19.0778 65.9873 18.8611 65.2845 18.8611C64.5397 18.8611 63.961 19.1052 63.5507 19.5934C63.1383 20.0815 62.9321 20.7569 62.9321 21.6154V29.8824H58.4062V15.2253H62.9321V16.5739C63.757 15.3999 65.1035 14.8149 66.9741 14.8149C68.7247 14.8149 70.0398 15.4608 70.9256 16.7507C71.8515 15.4608 73.3096 14.8149 75.3001 14.8149" fill="#F0F8FF"/>
<path d="M96.6563 28.0559C98.2049 26.562 98.9792 24.7294 98.9792 22.5601C98.9792 20.3908 98.2049 18.558 96.6563 17.0641C95.1076 15.5702 93.2161 14.8232 90.9857 14.8232C88.7554 14.8232 86.8638 15.5702 85.3152 17.0641C83.7665 18.558 82.9922 20.3908 82.9922 22.5601C82.9922 24.7294 83.7665 26.562 85.3152 28.0559C86.8638 29.552 88.7554 30.299 90.9857 30.299C93.2161 30.299 95.1076 29.55 96.6563 28.0559ZM88.5113 25.0492C87.8485 24.4032 87.516 23.5721 87.516 22.5558C87.516 21.5395 87.8485 20.7084 88.5113 20.0645C89.1741 19.4208 89.999 19.0967 90.9857 19.0967C91.9726 19.0967 92.7974 19.4187 93.4601 20.0645C94.123 20.7105 94.4554 21.5395 94.4554 22.5558C94.4554 23.5721 94.123 24.4032 93.4601 25.0492C92.7952 25.6931 91.9726 26.015 90.9857 26.015C89.999 26.015 89.1741 25.6931 88.5113 25.0492Z" fill="#F0F8FF"/>
<path d="M100.875 29.8889V15.1517H105.443V18.7034C106.169 15.985 108.075 14.7793 109.889 14.7793C110.642 14.7793 111.461 14.8487 112.279 15.3411L110.968 19.8796C109.822 19.4378 109.167 19.442 108.618 19.442C106.804 19.442 105.685 20.4919 105.685 24.818V29.8889H100.875Z" fill="#F0F8FF"/>
<path d="M123.807 17.3379C123.891 16.5194 122.744 14.8803 119.312 14.8214C117.322 14.7877 115.622 15.5683 114.214 17.0622C112.806 18.5562 112.102 20.3889 112.102 22.5582C112.102 24.7275 112.806 26.5603 114.214 28.0542C115.622 29.5502 117.383 30.2971 119.312 30.2971C121.242 30.2971 123.234 29.6259 123.807 28.153V29.889H128.333V15.2317H123.807V17.3379ZM117.623 25.1673C116.96 24.5235 116.628 23.6523 116.628 22.5582C116.628 21.4641 116.96 20.5951 117.623 19.9491C118.288 19.3052 119.152 18.9833 120.217 18.9833C121.282 18.9833 122.149 19.3052 122.811 19.9491C123.474 20.5929 123.807 21.4641 123.807 22.5582C123.807 23.6523 123.476 24.5235 122.811 25.1673C122.147 25.8112 121.284 26.1331 120.217 26.1331C119.15 26.1331 118.286 25.8112 117.623 25.1673Z" fill="#F0F8FF"/>
<path d="M136.198 8.48779H131.672V29.8866H136.198V8.48779Z" fill="#F0F8FF"/>
<path d="M143.786 13.1633C144.318 12.6457 144.585 12.025 144.585 11.3012C144.585 10.5773 144.318 9.95663 143.786 9.43902C143.252 8.92141 142.616 8.6626 141.871 8.6626C141.127 8.6626 140.486 8.92141 139.957 9.43902C139.424 9.95663 139.156 10.5773 139.156 11.3012C139.156 12.025 139.421 12.6457 139.957 13.1633C140.489 13.6809 141.128 13.9397 141.871 13.9397C142.614 13.9397 143.253 13.6809 143.786 13.1633ZM139.609 29.8868H144.135V15.2295H139.609V29.8868Z" fill="#F0F8FF"/>
<path d="M151.728 19.5089C151.728 19.8013 151.986 20.0412 152.499 20.2264C153.011 20.4116 153.631 20.5988 154.353 20.784C155.076 20.9691 155.8 21.2089 156.526 21.5014C157.25 21.7939 157.868 22.2779 158.382 22.9511C158.895 23.6245 159.152 24.4703 159.152 25.4866C159.152 27.0689 158.549 28.2682 157.34 29.0762C156.134 29.8864 154.646 30.2924 152.876 30.2924C149.698 30.2924 147.538 29.1309 146.391 26.8039L150.312 24.6344C150.715 25.7876 151.57 26.364 152.878 26.364C153.964 26.364 154.507 26.061 154.507 25.4551C154.507 25.1626 154.249 24.9185 153.736 24.7229C153.223 24.5271 152.604 24.3378 151.88 24.1506C151.157 23.9654 150.432 23.7212 149.707 23.4183C148.983 23.1153 148.365 22.6419 147.85 21.9959C147.338 21.3499 147.081 20.5588 147.081 19.6203C147.081 18.097 147.649 16.9124 148.785 16.0728C149.922 15.2333 151.324 14.8125 152.993 14.8125C154.242 14.8125 155.378 15.0818 156.402 15.6184C157.427 16.157 158.252 16.9334 158.876 17.9477L155.016 19.9697C154.532 19.1091 153.859 18.6799 152.993 18.6799C152.129 18.6799 151.727 18.9534 151.727 19.5005V19.5067L151.728 19.5089Z" fill="#F0F8FF"/>
</g>
</g>
</g>
<defs>
<radialGradient id="paint0_radial_2397_33292" cx="0" cy="0" r="1" gradientUnits="userSpaceOnUse" gradientTransform="translate(24.1011 2.00746) scale(15.7788)">
<stop stop-color="#08D7FF"/>
<stop offset="1" stop-color="#3174FF"/>
</radialGradient>
<radialGradient id="paint1_radial_2397_33292" cx="0" cy="0" r="1" gradientUnits="userSpaceOnUse" gradientTransform="translate(24.1011 2.00746) scale(15.7788)">
<stop stop-color="#11D8FF"/>
<stop offset="1" stop-color="#3A7AFF"/>
</radialGradient>
<radialGradient id="paint2_radial_2397_33292" cx="0" cy="0" r="1" gradientUnits="userSpaceOnUse" gradientTransform="translate(23.933 2.14209) scale(16.1112 16.1112)">
<stop stop-color="#08D7FF"/>
<stop offset="1" stop-color="#3174FF"/>
</radialGradient>
<radialGradient id="paint3_radial_2397_33292" cx="0" cy="0" r="1" gradientUnits="userSpaceOnUse" gradientTransform="translate(23.933 2.14209) scale(16.1112 16.1112)">
<stop stop-color="#11D8FF"/>
<stop offset="1" stop-color="#3A7AFF"/>
</radialGradient>
<radialGradient id="paint4_radial_2397_33292" cx="0" cy="0" r="1" gradientUnits="userSpaceOnUse" gradientTransform="translate(25.073 38.0049) scale(39.2291 39.229)">
<stop stop-color="#FF08FF"/>
<stop offset="0.36" stop-color="#ED0DFF"/>
<stop offset="1" stop-color="#382AFF"/>
</radialGradient>
<radialGradient id="paint5_radial_2397_33292" cx="0" cy="0" r="1" gradientUnits="userSpaceOnUse" gradientTransform="translate(25.073 38.0049) scale(39.2291 39.229)">
<stop stop-color="#FF11FF"/>
<stop offset="0.36" stop-color="#EE16FF"/>
<stop offset="1" stop-color="#4033FF"/>
</radialGradient>
<radialGradient id="paint6_radial_2397_33292" cx="0" cy="0" r="1" gradientUnits="userSpaceOnUse" gradientTransform="translate(23.9037 38.1732) scale(38.9386 38.9386)">
<stop stop-color="#FF08FF"/>
<stop offset="0.36" stop-color="#ED0DFF"/>
<stop offset="1" stop-color="#382AFF"/>
</radialGradient>
<radialGradient id="paint7_radial_2397_33292" cx="0" cy="0" r="1" gradientUnits="userSpaceOnUse" gradientTransform="translate(23.9037 38.1732) scale(38.9386 38.9386)">
<stop stop-color="#FF11FF"/>
<stop offset="0.36" stop-color="#EE16FF"/>
<stop offset="1" stop-color="#4033FF"/>
</radialGradient>
<linearGradient id="paint8_linear_2397_33292" x1="20.3089" y1="9.07136" x2="48.586" y2="9.07136" gradientUnits="userSpaceOnUse">
<stop stop-color="#08FCFF"/>
<stop offset="1" stop-color="#2A69FF"/>
</linearGradient>
<linearGradient id="paint9_linear_2397_33292" x1="20.3089" y1="9.07136" x2="48.586" y2="9.07136" gradientUnits="userSpaceOnUse">
<stop stop-color="#2FFCFF"/>
<stop offset="1" stop-color="#336FFF"/>
</linearGradient>
<clipPath id="clip0_2397_33292">
<rect width="160.123" height="37.5289" fill="white" transform="translate(0 0.628418)"/>
</clipPath>
</defs>
</svg>
