<svg xmlns="http://www.w3.org/2000/svg" width="1584" height="162" fill="none"><path d="M182.112 159.226V74.734l-42.666 84.492H93.983L51.317 74.734v84.492H.257V2.114h69.245l46.863 94.267 46.862-94.267h69.245v157.112h-50.36z" fill="url(#a)"/><path d="M1185.8 120.103c-12.59 27.233-41.97 41.897-96.52 41.897-44.07 0-72.75-11.172-88.13-29.328-10.494-12.569-16.09-29.327-16.09-51.672 0-20.25 4.896-36.31 14.688-48.88C1015.84 11.87 1044.51 0 1089.98 0c61.55 0 87.43 22.345 96.52 45.388 3.5 8.38 4.2 17.457 4.2 22.345h-55.96c0-3.492-1.4-8.38-4.2-11.87-5.59-8.38-18.88-14.665-41.96-14.665-20.99 0-36.37 5.587-43.37 16.06-3.5 5.587-4.89 13.268-4.89 23.742s2.09 18.155 5.59 23.741c7.7 11.871 25.18 16.061 43.37 16.061 20.98 0 36.37-4.19 42.66-13.966 2.1-3.491 3.5-7.68 3.5-11.87h55.96c-.7 6.284-1.4 16.758-5.6 25.137z" fill="url(#b)"/><path d="M1338.32 2.106h-69.24l-79.04 157.112h58.06l49.66-101.948 5.59-14.664 5.6 14.664 49.66 101.948h58.05L1338.32 2.106z" fill="url(#c)"/><path d="M1488.62 117.322V2.106h-54.56v157.112h149.68v-41.896h-95.12z" fill="url(#d)"/><path d="m409.404 2.106-50.359 62.147-51.06-62.147h-60.151l83.932 105.44v51.672h53.857v-51.672l84.633-105.44h-60.852z" fill="url(#e)"/><path d="M964.038 2.106h-55.256v157.112h55.256V2.106z" fill="url(#f)"/><path d="M822.09 2.118v57.957h-78.338V2.118h-54.556V159.23h54.556v-57.258h78.338v57.258h54.556V2.118H822.09z" fill="url(#g)"/><path d="M668.931 2.106H480.782v41.897h66.446v115.215h55.256V44.003h66.447V2.106z" fill="url(#h)"/><defs><linearGradient id="a" x1="761.503" y1="32.822" x2="397.639" y2="488.358" gradientUnits="userSpaceOnUse"><stop stop-color="#C99FFF"/><stop offset="1" stop-color="#FFCD9F"/></linearGradient><linearGradient id="b" x1="761.503" y1="32.822" x2="397.639" y2="488.358" gradientUnits="userSpaceOnUse"><stop stop-color="#C99FFF"/><stop offset="1" stop-color="#FFCD9F"/></linearGradient><linearGradient id="c" x1="761.503" y1="32.822" x2="397.639" y2="488.358" gradientUnits="userSpaceOnUse"><stop stop-color="#C99FFF"/><stop offset="1" stop-color="#FFCD9F"/></linearGradient><linearGradient id="d" x1="761.503" y1="32.822" x2="397.639" y2="488.358" gradientUnits="userSpaceOnUse"><stop stop-color="#C99FFF"/><stop offset="1" stop-color="#FFCD9F"/></linearGradient><linearGradient id="e" x1="761.503" y1="32.822" x2="397.639" y2="488.358" gradientUnits="userSpaceOnUse"><stop stop-color="#C99FFF"/><stop offset="1" stop-color="#FFCD9F"/></linearGradient><linearGradient id="f" x1="761.503" y1="32.822" x2="397.639" y2="488.358" gradientUnits="userSpaceOnUse"><stop stop-color="#C99FFF"/><stop offset="1" stop-color="#FFCD9F"/></linearGradient><linearGradient id="g" x1="761.503" y1="32.822" x2="397.639" y2="488.358" gradientUnits="userSpaceOnUse"><stop stop-color="#C99FFF"/><stop offset="1" stop-color="#FFCD9F"/></linearGradient><linearGradient id="h" x1="761.503" y1="32.822" x2="397.639" y2="488.358" gradientUnits="userSpaceOnUse"><stop stop-color="#C99FFF"/><stop offset="1" stop-color="#FFCD9F"/></linearGradient></defs></svg>
