<svg width="87" height="27" viewBox="0 0 87 27" fill="none" xmlns="http://www.w3.org/2000/svg">
<g clip-path="url(#clip0_2397_33257)">
<path d="M25.3116 0.396973H0.682079C0.530186 0.396973 0.384507 0.45727 0.277147 0.564746C0.169671 0.672107 0.109375 0.817785 0.109375 0.969793V25.5993C0.109375 25.7512 0.169671 25.8969 0.277147 26.0043C0.384507 26.1118 0.530186 26.1721 0.682079 26.1721H25.3116C25.4636 26.1721 25.6093 26.1118 25.7167 26.0043C25.8242 25.8969 25.8845 25.7512 25.8845 25.5993V0.969793C25.8845 0.817785 25.8242 0.672107 25.7167 0.564746C25.6093 0.45727 25.4636 0.396973 25.3116 0.396973ZM17.2927 17.0076C17.2927 17.1595 17.2324 17.3052 17.1249 17.4127C17.0176 17.52 16.8719 17.5804 16.72 17.5804H9.27381C9.12192 17.5804 8.97624 17.52 8.86876 17.4127C8.7614 17.3052 8.70111 17.1595 8.70111 17.0076V9.56141C8.70111 9.40952 8.7614 9.26383 8.86876 9.15648C8.97624 9.049 9.12192 8.9887 9.27381 8.9887H16.72C16.8719 8.9887 17.0176 9.049 17.1249 9.15648C17.2324 9.26383 17.2927 9.40952 17.2927 9.56141V17.0076Z" fill="white"/>
<path d="M76.8705 8.98975H69.4244C69.1081 8.98975 68.8516 9.24612 68.8516 9.56245V17.0087C68.8516 17.325 69.1081 17.5815 69.4244 17.5815H76.8705C77.1868 17.5815 77.4433 17.325 77.4433 17.0087V9.56245C77.4433 9.24612 77.1868 8.98975 76.8705 8.98975Z" fill="white"/>
<path d="M68.2767 0.397461H60.8306C60.5143 0.397461 60.2578 0.653837 60.2578 0.970281V8.41637C60.2578 8.7327 60.5143 8.98919 60.8306 8.98919H68.2767C68.5932 8.98919 68.8495 8.7327 68.8495 8.41637V0.970281C68.8495 0.653837 68.5932 0.397461 68.2767 0.397461Z" fill="white"/>
<path d="M85.4565 0.397461H78.0103C77.694 0.397461 77.4375 0.653837 77.4375 0.970281V8.41637C77.4375 8.7327 77.694 8.98919 78.0103 8.98919H85.4565C85.7729 8.98919 86.0292 8.7327 86.0292 8.41637V0.970281C86.0292 0.653837 85.7729 0.397461 85.4565 0.397461Z" fill="white"/>
<path d="M68.2767 17.5811H60.8306C60.5143 17.5811 60.2578 17.8374 60.2578 18.1538V25.6C60.2578 25.9163 60.5143 26.1728 60.8306 26.1728H68.2767C68.5932 26.1728 68.8495 25.9163 68.8495 25.6V18.1538C68.8495 17.8374 68.5932 17.5811 68.2767 17.5811Z" fill="white"/>
<path d="M85.4565 17.5811H78.0103C77.694 17.5811 77.4375 17.8374 77.4375 18.1538V25.6C77.4375 25.9163 77.694 26.1728 78.0103 26.1728H85.4565C85.7729 26.1728 86.0292 25.9163 86.0292 25.6V18.1538C86.0292 17.8374 85.7729 17.5811 85.4565 17.5811Z" fill="white"/>
<path d="M55.3705 0.397461H47.9244C47.6081 0.397461 47.3516 0.653837 47.3516 0.970281V8.41637C47.3516 8.7327 47.6081 8.98919 47.9244 8.98919H55.3705C55.6868 8.98919 55.9433 8.7327 55.9433 8.41637V0.970281C55.9433 0.653837 55.6868 0.397461 55.3705 0.397461Z" fill="white"/>
<path d="M55.3705 17.5811H47.9244C47.6081 17.5811 47.3516 17.8374 47.3516 18.1538V25.6C47.3516 25.9163 47.6081 26.1728 47.9244 26.1728H55.3705C55.6868 26.1728 55.9433 25.9163 55.9433 25.6V18.1538C55.9433 17.8374 55.6868 17.5811 55.3705 17.5811Z" fill="white"/>
<path d="M47.3553 9.55497C47.3553 9.40307 47.2949 9.25739 47.1876 9.15003C47.0801 9.04256 46.9344 8.98226 46.7825 8.98226H38.7636V0.969793C38.7636 0.817785 38.7032 0.672107 38.5958 0.564746C38.4884 0.45727 38.3427 0.396973 38.1908 0.396973H30.7447C30.5927 0.396973 30.447 0.45727 30.3396 0.564746C30.2322 0.672107 30.1719 0.817785 30.1719 0.969793V25.5865C30.1719 25.7384 30.2322 25.884 30.3396 25.9914C30.447 26.0989 30.5927 26.1592 30.7447 26.1592H38.1908C38.3427 26.1592 38.4884 26.0989 38.5958 25.9914C38.7032 25.884 38.7636 25.7384 38.7636 25.5865V17.574H46.7825C46.9344 17.574 47.0801 17.5136 47.1876 17.4062C47.2949 17.2987 47.3553 17.1531 47.3553 17.0012V9.55497Z" fill="white"/>
</g>
<defs>
<clipPath id="clip0_2397_33257">
<rect width="86.1319" height="25.8396" fill="white" transform="translate(0 0.365234)"/>
</clipPath>
</defs>
</svg>
