<svg width="84" height="40" viewBox="0 0 84 40" fill="none" xmlns="http://www.w3.org/2000/svg">
<path fill-rule="evenodd" clip-rule="evenodd" d="M18.1409 4.70613C18.735 3.65088 20.4862 2.88847 21.7196 3.36265L21.7196 3.36267L21.7197 3.36271C21.6954 3.40785 21.6695 3.45307 21.6419 3.49828C20.9234 4.68023 19.1881 5.79442 17.9899 5.43242C17.9714 5.42686 17.9531 5.42095 17.9349 5.41467L17.9349 5.41464L17.9348 5.41461L17.935 5.409C17.9372 5.16826 18.0115 4.93074 18.1409 4.70613ZM15.4321 7.58122C11.1894 12.5947 9.69024 18.2773 11.7775 24.5861C13.885 30.8571 18.3661 34.6006 24.8528 36.0371L24.8584 36.0383L24.8584 36.0384L24.8584 36.0384L24.8583 36.0386C24.8475 36.2204 24.822 36.3477 24.7962 36.4739C24.7956 36.4769 24.795 36.4799 24.7944 36.4829C22.9751 36.2294 21.0618 35.5634 19.2488 34.5133C16.1213 32.7044 13.2914 29.759 11.7771 25.8376C9.07746 18.8383 11.1925 11.9224 15.432 7.58118L15.4314 7.58194L15.4321 7.58122ZM19.216 34.803L19.216 34.8031C18.8052 35.4313 18.2256 35.7698 17.585 35.8813L17.5819 35.882L17.5726 35.8835C16.4981 36.0667 15.5509 35.8052 14.6504 35.3134C14.2109 35.0743 13.7827 34.779 13.3523 34.4512L13.3526 34.4511L13.3525 34.451C15.3878 33.8446 17.3188 33.4188 19.216 34.803L19.216 34.803ZM10.6113 30.9426C10.6529 30.8704 10.6738 30.8342 10.6794 30.7412C10.9332 30.7497 11.1923 30.749 11.4536 30.7482C11.9219 30.7469 12.3973 30.7456 12.8618 30.7974C13.9578 30.9006 14.9801 31.2982 15.7731 32.093C15.9013 32.217 15.96 32.3268 15.9492 32.4223C15.9659 32.5337 15.9077 32.6329 15.755 32.7084C15.4285 32.8569 15.0449 33.0207 14.6879 33.0553C13.5028 33.1897 12.5792 32.7046 11.7237 32.0181C11.5333 31.8613 11.3527 31.6874 11.1748 31.509C11.0871 31.4233 11.001 31.3352 10.914 31.2463L10.914 31.2463C10.8153 31.1454 10.7156 31.0434 10.6113 30.9426ZM13.4416 29.5432C12.0295 30.2521 9.76401 29.1987 8.99172 27.7655L8.72741 26.8688C9.98539 26.777 13.1074 27.9543 13.4416 29.5432L13.4416 29.5432L13.4416 29.5432ZM7.66497 22.4524C7.7969 22.5102 7.92134 22.5567 8.04086 22.6013L8.04088 22.6013C8.23467 22.6737 8.41549 22.7412 8.59421 22.8444C8.79232 22.9506 8.98866 23.06 9.18105 23.1746C10.1064 23.7241 10.9092 24.3708 11.4117 25.3802C11.4347 25.4263 11.457 25.4732 11.4787 25.5208C11.5672 25.6804 11.5799 25.8775 11.5912 26.0534L11.5912 26.0535C11.595 26.1119 11.5986 26.168 11.6048 26.2196L11.6048 26.2196L11.6048 26.2199C11.3409 26.2599 11.077 26.3002 10.813 26.3404L10.8127 26.3402C10.7582 26.3548 10.7228 26.3362 10.6881 26.3162C10.6866 26.3155 10.6852 26.3147 10.6838 26.3139C9.59331 26.1177 8.89343 25.3284 8.32835 24.4725L8.32658 24.4695C7.95974 23.8803 7.73702 23.2815 7.66875 22.498C7.66741 22.4829 7.66614 22.4677 7.66493 22.4524L7.66497 22.4524L7.66497 22.4524ZM10.5501 22.6255L10.55 22.6255L10.55 22.6256C10.1097 22.642 9.71359 22.5274 9.36502 22.3208C8.01061 21.5336 7.37122 19.4065 7.62697 18.0992L7.62729 18.0974L7.62733 18.0974L7.62736 18.0973C9.32455 19.0771 10.6923 20.8781 10.5501 22.6255ZM10.329 18.8386C10.7907 17.3717 9.84954 14.9987 8.41632 13.9786L8.41622 13.9786C7.9573 15.3989 8.20117 16.9052 8.8349 17.8583C9.08257 18.2309 9.38979 18.5189 9.73788 18.6843C9.92417 18.7728 10.1222 18.8262 10.329 18.8386ZM19.7609 33.7854C20.4538 32.6928 19.8531 30.0718 18.627 29.1676L18.6204 29.1628C17.4208 31.4072 18.2343 33.4177 19.7219 33.8432L19.722 33.8432C19.7354 33.8245 19.7483 33.8052 19.7609 33.7854ZM11.1519 13.308C11.0818 12.2711 10.6749 11.2973 10.0722 10.3603C10.0722 10.3604 10.036 10.3395 9.9638 10.2979L9.96375 10.2979L9.96365 10.2978L9.96362 10.2979C9.9121 10.369 9.86367 10.4457 9.81837 10.5272C9.26272 11.5182 9.16462 13.158 9.61488 14.1289C9.65625 14.2297 9.70256 14.325 9.75392 14.4139C9.91051 14.651 10.1244 14.8375 10.3427 15.0277C10.4109 15.0871 10.4795 15.1469 10.5469 15.2087C10.6191 15.2504 10.8261 15.2254 10.8678 15.1533C10.972 14.9727 11.0763 14.7921 11.0875 14.606C11.1681 14.1554 11.1862 13.7242 11.1519 13.308ZM16.6957 31.6627C16.6566 31.6425 16.6186 31.6212 16.5816 31.599C15.1111 30.7182 15.2627 28.3584 16.5739 27.1197C16.6068 27.0885 16.6405 27.0581 16.6749 27.0284L16.675 27.0284L16.675 27.0284C17.5901 28.279 17.5893 30.7822 16.6958 31.6627L16.6957 31.6626L16.6957 31.6627ZM15.3383 27.0103C15.3014 27.226 15.2496 27.4288 15.1827 27.6114C15.0671 27.8674 14.9098 28.1209 14.7558 28.369L14.7558 28.369L14.7558 28.369L14.7557 28.369L14.7557 28.3691L14.7557 28.3691C14.68 28.4911 14.6051 28.6118 14.5364 28.7308C14.4195 28.9332 14.2857 28.9604 14.163 28.8783C14.0977 28.8466 14.0347 28.7832 13.9782 28.6974C13.6698 28.2306 13.4546 27.7694 13.509 27.1748C13.5745 26.3941 13.8623 25.6454 14.3668 25.0218C14.4866 24.8634 14.6244 24.7323 14.7707 24.593L14.7707 24.593C14.866 24.5023 14.9649 24.4081 15.0647 24.3008L15.0838 24.2801L15.0839 24.2804C15.441 25.0655 15.5276 26.1583 15.3383 27.0103ZM13.9924 18.498C13.9996 18.8394 13.9446 19.2098 13.8419 19.5824C13.4678 20.9829 12.4558 22.3918 11.4785 22.4382L11.4767 22.4383L11.4767 22.4382L11.4756 22.4357C11.4407 22.3527 11.4112 22.2697 11.3867 22.1868C10.8635 20.4404 12.4756 18.8169 13.9924 18.498L13.9924 18.498L13.9924 18.498ZM13.741 24.6179C13.5549 24.9417 13.3148 25.2488 13.0094 25.538C12.6147 25.8879 12.4856 25.8616 12.255 25.3433C11.9785 24.6161 12.1122 23.7527 12.5461 23.0079C12.9214 22.3548 13.5264 21.7918 14.279 21.5043C14.3622 22.6609 14.2662 23.7139 13.741 24.6179ZM14.8416 4.35104C14.8673 4.38992 14.8943 4.40556 14.9124 4.416C14.9305 4.42643 14.9395 4.43166 14.9291 4.4497L14.9294 4.45088C14.9801 4.52825 15.0103 4.64098 15.0051 4.73333L15.0054 4.73451L15.0071 4.7464C15.162 5.6533 15.1011 6.56368 14.8116 7.42995C14.7953 7.47951 14.7781 7.52887 14.7601 7.57802C14.6238 7.98081 14.3584 8.35717 14.1138 8.69745C14.0844 8.7398 14.0553 8.77725 14.0266 8.80987C13.7717 9.10188 13.5319 9.04493 13.3897 8.61672L13.389 8.61397C13.2339 8.25005 13.1491 7.84006 13.1781 7.45037C13.1793 7.4302 13.181 7.41006 13.1831 7.38993L13.1836 7.37956L13.1843 7.3652C13.2286 6.14847 13.8799 5.18772 14.8363 4.3556L14.8414 4.35097L14.8415 4.35109L14.8416 4.35104ZM14.282 15.9482L14.2819 15.9483L14.2819 15.9483C14.2281 16.1036 14.1779 16.2482 14.1012 16.3904L14.1001 16.3935C14.0127 16.5761 13.9203 16.7526 13.8216 16.9221C13.3947 17.6616 12.8229 18.3 12.0004 18.696C11.8365 18.7601 11.666 18.7994 11.4873 18.8406C11.3948 18.8619 11.3001 18.8837 11.2029 18.9097C11.0414 17.8011 11.4937 16.9134 12.235 16.339C12.8256 15.8659 13.6061 15.6028 14.4087 15.6087L14.4087 15.6087L14.4087 15.6087C14.3581 15.7287 14.3192 15.841 14.282 15.9482L14.282 15.9482ZM15.887 6.54352L15.8869 6.5434L15.8869 6.5434C15.1899 5.08173 16.4369 2.67184 18.0053 2.37381L18.0054 2.37394L18.0054 2.37392L18.0057 2.37732C18.1222 3.69488 17.2963 6.10535 16.0443 6.50444C15.9926 6.52101 15.9402 6.53411 15.887 6.54352ZM11.7097 15.4467L11.7097 15.4468L11.7158 15.447C13.1589 15.5109 14.9773 14.183 15.1974 13.0066C15.1988 12.9993 15.2002 12.9921 15.2015 12.9849L15.2013 12.9848C13.6108 12.4035 11.4265 13.9352 11.7094 15.4467L11.7097 15.4467ZM12.7733 12.3534C14.1936 12.6441 16.0373 11.7845 16.5766 10.6036L16.5775 10.6015C16.3375 10.471 16.0727 10.3928 15.7979 10.3598C15.7659 10.356 15.7338 10.3528 15.7016 10.3501C14.362 10.2411 12.8289 11.1727 12.7733 12.3534ZM18.4439 8.45299L18.4389 8.45801C17.3008 9.67481 15.6158 10.0947 14.3787 9.57266C14.4196 9.39035 14.4863 9.22295 14.5777 9.07073C14.8245 8.63488 15.2684 8.31957 15.8851 8.13134C16.2672 8.02892 16.6532 7.98653 17.0374 8.01385C17.4867 8.03934 17.9339 8.16881 18.3889 8.42187C18.4072 8.43205 18.4255 8.44242 18.4439 8.45299ZM20.4781 6.93108C20.4781 6.9311 20.4781 6.93113 20.4781 6.93116C19.6603 7.41767 18.8206 7.67778 17.9253 7.6433C17.6964 7.6345 17.4639 7.60645 17.2271 7.55801C17.0618 7.51069 16.8812 7.40644 16.7007 7.3022C16.484 7.17712 16.4592 6.97013 16.6356 6.83124C16.9315 6.56871 17.2276 6.30625 17.5693 6.21469C17.5693 6.21469 17.5693 6.21468 17.5693 6.21468C17.5694 6.21466 17.5694 6.21465 17.5694 6.21463C17.5698 6.21452 17.5702 6.2144 17.5706 6.21428C17.609 6.20179 17.6474 6.19008 17.6857 6.17913C18.7609 5.86887 19.7025 6.10326 20.6183 6.77131M20.4781 6.93108C20.5557 6.87974 20.5766 6.84367 20.6182 6.77157L20.4781 6.93108ZM20.6182 6.77157C20.6183 6.77153 20.6184 6.77148 20.6184 6.77144L20.6184 6.7714C20.6184 6.77138 20.6184 6.77136 20.6183 6.77133M11.8232 7.32711C11.7603 7.46324 11.6958 7.59333 11.6319 7.72204L11.6319 7.72211L11.6319 7.72213C11.4997 7.98864 11.3704 8.24923 11.2645 8.5452C10.9559 9.33001 10.8903 10.1106 11.197 10.9137C11.2842 11.1614 11.4512 11.3877 11.6301 11.6303L11.6301 11.6304C11.7131 11.7429 11.7987 11.8589 11.88 11.9822C12.5914 11.3337 12.7084 10.6307 12.7532 9.88619C12.7938 8.89854 12.5705 7.95099 12.1971 7.01316C12.0622 7.07981 11.9427 7.20344 11.8232 7.32707L11.8232 7.32711Z" fill="#FFE000"/>
<path d="M23.4371 18.0261V16.1894L27.3146 9.77531H30.303V16.2039H31.4984V18.0261H30.303V19.9795H28.4517V18.0261H23.4371ZM25.4196 16.2039H28.4517V11.2185H28.4225L25.4196 16.2039ZM33.5359 19.9795V17.9095H35.7079V19.9795H33.5359ZM37.6408 19.9795L42.4951 11.6266V11.5975H37.5242V9.77531H44.4484V11.8161L39.9732 19.9795H37.6408ZM50.6638 20.1959L52.0256 16.1485L48.7419 13.9466H52.7638L54.202 9.60653L55.6657 13.9466H59.6621L56.3784 16.1485L57.7657 20.1959L54.202 17.6122L50.6638 20.1959Z" fill="white"/>
<path d="M23.1772 27.5183L23.8135 27.3871C23.8616 27.7763 23.9687 28.065 24.1349 28.253C24.3055 28.4367 24.5525 28.5285 24.8762 28.5285C25.1823 28.5285 25.4163 28.452 25.5781 28.2989C25.7399 28.1415 25.8208 27.9425 25.8208 27.702C25.8208 27.4221 25.7311 27.2122 25.5518 27.0722C25.3725 26.9279 25.1254 26.8558 24.8106 26.8558H24.5482V26.3113H24.7319C24.8237 26.3113 24.9133 26.3026 25.0008 26.2851C25.0926 26.2676 25.191 26.2391 25.296 26.1998C25.401 26.156 25.4862 26.0861 25.5518 25.9899C25.6174 25.8937 25.6502 25.7756 25.6502 25.6356C25.6502 25.4126 25.5781 25.2377 25.4338 25.1108C25.2894 24.984 25.0948 24.9206 24.8499 24.9206C24.3689 24.9206 24.0934 25.1918 24.0234 25.734L23.4068 25.6225C23.4505 25.2246 23.6036 24.9097 23.866 24.6779C24.1283 24.4461 24.4607 24.3302 24.863 24.3302C25.2698 24.3302 25.6065 24.4417 25.8733 24.6648C26.14 24.8834 26.2734 25.1852 26.2734 25.57C26.2734 25.8237 26.21 26.027 26.0832 26.1801C25.9607 26.3332 25.812 26.4447 25.6371 26.5147V26.5278C25.8601 26.5977 26.0548 26.7311 26.2209 26.9279C26.3871 27.1247 26.4702 27.3937 26.4702 27.7348C26.4702 28.1327 26.3237 28.4629 26.0307 28.7253C25.7377 28.9877 25.355 29.1189 24.8827 29.1189C24.406 29.1189 24.0168 28.9877 23.7151 28.7253C23.4177 28.4585 23.2384 28.0562 23.1772 27.5183ZM27.3232 29.0205V28.2071H28.1563V29.0205H27.3232ZM28.9411 28.0234V27.4133L30.7516 24.4286H31.7356V27.4133H32.2997V28.0234H31.7356V29.0205H31.1059V28.0234H28.9411ZM29.5905 27.4133H31.1059V24.9272H31.0927L29.5905 27.4133ZM33.0231 29.0205V24.2318H33.6594V27.0854H33.6725L35.0763 25.5438H35.9028L34.6433 26.9345L36.0471 29.0205H35.3124L34.1645 27.315H34.1514L33.6594 27.8463V29.0205H33.0231ZM38.2761 29.0205V25.5438H38.8861V25.9177H38.8992C38.9692 25.7821 39.0698 25.6772 39.201 25.6028C39.3322 25.5241 39.4699 25.4848 39.6143 25.4848C39.7323 25.4848 39.8351 25.5066 39.9226 25.5504L39.8111 26.1801C39.728 26.1451 39.6383 26.1276 39.5421 26.1276C39.1223 26.1276 38.9124 26.4119 38.9124 26.9804V29.0205H38.2761ZM42.9758 27.9119L43.4547 28.2727C43.3191 28.5176 43.1311 28.7209 42.8905 28.8828C42.65 29.0402 42.357 29.1189 42.0115 29.1189C41.5305 29.1189 41.1391 28.9527 40.8373 28.6204C40.5356 28.2836 40.3847 27.8376 40.3847 27.2822C40.3847 26.7268 40.5334 26.2829 40.8308 25.9505C41.1325 25.6138 41.5152 25.4454 41.9787 25.4454C42.4423 25.4454 42.8206 25.6116 43.1136 25.9439C43.4066 26.2719 43.5531 26.718 43.5531 27.2822V27.4724H41.0341C41.0429 27.7829 41.1281 28.0409 41.2899 28.2464C41.4561 28.4476 41.6923 28.5482 41.9984 28.5482C42.1427 28.5482 42.2695 28.5285 42.3789 28.4892C42.4926 28.4498 42.5888 28.3908 42.6675 28.312C42.7506 28.229 42.8096 28.1634 42.8446 28.1153C42.8796 28.0671 42.9233 27.9994 42.9758 27.9119ZM41.0407 26.9738H42.9168C42.9037 26.7071 42.8206 26.4819 42.6675 26.2982C42.5144 26.1101 42.2848 26.0161 41.9787 26.0161C41.6857 26.0161 41.4583 26.1167 41.2965 26.3179C41.1347 26.5147 41.0494 26.7333 41.0407 26.9738ZM45.2502 29.0205L43.8529 25.5438H44.5155L45.5191 28.1218H45.5323L46.5228 25.5438H47.1788L45.7815 29.0205H45.2502ZM47.8602 29.0205V25.5438H48.4965V29.0205H47.8602ZM47.8339 24.9075V24.2318H48.5227V24.9075H47.8339ZM51.9315 27.9119L52.4104 28.2727C52.2748 28.5176 52.0868 28.7209 51.8462 28.8828C51.6057 29.0402 51.3127 29.1189 50.9672 29.1189C50.4862 29.1189 50.0948 28.9527 49.793 28.6204C49.4913 28.2836 49.3404 27.8376 49.3404 27.2822C49.3404 26.7268 49.4891 26.2829 49.7865 25.9505C50.0882 25.6138 50.4709 25.4454 50.9344 25.4454C51.398 25.4454 51.7763 25.6116 52.0693 25.9439C52.3623 26.2719 52.5088 26.718 52.5088 27.2822V27.4724H49.9898C49.9986 27.7829 50.0838 28.0409 50.2456 28.2464C50.4118 28.4476 50.648 28.5482 50.9541 28.5482C51.0984 28.5482 51.2252 28.5285 51.3346 28.4892C51.4483 28.4498 51.5445 28.3908 51.6232 28.312C51.7063 28.229 51.7653 28.1634 51.8003 28.1153C51.8353 28.0671 51.879 27.9994 51.9315 27.9119ZM49.9964 26.9738H51.8725C51.8594 26.7071 51.7763 26.4819 51.6232 26.2982C51.4701 26.1101 51.2406 26.0161 50.9344 26.0161C50.6414 26.0161 50.414 26.1167 50.2522 26.3179C50.0904 26.5147 50.0051 26.7333 49.9964 26.9738ZM55.1081 25.5438H55.6853L56.5709 28.0628H56.584L57.0957 25.5438H57.7254L56.9579 29.0205H56.3413L55.4033 26.2916H55.3901L54.4521 29.0205H53.8355L53.068 25.5438H53.6977L54.2225 28.0628H54.2356L55.1081 25.5438ZM58.2505 27.8529L58.8409 27.7217C58.9065 28.2902 59.206 28.5744 59.7396 28.5744C59.9932 28.5744 60.1878 28.5285 60.3234 28.4367C60.459 28.3448 60.5267 28.2246 60.5267 28.0759C60.5267 27.9228 60.4633 27.8091 60.3365 27.7348C60.2097 27.6561 59.9451 27.5599 59.5428 27.4461C59.1229 27.3324 58.8234 27.2012 58.6441 27.0526C58.4648 26.8995 58.3751 26.694 58.3751 26.4359C58.3751 26.1692 58.4845 25.9374 58.7031 25.7406C58.9261 25.5438 59.2301 25.4454 59.6149 25.4454C60.0041 25.4454 60.3125 25.5372 60.5399 25.7209C60.7673 25.9046 60.9225 26.1495 61.0056 26.4556L60.4546 26.6065C60.319 26.191 60.0413 25.9833 59.6215 25.9833C59.4116 25.9833 59.2498 26.027 59.1361 26.1145C59.0224 26.1976 58.9655 26.2982 58.9655 26.4163C58.9655 26.5475 59.0245 26.6458 59.1426 26.7114C59.2607 26.777 59.5362 26.8711 59.9692 26.9935C60.4021 27.116 60.6995 27.2603 60.8613 27.4265C61.0275 27.5883 61.1106 27.8069 61.1106 28.0825C61.1149 28.358 61.0034 28.6007 60.776 28.8106C60.5486 29.0161 60.2097 29.1189 59.7592 29.1189C59.2913 29.1189 58.9327 28.9986 58.6834 28.7581C58.4342 28.5176 58.2898 28.2158 58.2505 27.8529Z" fill="white"/>
<path fill-rule="evenodd" clip-rule="evenodd" d="M66.1521 4.70613C65.558 3.65088 63.8068 2.88847 62.5733 3.36265L62.5734 3.36267L62.5733 3.36271C62.5975 3.40785 62.6235 3.45307 62.6511 3.49828C63.3696 4.68023 65.1048 5.79442 66.3031 5.43242C66.3215 5.42686 66.3399 5.42095 66.358 5.41467L66.358 5.41464L66.3581 5.41461L66.358 5.409C66.3558 5.16826 66.2814 4.93074 66.1521 4.70613ZM68.8609 7.58122C73.1035 12.5947 74.6027 18.2773 72.5155 24.5861C70.408 30.8571 65.9269 34.6006 59.4401 36.0371L59.4346 36.0383L59.4346 36.0384L59.4346 36.0384L59.4346 36.0386C59.4455 36.2204 59.471 36.3477 59.4968 36.4739C59.4974 36.4769 59.498 36.4799 59.4986 36.4829C61.3179 36.2294 63.2312 35.5634 65.0441 34.5133C68.1717 32.7044 71.0016 29.759 72.5159 25.8376C75.2155 18.8383 73.1005 11.9224 68.8609 7.58118L68.8616 7.58194L68.8609 7.58122ZM65.077 34.803L65.077 34.8031C65.4878 35.4313 66.0674 35.7698 66.708 35.8813L66.7111 35.882L66.7204 35.8835C67.7948 36.0667 68.7421 35.8052 69.6425 35.3134C70.0821 35.0743 70.5103 34.779 70.9406 34.4512L70.9404 34.4511L70.9405 34.451C68.9052 33.8446 66.9741 33.4188 65.0769 34.803L65.077 34.803ZM73.6817 30.9426C73.64 30.8704 73.6191 30.8342 73.6135 30.7412C73.3598 30.7497 73.1007 30.749 72.8394 30.7482C72.3711 30.7469 71.8957 30.7456 71.4312 30.7974C70.3352 30.9006 69.3129 31.2982 68.5199 32.093C68.3916 32.217 68.3329 32.3268 68.3438 32.4223C68.3271 32.5337 68.3853 32.6329 68.538 32.7084C68.8645 32.8569 69.2481 33.0207 69.6051 33.0553C70.7902 33.1897 71.7138 32.7046 72.5693 32.0181C72.7597 31.8613 72.9402 31.6874 73.1182 31.509C73.2058 31.4233 73.292 31.3352 73.3789 31.2463L73.3789 31.2463C73.4776 31.1454 73.5774 31.0434 73.6817 30.9426ZM70.8514 29.5432C72.2634 30.2521 74.529 29.1987 75.3012 27.7655L75.5656 26.8688C74.3076 26.777 71.1855 27.9543 70.8514 29.5432L70.8514 29.5432L70.8514 29.5432ZM76.628 22.4524C76.4961 22.5102 76.3716 22.5567 76.2521 22.6013L76.2521 22.6013C76.0583 22.6737 75.8775 22.7412 75.6988 22.8444C75.5006 22.9506 75.3043 23.06 75.1119 23.1746C74.1865 23.7241 73.3837 24.3708 72.8813 25.3802C72.8583 25.4263 72.836 25.4732 72.8143 25.5208C72.7257 25.6804 72.7131 25.8775 72.7017 26.0534L72.7017 26.0535C72.698 26.1119 72.6944 26.168 72.6882 26.2196L72.6882 26.2196L72.6882 26.2199C72.952 26.2599 73.216 26.3002 73.48 26.3404L73.4803 26.3402C73.5347 26.3548 73.5701 26.3362 73.6048 26.3162C73.6063 26.3155 73.6078 26.3147 73.6092 26.3139C74.6997 26.1177 75.3995 25.3284 75.9646 24.4725L75.9664 24.4695C76.3332 23.8803 76.5559 23.2815 76.6242 22.498C76.6256 22.4829 76.6268 22.4677 76.628 22.4524L76.628 22.4524L76.628 22.4524ZM73.7429 22.6255L73.7429 22.6255L73.7429 22.6256C74.1833 22.642 74.5794 22.5274 74.9279 22.3208C76.2824 21.5336 76.9217 19.4065 76.666 18.0992L76.6657 18.0974L76.6656 18.0974L76.6656 18.0973C74.9684 19.0771 73.6007 20.8781 73.7429 22.6255ZM73.964 18.8386C73.5022 17.3717 74.4434 14.9987 75.8766 13.9786L75.8767 13.9786C76.3357 15.3989 76.0918 16.9052 75.4581 17.8583C75.2104 18.2309 74.9032 18.5189 74.5551 18.6843C74.3688 18.7728 74.1708 18.8262 73.964 18.8386ZM64.5321 33.7854C63.8392 32.6928 64.4398 30.0718 65.666 29.1676L65.6726 29.1628C66.8722 31.4072 66.0587 33.4177 64.571 33.8432L64.571 33.8432C64.5576 33.8245 64.5446 33.8052 64.5321 33.7854ZM73.141 13.308C73.2112 12.2711 73.6181 11.2973 74.2207 10.3603C74.2208 10.3604 74.257 10.3395 74.3292 10.2979L74.3292 10.2979L74.3293 10.2978L74.3294 10.2979C74.3809 10.369 74.4293 10.4457 74.4746 10.5272C75.0302 11.5182 75.1283 13.158 74.6781 14.1289C74.6367 14.2297 74.5904 14.325 74.539 14.4139C74.3825 14.651 74.1686 14.8375 73.9502 15.0277C73.8821 15.0871 73.8135 15.1469 73.7461 15.2087C73.6739 15.2504 73.4669 15.2254 73.4252 15.1533C73.321 14.9727 73.2167 14.7921 73.2055 14.606C73.1248 14.1554 73.1068 13.7242 73.141 13.308ZM67.5973 31.6627C67.6364 31.6425 67.6744 31.6212 67.7114 31.599C69.1819 30.7182 69.0303 28.3584 67.7191 27.1197C67.6862 27.0885 67.6525 27.0581 67.618 27.0284L67.618 27.0284L67.6179 27.0284C66.7028 28.279 66.7036 30.7822 67.5972 31.6627L67.5973 31.6626L67.5973 31.6627ZM68.9547 27.0103C68.9916 27.226 69.0433 27.4288 69.1103 27.6114C69.2259 27.8674 69.3832 28.1209 69.5372 28.369L69.5372 28.369L69.5372 28.369L69.5372 28.369L69.5372 28.3691L69.5372 28.3691C69.613 28.4911 69.6879 28.6118 69.7566 28.7308C69.8735 28.9332 70.0073 28.9604 70.1299 28.8783C70.1952 28.8466 70.2582 28.7832 70.3148 28.6974C70.6232 28.2306 70.8384 27.7694 70.7839 27.1748C70.7185 26.3941 70.4307 25.6454 69.9262 25.0218C69.8063 24.8634 69.6686 24.7323 69.5223 24.593L69.5223 24.593C69.427 24.5023 69.3281 24.4081 69.2282 24.3008L69.2092 24.2801L69.209 24.2804C68.852 25.0655 68.7653 26.1583 68.9547 27.0103ZM70.3006 18.498C70.2933 18.8394 70.3484 19.2098 70.4511 19.5824C70.8252 20.9829 71.8372 22.3918 72.8144 22.4382L72.8162 22.4383L72.8163 22.4382L72.8173 22.4357C72.8522 22.3527 72.8818 22.2697 72.9063 22.1868C73.4295 20.4404 71.8174 18.8169 70.3006 18.498L70.3006 18.498L70.3006 18.498ZM70.5519 24.6179C70.7381 24.9417 70.9782 25.2488 71.2836 25.538C71.6782 25.8879 71.8074 25.8616 72.0379 25.3433C72.3145 24.6161 72.1808 23.7527 71.7468 23.0079C71.3716 22.3548 70.7665 21.7918 70.0139 21.5043C69.9307 22.6609 70.0268 23.7139 70.5519 24.6179ZM69.4514 4.35104C69.4257 4.38992 69.3986 4.40556 69.3805 4.416C69.3625 4.42643 69.3534 4.43166 69.3638 4.4497L69.3635 4.45088C69.3128 4.52825 69.2826 4.64098 69.2878 4.73333L69.2875 4.73451L69.2859 4.7464C69.131 5.6533 69.1919 6.56368 69.4814 7.42995C69.4977 7.47951 69.5148 7.52887 69.5329 7.57802C69.6692 7.98081 69.9346 8.35717 70.1792 8.69745C70.2086 8.7398 70.2377 8.77725 70.2664 8.80987C70.5213 9.10188 70.7611 9.04493 70.9032 8.61672L70.904 8.61397C71.059 8.25005 71.1439 7.84006 71.1149 7.45037C71.1136 7.4302 71.112 7.41006 71.1098 7.38993L71.1093 7.37956L71.1086 7.3652C71.0643 6.14847 70.4131 5.18772 69.4566 4.3556L69.4515 4.35097L69.4514 4.35109L69.4514 4.35104ZM70.011 15.9482L70.011 15.9483L70.011 15.9483C70.0649 16.1036 70.1151 16.2482 70.1918 16.3904L70.1928 16.3935C70.2803 16.5761 70.3726 16.7526 70.4714 16.9221C70.8983 17.6616 71.4701 18.3 72.2925 18.696C72.4564 18.7601 72.6269 18.7994 72.8057 18.8406C72.8982 18.8619 72.9929 18.8837 73.09 18.9097C73.2516 17.8011 72.7993 16.9134 72.0579 16.339C71.4674 15.8659 70.6869 15.6028 69.8842 15.6087L69.8842 15.6087L69.8842 15.6087C69.9349 15.7287 69.9738 15.841 70.011 15.9482L70.011 15.9482ZM68.406 6.54352L68.406 6.5434L68.4061 6.5434C69.103 5.08173 67.8561 2.67184 66.2876 2.37381L66.2876 2.37394L66.2875 2.37392L66.2873 2.37732C66.1707 3.69488 66.9967 6.10535 68.2487 6.50444C68.3003 6.52101 68.3528 6.53411 68.406 6.54352ZM72.5833 15.4467L72.5833 15.4468L72.5771 15.447C71.134 15.5109 69.3157 14.183 69.0956 13.0066C69.0942 12.9993 69.0928 12.9921 69.0915 12.9849L69.0917 12.9848C70.6822 12.4035 72.8664 13.9352 72.5835 15.4467L72.5833 15.4467ZM71.5196 12.3534C70.0994 12.6441 68.2556 11.7845 67.7164 10.6036L67.7154 10.6015C67.9555 10.471 68.2203 10.3928 68.4951 10.3598C68.527 10.356 68.5591 10.3528 68.5913 10.3501C69.931 10.2411 71.464 11.1727 71.5196 12.3534ZM65.8491 8.45299L65.854 8.45801C66.9921 9.67481 68.6772 10.0947 69.9143 9.57266C69.8734 9.39035 69.8067 9.22295 69.7153 9.07073C69.4685 8.63488 69.0245 8.31957 68.4078 8.13134C68.0258 8.02892 67.6398 7.98653 67.2556 8.01385C66.8063 8.03934 66.359 8.16881 65.9041 8.42187C65.8858 8.43205 65.8674 8.44242 65.8491 8.45299ZM63.8148 6.93108C63.8148 6.9311 63.8149 6.93113 63.8149 6.93116C64.6326 7.41767 65.4724 7.67778 66.3677 7.6433C66.5966 7.6345 66.8291 7.60645 67.0659 7.55801C67.2312 7.51069 67.4117 7.40644 67.5923 7.3022C67.8089 7.17712 67.8338 6.97013 67.6574 6.83124C67.3615 6.56871 67.0654 6.30625 66.7237 6.21469C66.7237 6.21469 66.7237 6.21468 66.7236 6.21468C66.7236 6.21466 66.7236 6.21465 66.7235 6.21463C66.7232 6.21452 66.7228 6.2144 66.7224 6.21428C66.684 6.20179 66.6456 6.19008 66.6073 6.17913C65.5321 5.86887 64.5904 6.10326 63.6747 6.77131M63.8148 6.93108C63.7372 6.87974 63.7164 6.84367 63.6747 6.77157L63.8148 6.93108ZM63.6747 6.77157C63.6747 6.77153 63.6746 6.77148 63.6745 6.77144L63.6745 6.7714C63.6746 6.77138 63.6746 6.77136 63.6746 6.77133M72.4697 7.32711C72.5326 7.46324 72.5972 7.59333 72.661 7.72204L72.6611 7.72211L72.6611 7.72213C72.7933 7.98864 72.9226 8.24923 73.0285 8.5452C73.3371 9.33001 73.4027 10.1106 73.096 10.9137C73.0088 11.1614 72.8418 11.3877 72.6629 11.6303L72.6628 11.6304C72.5799 11.7429 72.4943 11.8589 72.4129 11.9822C71.7015 11.3337 71.5845 10.6307 71.5398 9.88619C71.4992 8.89854 71.7224 7.95099 72.0959 7.01316C72.2307 7.07981 72.3502 7.20344 72.4697 7.32707L72.4697 7.32711Z" fill="#FFE000"/>
</svg>
