<svg viewBox="0 0 22 22" fill="none" xmlns="http://www.w3.org/2000/svg">
<path d="M9.64802 5.24433C9.90011 6.62699 9.7539 8.56955 9.45517 9.73356C9.38951 9.93136 9.34511 10.0785 9.31144 10.1901C9.22356 10.4814 9.20869 10.5307 9.07966 10.6063C9.05464 10.621 9.04213 10.6283 9.02094 10.6382C9.00455 10.6459 8.98019 10.6555 8.96299 10.6611C8.94075 10.6684 8.9196 10.6732 8.87729 10.6828C7.90069 10.9044 6.93266 11.1463 5.9514 11.3945C5.82938 11.4254 5.76836 11.4408 5.68248 11.4332C5.62402 11.428 5.51798 11.3936 5.46753 11.3636C5.3934 11.3194 5.36826 11.2894 5.31799 11.2295C4.2852 9.99754 3.48918 6.21686 3.63431 5.17608C3.70616 3.15643 4.06035 0.508645 6.88507 0.923191C8.20982 1.26949 9.18795 2.72798 9.64802 5.24433Z" fill="#000000"/>
<path d="M14.9219 5.63613C17.7466 5.22158 18.102 7.86937 18.1726 9.88775C18.3189 10.9287 17.5217 14.7114 16.4885 15.942C16.4384 16.0017 16.4133 16.0315 16.3393 16.0756C16.2889 16.1056 16.1829 16.1399 16.1246 16.1451C16.0388 16.1528 15.978 16.1374 15.8563 16.1067C14.8746 15.8593 13.9063 15.6172 12.9303 15.3945C12.8883 15.3849 12.8673 15.3801 12.8452 15.3729C12.8281 15.3673 12.804 15.3578 12.7877 15.3501C12.7667 15.3403 12.7541 15.333 12.729 15.3183C12.5987 15.2421 12.5838 15.193 12.4944 14.8977C12.4608 14.7866 12.4166 14.6406 12.3518 14.4452C12.0543 13.2812 11.9068 11.3399 12.1589 9.956C12.6202 7.44092 13.5984 5.98243 14.9219 5.63613Z" fill="#000000"/>
<path d="M12.4158 16.267C12.3317 16.3308 12.2818 16.4194 12.1821 16.5964C9.60817 21.1671 15.0251 23.4255 15.8693 17.7545C15.9011 17.5409 15.917 17.4342 15.8862 17.3272C15.8605 17.2383 15.8012 17.145 15.7316 17.0842C15.648 17.0111 15.5378 16.9784 15.3174 16.9131C15.0159 16.8237 14.7333 16.7421 14.4623 16.6638C13.9874 16.5265 13.5476 16.3994 13.1033 16.259C12.8847 16.1899 12.7754 16.1553 12.6705 16.1662C12.5819 16.1755 12.4868 16.2131 12.4158 16.267Z" fill="#000000"/>
<path d="M6.48911 12.2013C6.26893 12.2666 6.15884 12.2993 6.07521 12.3724C6.00566 12.4332 5.94635 12.5265 5.92074 12.6154C5.88994 12.7223 5.90582 12.829 5.93758 13.0424C6.78157 18.7139 12.1988 16.4544 9.62482 11.8847C9.52511 11.7076 9.47525 11.6191 9.39121 11.5553C9.32019 11.5014 9.22512 11.4638 9.13651 11.4546C9.03165 11.4436 8.92233 11.4782 8.70371 11.5472C8.26429 11.686 7.82955 11.8116 7.36045 11.9471C7.08455 12.0268 6.79676 12.11 6.48911 12.2013Z" fill="#000000"/>
</svg>
