<svg xmlns="http://www.w3.org/2000/svg"  viewBox="0 0 427 97" fill="none">
  <path d="M300.752 33.1341C299.952 32.8514 299.177 32.5653 298.421 32.2862C296.189 31.4618 294.125 30.6994 292.055 30.2731C289.392 29.725 287.342 29.8886 285.649 30.9959C283.801 32.2055 282.684 34.1436 282.015 36.8122C281.332 39.5355 281.202 42.6531 281.086 45.9011C280.97 49.1469 280.875 52.2652 281.361 55.032C281.837 57.743 282.813 59.7607 284.574 61.1048C286.162 62.3174 288.159 62.6034 290.857 62.2267C292.752 61.9622 294.583 61.4522 296.577 60.8968C297.603 60.6108 298.673 60.3127 299.817 60.03C300.15 59.9477 300.479 59.8673 300.804 59.7879C303.22 59.197 305.41 58.6613 307.363 57.832C309.509 56.9207 311.059 55.7729 312.026 54.1125C314.28 50.2396 313.972 45.0501 311.678 40.5435C309.816 36.8883 305.859 34.9366 300.752 33.1341Z" stroke="#5F8BFA" stroke-width="5.77916"/>
  <path d="M344.955 42.0098C342.796 38.9972 339.432 37.1896 335.465 37.1896C327.984 37.1896 322.662 42.9638 322.662 50.9471C322.662 58.9305 327.984 64.7046 335.465 64.7046C339.432 64.7046 342.796 62.8971 344.955 59.8845V60.964C344.955 62.4753 346.18 63.7004 347.691 63.7004V63.7004C349.203 63.7004 350.428 62.4753 350.428 60.964V40.9303C350.428 39.419 349.203 38.1938 347.691 38.1938V38.1938C346.18 38.1938 344.955 39.419 344.955 40.9303V42.0098ZM336.52 59.8845C331.649 59.8845 328.084 56.0685 328.084 50.9471C328.084 45.7755 331.649 42.0098 336.52 42.0098C341.39 42.0098 344.905 45.7755 344.905 50.9471C344.905 56.1188 341.39 59.8845 336.52 59.8845Z" fill="#5F8BFA"/>
  <path d="M363.123 60.236C365.282 63.0477 368.546 64.7046 372.362 64.7046C379.793 64.7046 385.165 58.9305 385.165 50.9471C385.165 42.9638 379.743 37.1896 372.362 37.1896C368.446 37.1896 365.132 38.8968 362.973 41.7587V40.855C362.973 39.3853 361.781 38.1938 360.312 38.1938V38.1938C358.842 38.1938 357.65 39.3853 357.65 40.855V72.5123C357.65 74.0236 358.876 75.2487 360.387 75.2487V75.2487C361.898 75.2487 363.123 74.0236 363.123 72.5123V60.236ZM379.743 50.9471C379.743 55.9681 376.178 59.5832 371.308 59.5832C366.437 59.5832 362.922 55.9681 362.922 50.9471C362.922 45.9262 366.437 42.311 371.308 42.311C376.128 42.311 379.743 45.8759 379.743 50.9471Z" fill="#5F8BFA"/>
  <path d="M396.662 60.236C398.821 63.0477 402.085 64.7046 405.901 64.7046C413.332 64.7046 418.704 58.9305 418.704 50.9471C418.704 42.9638 413.281 37.1896 405.901 37.1896C401.984 37.1896 398.67 38.8968 396.511 41.7587V40.8549C396.511 39.3853 395.32 38.1938 393.85 38.1938V38.1938C392.38 38.1938 391.189 39.3853 391.189 40.855V72.5123C391.189 74.0236 392.414 75.2487 393.926 75.2487V75.2487C395.437 75.2487 396.662 74.0236 396.662 72.5123V60.236ZM413.281 50.9471C413.281 55.9681 409.716 59.5832 404.846 59.5832C399.976 59.5832 396.461 55.9681 396.461 50.9471C396.461 45.9262 399.976 42.311 404.846 42.311C409.666 42.311 413.281 45.8759 413.281 50.9471Z" fill="#5F8BFA"/>
  <path d="M142.977 65.6396C151.462 65.6396 156.808 60.784 156.808 54.2609C156.808 40.7241 134.296 47.002 134.296 38.7132C134.296 35.6232 137.337 33.3181 142.045 33.3181C145.947 33.3181 148.996 35.1434 150.116 37.9315C150.632 39.2166 151.702 40.3807 153.087 40.3807V40.3807C154.705 40.3807 156.056 39.0402 155.638 37.4766C154.204 32.1078 148.904 28.4625 141.996 28.4625C133.904 28.4625 128.459 33.0238 128.459 39.547C128.459 52.9857 150.972 46.6096 150.972 55.1437C150.972 58.2336 148.078 60.784 143.124 60.784C138.753 60.784 135.401 58.8054 134.146 55.809C133.55 54.3848 132.358 53.0838 130.814 53.0838V53.0838C129.27 53.0838 127.981 54.3535 128.339 55.8553C129.722 61.6521 135.445 65.6396 142.977 65.6396Z" fill="#5F8BFA"/>
  <path d="M172.991 65.3944C176.179 65.3944 179.318 63.8249 181.034 61.2255V61.7895C181.034 63.2387 182.209 64.4135 183.658 64.4135V64.4135C185.107 64.4135 186.282 63.2387 186.282 61.7895V42.1464C186.282 40.6837 185.096 39.4979 183.634 39.4979V39.4979C182.171 39.4979 180.985 40.6837 180.985 42.1464V53.8195C180.985 57.7922 177.846 60.686 174.168 60.686C170.391 60.686 168.233 57.9884 168.233 54.3099V42.1709C168.233 40.6947 167.036 39.4979 165.56 39.4979V39.4979C164.084 39.4979 162.887 40.6947 162.887 42.1709V54.7023C162.887 60.8821 166.86 65.3944 172.991 65.3944Z" fill="#5F8BFA"/>
  <path d="M198.707 61.0293C200.816 63.7759 204.004 65.3944 207.732 65.3944C214.99 65.3944 220.238 59.7541 220.238 51.9557C220.238 44.1573 214.941 38.517 207.732 38.517C203.906 38.517 200.669 40.1846 198.56 42.9802V42.0974C198.56 40.6617 197.396 39.4979 195.96 39.4979V39.4979C194.525 39.4979 193.361 40.6617 193.361 42.0974V73.0211C193.361 74.4974 194.558 75.6942 196.034 75.6942V75.6942C197.51 75.6942 198.707 74.4974 198.707 73.0211V61.0293ZM214.941 51.9557C214.941 56.8603 211.459 60.3917 206.702 60.3917C201.944 60.3917 198.511 56.8603 198.511 51.9557C198.511 47.0511 201.944 43.5197 206.702 43.5197C211.41 43.5197 214.941 47.002 214.941 51.9557Z" fill="#5F8BFA"/>
  <path d="M238.335 60.9312C234.215 60.9312 231.076 57.9884 230.438 53.5742H249.563C250.621 53.5742 251.528 52.7678 251.528 51.7105V51.7105C251.528 44.0102 246.035 38.517 238.286 38.517C230.537 38.517 224.945 44.0102 224.945 51.6614C224.945 59.656 230.586 65.3944 238.433 65.3944C242.752 65.3944 246.788 63.5084 248.981 60.6676C249.861 59.5286 249.124 58.0085 247.758 57.5579V57.5579C246.546 57.1582 245.239 57.7547 244.309 58.6287C242.839 60.0095 240.638 60.9312 238.335 60.9312ZM230.438 49.6505C231.174 45.6778 234.117 42.9802 238.139 42.9802C242.259 42.9802 245.398 45.7268 245.986 49.6505H230.438Z" fill="#5F8BFA"/>
  <path d="M269.317 38.6151C266.473 38.6151 264.069 40.1355 262.549 42.6859V42.0728C262.549 40.6507 261.396 39.4979 259.974 39.4979V39.4979C258.552 39.4979 257.399 40.6507 257.399 42.0728V61.7405C257.399 63.2167 258.596 64.4135 260.072 64.4135V64.4135C261.548 64.4135 262.745 63.2167 262.745 61.7405V50.7786C262.745 46.3644 265.05 43.1764 268.631 43.1764C268.829 43.1764 269.048 43.1864 269.284 43.2071C270.824 43.3427 272.456 42.2696 272.456 40.7243V40.7243C272.456 39.8382 271.913 39.022 271.049 38.8259C270.454 38.691 269.863 38.6151 269.317 38.6151Z" fill="#5F8BFA"/>
  <path fill-rule="evenodd" clip-rule="evenodd" d="M50.6209 1.40747C35.1224 0.191288 17.1854 -3.20351 6.85371 8.47074C-3.79418 20.5023 0.252596 38.5876 3.82495 54.2844C7.39441 69.9685 11.567 88.0322 26.3601 94.1815C40.6961 100.141 55.1154 88.8059 68.6829 81.2448C80.8064 74.4885 94.1762 67.8204 97.7953 54.3712C101.55 40.4185 96.1744 25.4964 86.5822 14.7271C77.6176 4.66225 64.0209 2.45897 50.6209 1.40747Z" fill="#D9D9D9"/>
  <path fill-rule="evenodd" clip-rule="evenodd" d="M50.6209 1.40747C35.1224 0.191288 17.1854 -3.20351 6.85371 8.47074C-3.79418 20.5023 0.252596 38.5876 3.82495 54.2844C7.39441 69.9685 11.567 88.0322 26.3601 94.1815C40.6961 100.141 55.1154 88.8059 68.6829 81.2448C80.8064 74.4885 94.1762 67.8204 97.7953 54.3712C101.55 40.4185 96.1744 25.4964 86.5822 14.7271C77.6176 4.66225 64.0209 2.45897 50.6209 1.40747Z" fill="url(#paint0_linear_11627_258)"/>
  <path fill-rule="evenodd" clip-rule="evenodd" d="M22.0714 26.9677C22.0563 33.1926 22.0255 45.8681 22.055 56.4612C22.0639 59.6294 24.6375 62.1869 27.8057 62.1869H69.0237C72.205 62.1869 74.784 59.6079 74.784 56.4266V34.1696C74.784 30.9883 72.205 28.4093 69.0237 28.4093H28.3354C26.3126 28.4093 24.438 27.3483 23.3968 25.6141L22.0788 23.4187C22.0787 23.9496 22.0757 25.1979 22.0714 26.9677L22.0714 26.9677L22.0714 26.9677ZM35.4211 52.8291C37.8748 52.8291 39.8639 50.84 39.8639 48.3863C39.8639 45.9326 37.8748 43.9435 35.4211 43.9435C32.9674 43.9435 30.9783 45.9326 30.9783 48.3863C30.9783 50.84 32.9674 52.8291 35.4211 52.8291ZM66.2766 48.386C66.2766 50.8397 64.2875 52.8289 61.8338 52.8289C59.3801 52.8289 57.391 50.8397 57.391 48.386C57.391 45.9323 59.3801 43.9432 61.8338 43.9432C64.2875 43.9432 66.2766 45.9323 66.2766 48.386ZM41.8247 51.4893C45.2017 55.6683 51.5726 55.6683 54.9496 51.4893L54.1133 50.8135C51.1667 54.4599 45.6077 54.4599 42.661 50.8135L41.8247 51.4893Z" fill="white"/>
  <defs>
    <linearGradient id="paint0_linear_11627_258" x1="-1.47232e-05" y1="106.954" x2="114.185" y2="60.2602" gradientUnits="userSpaceOnUse">
      <stop stop-color="#69F7F7"/>
      <stop offset="1" stop-color="#5F8AFA"/>
    </linearGradient>
  </defs>
</svg>
